<?xml version="1.0" encoding="UTF-8" standalone="no"?>
<!DOCTYPE svg PUBLIC "-//W3C//DTD SVG 1.1//EN"
 "http://www.w3.org/Graphics/SVG/1.1/DTD/svg11.dtd">
<!-- Generated by graphviz version 2.43.0 (0)
 -->
<!-- Title: snakemake_dag Pages: 1 -->
<svg width="220pt" height="283pt"
 viewBox="0.00 0.00 220.00 211.00" xmlns="http://www.w3.org/2000/svg" xmlns:xlink="http://www.w3.org/1999/xlink">
<g id="graph0" class="graph" transform="scale(1 1) rotate(0) translate(4 207)">
<title>snakemake_dag</title>
<polygon fill="white" stroke="transparent" points="-4,4 -4,-207 216,-207 216,4 -4,4"/>
<text text-anchor="middle" x="106" y="-187.8" font-family="Times,serif" font-size="14.00">Aggregated BCF input</text>
<!-- 0 -->
<g id="node1" class="node">
<title>0</title>
<path fill="none" stroke="#d85656" stroke-width="2" d="M146,-36C146,-36 66,-36 66,-36 60,-36 54,-30 54,-24 54,-24 54,-12 54,-12 54,-6 60,0 66,0 66,0 146,0 146,0 152,0 158,-6 158,-12 158,-12 158,-24 158,-24 158,-30 152,-36 146,-36"/>
<text text-anchor="middle" x="106" y="-15.5" font-family="sans" font-size="10.00">all_contamination</text>
</g>
<!-- 1 -->
<g id="node2" class="node">
<title>1</title>
<path fill="none" stroke="#59d856" stroke-width="2" d="M168.5,-108C168.5,-108 43.5,-108 43.5,-108 37.5,-108 31.5,-102 31.5,-96 31.5,-96 31.5,-84 31.5,-84 31.5,-78 37.5,-72 43.5,-72 43.5,-72 168.5,-72 168.5,-72 174.5,-72 180.5,-78 180.5,-84 180.5,-84 180.5,-96 180.5,-96 180.5,-102 174.5,-108 168.5,-108"/>
<text text-anchor="middle" x="106" y="-87.5" font-family="sans" font-size="10.00">agg_median_idat_intensity</text>
</g>
<!-- 1&#45;&gt;0 -->
<g id="edge1" class="edge">
<title>1&#45;&gt;0</title>
<path fill="none" stroke="grey" stroke-width="2" d="M106,-71.7C106,-63.98 106,-54.71 106,-46.11"/>
<polygon fill="grey" stroke="grey" stroke-width="2" points="109.5,-46.1 106,-36.1 102.5,-46.1 109.5,-46.1"/>
</g>
<!-- 2 -->
<g id="node3" class="node">
<title>2</title>
<path fill="none" stroke="#56d8d8" stroke-width="2" d="M200,-180C200,-180 12,-180 12,-180 6,-180 0,-174 0,-168 0,-168 0,-156 0,-156 0,-150 6,-144 12,-144 12,-144 200,-144 200,-144 206,-144 212,-150 212,-156 212,-156 212,-168 212,-168 212,-174 206,-180 200,-180"/>
<text text-anchor="middle" x="106" y="-159.5" font-family="sans" font-size="10.00">per_sample_median_intensity_from_vcf</text>
</g>
<!-- 2&#45;&gt;1 -->
<g id="edge2" class="edge">
<title>2&#45;&gt;1</title>
<path fill="none" stroke="grey" stroke-width="2" d="M106,-143.7C106,-135.98 106,-126.71 106,-118.11"/>
<polygon fill="grey" stroke="grey" stroke-width="2" points="109.5,-118.1 106,-108.1 102.5,-118.1 109.5,-118.1"/>
</g>
</g>
</svg>
