<?xml version="1.0" encoding="UTF-8" standalone="no"?>
<!DOCTYPE svg PUBLIC "-//W3C//DTD SVG 1.1//EN"
 "http://www.w3.org/Graphics/SVG/1.1/DTD/svg11.dtd">
<!-- Generated by graphviz version 2.42.3 (20191010.1750)
 -->
<!-- Title: snakemake_dag Pages: 1 -->
<svg width="963pt" height="1628pt"
 viewBox="0.00 0.00 963.00 1628.00" xmlns="http://www.w3.org/2000/svg" xmlns:xlink="http://www.w3.org/1999/xlink">
<g id="graph0" class="graph" transform="scale(1 1) rotate(0) translate(4 1624)">
<title>snakemake_dag</title>
<polygon fill="white" stroke="transparent" points="-4,4 -4,-1624 959,-1624 959,4 -4,4"/>
<!-- 0 -->
<g id="node1" class="node">
<title>0</title>
<path fill="none" stroke="#d87556" stroke-width="2" d="M655,-972C655,-972 575,-972 575,-972 569,-972 563,-966 563,-960 563,-960 563,-948 563,-948 563,-942 569,-936 575,-936 575,-936 655,-936 655,-936 661,-936 667,-942 667,-948 667,-948 667,-960 667,-960 667,-966 661,-972 655,-972"/>
<text text-anchor="middle" x="615" y="-951.5" font-family="sans" font-size="10.00">sample_qc_report</text>
</g>
<!-- 32 -->
<g id="node33" class="node">
<title>32</title>
<path fill="none" stroke="#56d8c1" stroke-width="2" d="M421,-900C421,-900 317,-900 317,-900 311,-900 305,-894 305,-888 305,-888 305,-876 305,-876 305,-870 311,-864 317,-864 317,-864 421,-864 421,-864 427,-864 433,-870 433,-876 433,-876 433,-888 433,-888 433,-894 427,-900 421,-900"/>
<text text-anchor="middle" x="369" y="-879.5" font-family="sans" font-size="10.00">subject_representative</text>
</g>
<!-- 0&#45;&gt;32 -->
<g id="edge53" class="edge">
<title>0&#45;&gt;32</title>
<path fill="none" stroke="grey" stroke-width="2" d="M562.83,-938.15C526.68,-927.87 478.16,-914.06 438.71,-902.83"/>
<polygon fill="grey" stroke="grey" stroke-width="2" points="439.46,-899.41 428.88,-900.04 437.54,-906.14 439.46,-899.41"/>
</g>
<!-- 33 -->
<g id="node34" class="node">
<title>33</title>
<path fill="none" stroke="#56d8a9" stroke-width="2" d="M574.5,-900C574.5,-900 463.5,-900 463.5,-900 457.5,-900 451.5,-894 451.5,-888 451.5,-888 451.5,-876 451.5,-876 451.5,-870 457.5,-864 463.5,-864 463.5,-864 574.5,-864 574.5,-864 580.5,-864 586.5,-870 586.5,-876 586.5,-876 586.5,-888 586.5,-888 586.5,-894 580.5,-900 574.5,-900"/>
<text text-anchor="middle" x="519" y="-879.5" font-family="sans" font-size="10.00">sample_to_subject_map</text>
</g>
<!-- 0&#45;&gt;33 -->
<g id="edge54" class="edge">
<title>0&#45;&gt;33</title>
<path fill="none" stroke="grey" stroke-width="2" d="M591.27,-935.7C579.06,-926.8 564.01,-915.82 550.82,-906.2"/>
<polygon fill="grey" stroke="grey" stroke-width="2" points="552.6,-903.17 542.46,-900.1 548.48,-908.82 552.6,-903.17"/>
</g>
<!-- 34 -->
<g id="node35" class="node">
<title>34</title>
<path fill="none" stroke="#5692d8" stroke-width="2" d="M670.5,-756C670.5,-756 559.5,-756 559.5,-756 553.5,-756 547.5,-750 547.5,-744 547.5,-744 547.5,-732 547.5,-732 547.5,-726 553.5,-720 559.5,-720 559.5,-720 670.5,-720 670.5,-720 676.5,-720 682.5,-726 682.5,-732 682.5,-732 682.5,-744 682.5,-744 682.5,-750 676.5,-756 670.5,-756"/>
<text text-anchor="middle" x="615" y="-735.5" font-family="sans" font-size="10.00">subjects_per_population</text>
</g>
<!-- 0&#45;&gt;34 -->
<g id="edge55" class="edge">
<title>0&#45;&gt;34</title>
<path fill="none" stroke="grey" stroke-width="2" d="M615,-935.85C615,-898.83 615,-811.18 615,-766.39"/>
<polygon fill="grey" stroke="grey" stroke-width="2" points="618.5,-766.23 615,-756.23 611.5,-766.23 618.5,-766.23"/>
</g>
<!-- 44 -->
<g id="node45" class="node">
<title>44</title>
<path fill="none" stroke="#5682d8" stroke-width="2" d="M766,-828C766,-828 656,-828 656,-828 650,-828 644,-822 644,-816 644,-816 644,-804 644,-804 644,-798 650,-792 656,-792 656,-792 766,-792 766,-792 772,-792 778,-798 778,-804 778,-804 778,-816 778,-816 778,-822 772,-828 766,-828"/>
<text text-anchor="middle" x="711" y="-807.5" font-family="sans" font-size="10.00">controls_per_population</text>
</g>
<!-- 0&#45;&gt;44 -->
<g id="edge67" class="edge">
<title>0&#45;&gt;44</title>
<path fill="none" stroke="grey" stroke-width="2" d="M626.58,-935.87C643.3,-911.14 674.33,-865.24 693.75,-836.51"/>
<polygon fill="grey" stroke="grey" stroke-width="2" points="696.68,-838.43 699.38,-828.19 690.88,-834.51 696.68,-838.43"/>
</g>
<!-- 45 -->
<g id="node46" class="node">
<title>45</title>
<path fill="none" stroke="#70d856" stroke-width="2" d="M172,-36C172,-36 142,-36 142,-36 136,-36 130,-30 130,-24 130,-24 130,-12 130,-12 130,-6 136,0 142,0 142,0 172,0 172,0 178,0 184,-6 184,-12 184,-12 184,-24 184,-24 184,-30 178,-36 172,-36"/>
<text text-anchor="middle" x="157" y="-15.5" font-family="sans" font-size="10.00">all</text>
</g>
<!-- 0&#45;&gt;45 -->
<g id="edge68" class="edge">
<title>0&#45;&gt;45</title>
<path fill="none" stroke="grey" stroke-width="2" d="M562.74,-950.42C483.08,-945.49 336.28,-932.22 296,-900 73.85,-722.29 55,-591.49 55,-307 55,-307 55,-307 55,-161 55,-120.55 50.95,-105.24 74,-72 85.51,-55.41 104.07,-42.84 120.72,-34.12"/>
<polygon fill="grey" stroke="grey" stroke-width="2" points="122.31,-37.24 129.72,-29.67 119.21,-30.97 122.31,-37.24"/>
</g>
<!-- 1 -->
<g id="node2" class="node">
<title>1</title>
<path fill="none" stroke="#d8c356" stroke-width="2" d="M894.5,-1116C894.5,-1116 801.5,-1116 801.5,-1116 795.5,-1116 789.5,-1110 789.5,-1104 789.5,-1104 789.5,-1092 789.5,-1092 789.5,-1086 795.5,-1080 801.5,-1080 801.5,-1080 894.5,-1080 894.5,-1080 900.5,-1080 906.5,-1086 906.5,-1092 906.5,-1092 906.5,-1104 906.5,-1104 906.5,-1110 900.5,-1116 894.5,-1116"/>
<text text-anchor="middle" x="848" y="-1095.5" font-family="sans" font-size="10.00">plink_stats_call_rate</text>
</g>
<!-- 1&#45;&gt;0 -->
<g id="edge2" class="edge">
<title>1&#45;&gt;0</title>
<path fill="none" stroke="grey" stroke-width="2" d="M838.08,-1079.77C825.74,-1059.78 802.84,-1027.12 775,-1008 745.84,-987.97 708.53,-975.03 677.27,-966.96"/>
<polygon fill="grey" stroke="grey" stroke-width="2" points="677.91,-963.52 667.36,-964.51 676.22,-970.31 677.91,-963.52"/>
</g>
<!-- 12 -->
<g id="node13" class="node">
<title>12</title>
<path fill="none" stroke="#d8a456" stroke-width="2" d="M873.5,-252C873.5,-252 748.5,-252 748.5,-252 742.5,-252 736.5,-246 736.5,-240 736.5,-240 736.5,-228 736.5,-228 736.5,-222 742.5,-216 748.5,-216 748.5,-216 873.5,-216 873.5,-216 879.5,-216 885.5,-222 885.5,-228 885.5,-228 885.5,-240 885.5,-240 885.5,-246 879.5,-252 873.5,-252"/>
<text text-anchor="middle" x="811" y="-231.5" font-family="sans" font-size="10.00">sample_concordance_plink</text>
</g>
<!-- 1&#45;&gt;12 -->
<g id="edge21" class="edge">
<title>1&#45;&gt;12</title>
<path fill="none" stroke="grey" stroke-width="2" d="M872.82,-1079.98C904.43,-1056.07 955,-1009.33 955,-955 955,-955 955,-955 955,-377 955,-321.39 899.88,-280.24 857.85,-256.94"/>
<polygon fill="grey" stroke="grey" stroke-width="2" points="859.3,-253.75 848.83,-252.1 855.99,-259.91 859.3,-253.75"/>
</g>
<!-- 18 -->
<g id="node19" class="node">
<title>18</title>
<path fill="none" stroke="#56d882" stroke-width="2" d="M701.5,-1044C701.5,-1044 528.5,-1044 528.5,-1044 522.5,-1044 516.5,-1038 516.5,-1032 516.5,-1032 516.5,-1020 516.5,-1020 516.5,-1014 522.5,-1008 528.5,-1008 528.5,-1008 701.5,-1008 701.5,-1008 707.5,-1008 713.5,-1014 713.5,-1020 713.5,-1020 713.5,-1032 713.5,-1032 713.5,-1038 707.5,-1044 701.5,-1044"/>
<text text-anchor="middle" x="615" y="-1023.5" font-family="sans" font-size="10.00">agg_verifyIDintensity_contamination</text>
</g>
<!-- 1&#45;&gt;18 -->
<g id="edge31" class="edge">
<title>1&#45;&gt;18</title>
<path fill="none" stroke="grey" stroke-width="2" d="M791.3,-1079.97C758.32,-1070.06 716.57,-1057.51 681.97,-1047.12"/>
<polygon fill="grey" stroke="grey" stroke-width="2" points="682.54,-1043.64 671.95,-1044.11 680.52,-1050.34 682.54,-1043.64"/>
</g>
<!-- 2 -->
<g id="node3" class="node">
<title>2</title>
<path fill="none" stroke="#d89556" stroke-width="2" d="M656,-1476C656,-1476 542,-1476 542,-1476 536,-1476 530,-1470 530,-1464 530,-1464 530,-1452 530,-1452 530,-1446 536,-1440 542,-1440 542,-1440 656,-1440 656,-1440 662,-1440 668,-1446 668,-1452 668,-1452 668,-1464 668,-1464 668,-1470 662,-1476 656,-1476"/>
<text text-anchor="middle" x="599" y="-1455.5" font-family="sans" font-size="10.00">merge_gtc_sample_peds</text>
</g>
<!-- 2&#45;&gt;1 -->
<g id="edge8" class="edge">
<title>2&#45;&gt;1</title>
<path fill="none" stroke="grey" stroke-width="2" d="M668.18,-1447.17C740.94,-1432.48 845,-1397.11 845,-1315 845,-1315 845,-1315 845,-1241 845,-1200.99 846.21,-1154.65 847.09,-1126.08"/>
<polygon fill="grey" stroke="grey" stroke-width="2" points="850.59,-1126.15 847.41,-1116.05 843.59,-1125.93 850.59,-1126.15"/>
</g>
<!-- 6 -->
<g id="node7" class="node">
<title>6</title>
<path fill="none" stroke="#88d856" stroke-width="2" d="M578.5,-1404C578.5,-1404 493.5,-1404 493.5,-1404 487.5,-1404 481.5,-1398 481.5,-1392 481.5,-1392 481.5,-1380 481.5,-1380 481.5,-1374 487.5,-1368 493.5,-1368 493.5,-1368 578.5,-1368 578.5,-1368 584.5,-1368 590.5,-1374 590.5,-1380 590.5,-1380 590.5,-1392 590.5,-1392 590.5,-1398 584.5,-1404 578.5,-1404"/>
<text text-anchor="middle" x="536" y="-1383.5" font-family="sans" font-size="10.00">snp_call_rate_filter</text>
</g>
<!-- 2&#45;&gt;6 -->
<g id="edge14" class="edge">
<title>2&#45;&gt;6</title>
<path fill="none" stroke="grey" stroke-width="2" d="M583.43,-1439.7C575.8,-1431.22 566.48,-1420.86 558.12,-1411.58"/>
<polygon fill="grey" stroke="grey" stroke-width="2" points="560.69,-1409.2 551.39,-1404.1 555.48,-1413.88 560.69,-1409.2"/>
</g>
<!-- 3 -->
<g id="node4" class="node">
<title>3</title>
<path fill="none" stroke="#56b1d8" stroke-width="2" d="M653,-1620C653,-1620 545,-1620 545,-1620 539,-1620 533,-1614 533,-1608 533,-1608 533,-1596 533,-1596 533,-1590 539,-1584 545,-1584 545,-1584 653,-1584 653,-1584 659,-1584 665,-1590 665,-1596 665,-1596 665,-1608 665,-1608 665,-1614 659,-1620 653,-1620"/>
<text text-anchor="middle" x="599" y="-1599.5" font-family="sans" font-size="10.00">per_sample_gtc_to_ped</text>
</g>
<!-- 3&#45;&gt;2 -->
<g id="edge9" class="edge">
<title>3&#45;&gt;2</title>
<path fill="none" stroke="grey" stroke-width="2" d="M583.39,-1583.77C575.63,-1574.03 567.05,-1561.18 563,-1548 558.3,-1532.71 558.3,-1527.29 563,-1512 566.01,-1502.22 571.51,-1492.62 577.32,-1484.33"/>
<polygon fill="grey" stroke="grey" stroke-width="2" points="580.19,-1486.33 583.39,-1476.23 574.59,-1482.13 580.19,-1486.33"/>
</g>
<!-- 4 -->
<g id="node5" class="node">
<title>4</title>
<path fill="none" stroke="#566bd8" stroke-width="2" d="M726,-1548C726,-1548 584,-1548 584,-1548 578,-1548 572,-1542 572,-1536 572,-1536 572,-1524 572,-1524 572,-1518 578,-1512 584,-1512 584,-1512 726,-1512 726,-1512 732,-1512 738,-1518 738,-1524 738,-1524 738,-1536 738,-1536 738,-1542 732,-1548 726,-1548"/>
<text text-anchor="middle" x="655" y="-1527.5" font-family="sans" font-size="10.00">create_gtc_sample_merge_list</text>
</g>
<!-- 3&#45;&gt;4 -->
<g id="edge11" class="edge">
<title>3&#45;&gt;4</title>
<path fill="none" stroke="grey" stroke-width="2" d="M612.84,-1583.7C619.49,-1575.39 627.58,-1565.28 634.89,-1556.14"/>
<polygon fill="grey" stroke="grey" stroke-width="2" points="637.8,-1558.1 641.32,-1548.1 632.34,-1553.73 637.8,-1558.1"/>
</g>
<!-- 4&#45;&gt;2 -->
<g id="edge10" class="edge">
<title>4&#45;&gt;2</title>
<path fill="none" stroke="grey" stroke-width="2" d="M641.16,-1511.7C634.51,-1503.39 626.42,-1493.28 619.11,-1484.14"/>
<polygon fill="grey" stroke="grey" stroke-width="2" points="621.66,-1481.73 612.68,-1476.1 616.2,-1486.1 621.66,-1481.73"/>
</g>
<!-- 5 -->
<g id="node6" class="node">
<title>5</title>
<path fill="none" stroke="#56d8d8" stroke-width="2" d="M588,-1332C588,-1332 484,-1332 484,-1332 478,-1332 472,-1326 472,-1320 472,-1320 472,-1308 472,-1308 472,-1302 478,-1296 484,-1296 484,-1296 588,-1296 588,-1296 594,-1296 600,-1302 600,-1308 600,-1308 600,-1320 600,-1320 600,-1326 594,-1332 588,-1332"/>
<text text-anchor="middle" x="536" y="-1311.5" font-family="sans" font-size="10.00">sample_call_rate_filter</text>
</g>
<!-- 5&#45;&gt;1 -->
<g id="edge7" class="edge">
<title>5&#45;&gt;1</title>
<path fill="none" stroke="grey" stroke-width="2" d="M594.12,-1295.97C621.06,-1287 653.01,-1274.77 680,-1260 726.48,-1234.57 736.83,-1224.73 775,-1188 795.51,-1168.26 815.8,-1142.94 829.76,-1124.35"/>
<polygon fill="grey" stroke="grey" stroke-width="2" points="832.75,-1126.19 835.89,-1116.08 827.13,-1122.02 832.75,-1126.19"/>
</g>
<!-- 5&#45;&gt;6 -->
<g id="edge13" class="edge">
<title>5&#45;&gt;6</title>
<path fill="none" stroke="grey" stroke-width="2" d="M541.9,-1332.1C542.7,-1339.79 542.94,-1349.05 542.6,-1357.67"/>
<polygon fill="grey" stroke="grey" stroke-width="2" points="539.11,-1357.48 541.92,-1367.7 546.09,-1357.96 539.11,-1357.48"/>
</g>
<!-- 7 -->
<g id="node8" class="node">
<title>7</title>
<path fill="none" stroke="#56d8a2" stroke-width="2" d="M658.5,-1260C658.5,-1260 561.5,-1260 561.5,-1260 555.5,-1260 549.5,-1254 549.5,-1248 549.5,-1248 549.5,-1236 549.5,-1236 549.5,-1230 555.5,-1224 561.5,-1224 561.5,-1224 658.5,-1224 658.5,-1224 664.5,-1224 670.5,-1230 670.5,-1236 670.5,-1236 670.5,-1248 670.5,-1248 670.5,-1254 664.5,-1260 658.5,-1260"/>
<text text-anchor="middle" x="610" y="-1239.5" font-family="sans" font-size="10.00">plink_stats_sexcheck</text>
</g>
<!-- 5&#45;&gt;7 -->
<g id="edge15" class="edge">
<title>5&#45;&gt;7</title>
<path fill="none" stroke="grey" stroke-width="2" d="M554.29,-1295.7C563.43,-1287.05 574.64,-1276.45 584.6,-1267.03"/>
<polygon fill="grey" stroke="grey" stroke-width="2" points="587.06,-1269.52 591.92,-1260.1 582.25,-1264.43 587.06,-1269.52"/>
</g>
<!-- 11 -->
<g id="node12" class="node">
<title>11</title>
<path fill="none" stroke="#59d856" stroke-width="2" d="M309.5,-1260C309.5,-1260 192.5,-1260 192.5,-1260 186.5,-1260 180.5,-1254 180.5,-1248 180.5,-1248 180.5,-1236 180.5,-1236 180.5,-1230 186.5,-1224 192.5,-1224 192.5,-1224 309.5,-1224 309.5,-1224 315.5,-1224 321.5,-1230 321.5,-1236 321.5,-1236 321.5,-1248 321.5,-1248 321.5,-1254 315.5,-1260 309.5,-1260"/>
<text text-anchor="middle" x="251" y="-1239.5" font-family="sans" font-size="10.00">update_snps_to_1kg_rsID</text>
</g>
<!-- 5&#45;&gt;11 -->
<g id="edge19" class="edge">
<title>5&#45;&gt;11</title>
<path fill="none" stroke="grey" stroke-width="2" d="M471.69,-1297.2C429.79,-1286.91 374.83,-1273.41 330.24,-1262.46"/>
<polygon fill="grey" stroke="grey" stroke-width="2" points="330.86,-1259.01 320.31,-1260.02 329.19,-1265.81 330.86,-1259.01"/>
</g>
<!-- 16 -->
<g id="node17" class="node">
<title>16</title>
<path fill="none" stroke="#bed856" stroke-width="2" d="M433,-612C433,-612 393,-612 393,-612 387,-612 381,-606 381,-600 381,-600 381,-588 381,-588 381,-582 387,-576 393,-576 393,-576 433,-576 433,-576 439,-576 445,-582 445,-588 445,-588 445,-600 445,-600 445,-606 439,-612 433,-612"/>
<text text-anchor="middle" x="413" y="-591.5" font-family="sans" font-size="10.00">maf_filter</text>
</g>
<!-- 5&#45;&gt;16 -->
<g id="edge27" class="edge">
<title>5&#45;&gt;16</title>
<path fill="none" stroke="grey" stroke-width="2" d="M471.91,-1311.29C362.26,-1307.43 144.02,-1295.43 77,-1260 30.76,-1235.56 0,-1223.3 0,-1171 0,-1171 0,-1171 0,-737 0,-659.13 265.9,-614.8 370.99,-600.32"/>
<polygon fill="grey" stroke="grey" stroke-width="2" points="371.5,-603.78 380.94,-598.97 370.56,-596.85 371.5,-603.78"/>
</g>
<!-- 31 -->
<g id="node32" class="node">
<title>31</title>
<path fill="none" stroke="#56d89a" stroke-width="2" d="M399.5,-828C399.5,-828 338.5,-828 338.5,-828 332.5,-828 326.5,-822 326.5,-816 326.5,-816 326.5,-804 326.5,-804 326.5,-798 332.5,-792 338.5,-792 338.5,-792 399.5,-792 399.5,-792 405.5,-792 411.5,-798 411.5,-804 411.5,-804 411.5,-816 411.5,-816 411.5,-822 405.5,-828 399.5,-828"/>
<text text-anchor="middle" x="369" y="-807.5" font-family="sans" font-size="10.00">kept_samples</text>
</g>
<!-- 5&#45;&gt;31 -->
<g id="edge52" class="edge">
<title>5&#45;&gt;31</title>
<path fill="none" stroke="grey" stroke-width="2" d="M471.91,-1308.23C337.41,-1296.46 38,-1260.23 38,-1171 38,-1171 38,-1171 38,-953 38,-833.36 222.89,-813.24 316.3,-810.7"/>
<polygon fill="grey" stroke="grey" stroke-width="2" points="316.48,-814.2 326.41,-810.49 316.33,-807.2 316.48,-814.2"/>
</g>
<!-- 6&#45;&gt;5 -->
<g id="edge12" class="edge">
<title>6&#45;&gt;5</title>
<path fill="none" stroke="grey" stroke-width="2" d="M530.08,-1367.7C529.29,-1359.98 529.06,-1350.71 529.4,-1342.11"/>
<polygon fill="grey" stroke="grey" stroke-width="2" points="532.9,-1342.32 530.1,-1332.1 525.92,-1341.84 532.9,-1342.32"/>
</g>
<!-- 7&#45;&gt;0 -->
<g id="edge1" class="edge">
<title>7&#45;&gt;0</title>
<path fill="none" stroke="grey" stroke-width="2" d="M670.44,-1223.97C700.92,-1214.03 733.25,-1200.94 742,-1188 787.06,-1121.36 773.98,-1070.23 723,-1008 710.94,-993.28 693.78,-982.32 676.68,-974.31"/>
<polygon fill="grey" stroke="grey" stroke-width="2" points="677.78,-970.98 667.22,-970.16 674.97,-977.39 677.78,-970.98"/>
</g>
<!-- 8 -->
<g id="node9" class="node">
<title>8</title>
<path fill="none" stroke="#d88d56" stroke-width="2" d="M276.5,-1044C276.5,-1044 187.5,-1044 187.5,-1044 181.5,-1044 175.5,-1038 175.5,-1032 175.5,-1032 175.5,-1020 175.5,-1020 175.5,-1014 181.5,-1008 187.5,-1008 187.5,-1008 276.5,-1008 276.5,-1008 282.5,-1008 288.5,-1014 288.5,-1020 288.5,-1020 288.5,-1032 288.5,-1032 288.5,-1038 282.5,-1044 276.5,-1044"/>
<text text-anchor="middle" x="232" y="-1023.5" font-family="sans" font-size="10.00">graf_ancestry_table</text>
</g>
<!-- 8&#45;&gt;0 -->
<g id="edge3" class="edge">
<title>8&#45;&gt;0</title>
<path fill="none" stroke="grey" stroke-width="2" d="M288.51,-1014.67C359.16,-1001.76 479.69,-979.73 552.87,-966.36"/>
<polygon fill="grey" stroke="grey" stroke-width="2" points="553.66,-969.77 562.87,-964.53 552.4,-962.88 553.66,-969.77"/>
</g>
<!-- 9 -->
<g id="node10" class="node">
<title>9</title>
<path fill="none" stroke="#56d85b" stroke-width="2" d="M217.5,-1116C217.5,-1116 158.5,-1116 158.5,-1116 152.5,-1116 146.5,-1110 146.5,-1104 146.5,-1104 146.5,-1092 146.5,-1092 146.5,-1086 152.5,-1080 158.5,-1080 158.5,-1080 217.5,-1080 217.5,-1080 223.5,-1080 229.5,-1086 229.5,-1092 229.5,-1092 229.5,-1104 229.5,-1104 229.5,-1110 223.5,-1116 217.5,-1116"/>
<text text-anchor="middle" x="188" y="-1095.5" font-family="sans" font-size="10.00">graf_ancestry</text>
</g>
<!-- 9&#45;&gt;8 -->
<g id="edge16" class="edge">
<title>9&#45;&gt;8</title>
<path fill="none" stroke="grey" stroke-width="2" d="M198.88,-1079.7C203.99,-1071.56 210.2,-1061.69 215.84,-1052.7"/>
<polygon fill="grey" stroke="grey" stroke-width="2" points="218.89,-1054.43 221.25,-1044.1 212.96,-1050.71 218.89,-1054.43"/>
</g>
<!-- 10 -->
<g id="node11" class="node">
<title>10</title>
<path fill="none" stroke="#d6d856" stroke-width="2" d="M212.5,-1188C212.5,-1188 77.5,-1188 77.5,-1188 71.5,-1188 65.5,-1182 65.5,-1176 65.5,-1176 65.5,-1164 65.5,-1164 65.5,-1158 71.5,-1152 77.5,-1152 77.5,-1152 212.5,-1152 212.5,-1152 218.5,-1152 224.5,-1158 224.5,-1164 224.5,-1164 224.5,-1176 224.5,-1176 224.5,-1182 218.5,-1188 212.5,-1188"/>
<text text-anchor="middle" x="145" y="-1167.5" font-family="sans" font-size="10.00">graf_extract_fingerprint_snps</text>
</g>
<!-- 10&#45;&gt;9 -->
<g id="edge17" class="edge">
<title>10&#45;&gt;9</title>
<path fill="none" stroke="grey" stroke-width="2" d="M155.63,-1151.7C160.63,-1143.56 166.69,-1133.69 172.21,-1124.7"/>
<polygon fill="grey" stroke="grey" stroke-width="2" points="175.24,-1126.46 177.49,-1116.1 169.28,-1122.79 175.24,-1126.46"/>
</g>
<!-- 11&#45;&gt;10 -->
<g id="edge18" class="edge">
<title>11&#45;&gt;10</title>
<path fill="none" stroke="grey" stroke-width="2" d="M225.07,-1223.88C211.34,-1214.81 194.29,-1203.55 179.46,-1193.76"/>
<polygon fill="grey" stroke="grey" stroke-width="2" points="181.3,-1190.78 171.03,-1188.19 177.45,-1196.62 181.3,-1190.78"/>
</g>
<!-- 12&#45;&gt;0 -->
<g id="edge4" class="edge">
<title>12&#45;&gt;0</title>
<path fill="none" stroke="grey" stroke-width="2" d="M810.21,-252.04C809.04,-278.7 807,-331.87 807,-377 807,-811 807,-811 807,-811 807,-876.94 732.89,-915.76 676.76,-935.7"/>
<polygon fill="grey" stroke="grey" stroke-width="2" points="675.53,-932.42 667.21,-938.97 677.81,-939.04 675.53,-932.42"/>
</g>
<!-- 13 -->
<g id="node14" class="node">
<title>13</title>
<path fill="none" stroke="#56c9d8" stroke-width="2" d="M729,-324C729,-324 645,-324 645,-324 639,-324 633,-318 633,-312 633,-312 633,-300 633,-300 633,-294 639,-288 645,-288 645,-288 729,-288 729,-288 735,-288 741,-294 741,-300 741,-300 741,-312 741,-312 741,-318 735,-324 729,-324"/>
<text text-anchor="middle" x="687" y="-303.5" font-family="sans" font-size="10.00">concordance_table</text>
</g>
<!-- 13&#45;&gt;12 -->
<g id="edge20" class="edge">
<title>13&#45;&gt;12</title>
<path fill="none" stroke="grey" stroke-width="2" d="M717.33,-287.88C733.7,-278.64 754.08,-267.13 771.65,-257.21"/>
<polygon fill="grey" stroke="grey" stroke-width="2" points="773.56,-260.15 780.55,-252.19 770.12,-254.06 773.56,-260.15"/>
</g>
<!-- 14 -->
<g id="node15" class="node">
<title>14</title>
<path fill="none" stroke="#d87d56" stroke-width="2" d="M505,-396C505,-396 439,-396 439,-396 433,-396 427,-390 427,-384 427,-384 427,-372 427,-372 427,-366 433,-360 439,-360 439,-360 505,-360 505,-360 511,-360 517,-366 517,-372 517,-372 517,-384 517,-384 517,-390 511,-396 505,-396"/>
<text text-anchor="middle" x="472" y="-375.5" font-family="sans" font-size="10.00">plink_stats_ibd</text>
</g>
<!-- 14&#45;&gt;13 -->
<g id="edge22" class="edge">
<title>14&#45;&gt;13</title>
<path fill="none" stroke="grey" stroke-width="2" d="M517.07,-362.33C548.23,-352.18 590.09,-338.55 624.47,-327.36"/>
<polygon fill="grey" stroke="grey" stroke-width="2" points="625.99,-330.55 634.41,-324.12 623.82,-323.89 625.99,-330.55"/>
</g>
<!-- 24 -->
<g id="node25" class="node">
<title>24</title>
<path fill="none" stroke="#568ad8" stroke-width="2" d="M421,-108C421,-108 303,-108 303,-108 297,-108 291,-102 291,-96 291,-96 291,-84 291,-84 291,-78 297,-72 303,-72 303,-72 421,-72 421,-72 427,-72 433,-78 433,-84 433,-84 433,-96 433,-96 433,-102 427,-108 421,-108"/>
<text text-anchor="middle" x="362" y="-87.5" font-family="sans" font-size="10.00">phony_population_results</text>
</g>
<!-- 14&#45;&gt;24 -->
<g id="edge37" class="edge">
<title>14&#45;&gt;24</title>
<path fill="none" stroke="grey" stroke-width="2" d="M456.91,-359.89C448.84,-349.99 439.3,-336.94 433,-324 396.69,-249.33 409.44,-222.71 383,-144 380.05,-135.23 376.46,-125.81 373.09,-117.37"/>
<polygon fill="grey" stroke="grey" stroke-width="2" points="376.29,-115.96 369.28,-108.02 369.81,-118.6 376.29,-115.96"/>
</g>
<!-- 35 -->
<g id="node36" class="node">
<title>35</title>
<path fill="none" stroke="#56d873" stroke-width="2" d="M526.5,-324C526.5,-324 453.5,-324 453.5,-324 447.5,-324 441.5,-318 441.5,-312 441.5,-312 441.5,-300 441.5,-300 441.5,-294 447.5,-288 453.5,-288 453.5,-288 526.5,-288 526.5,-288 532.5,-288 538.5,-294 538.5,-300 538.5,-300 538.5,-312 538.5,-312 538.5,-318 532.5,-324 526.5,-324"/>
<text text-anchor="middle" x="490" y="-303.5" font-family="sans" font-size="10.00">related_subjects</text>
</g>
<!-- 14&#45;&gt;35 -->
<g id="edge56" class="edge">
<title>14&#45;&gt;35</title>
<path fill="none" stroke="grey" stroke-width="2" d="M476.45,-359.7C478.45,-351.9 480.87,-342.51 483.1,-333.83"/>
<polygon fill="grey" stroke="grey" stroke-width="2" points="486.5,-334.66 485.6,-324.1 479.72,-332.92 486.5,-334.66"/>
</g>
<!-- 15 -->
<g id="node16" class="node">
<title>15</title>
<path fill="none" stroke="#afd856" stroke-width="2" d="M470.5,-468C470.5,-468 435.5,-468 435.5,-468 429.5,-468 423.5,-462 423.5,-456 423.5,-456 423.5,-444 423.5,-444 423.5,-438 429.5,-432 435.5,-432 435.5,-432 470.5,-432 470.5,-432 476.5,-432 482.5,-438 482.5,-444 482.5,-444 482.5,-456 482.5,-456 482.5,-462 476.5,-468 470.5,-468"/>
<text text-anchor="middle" x="453" y="-447.5" font-family="sans" font-size="10.00">ld_prune</text>
</g>
<!-- 15&#45;&gt;14 -->
<g id="edge23" class="edge">
<title>15&#45;&gt;14</title>
<path fill="none" stroke="grey" stroke-width="2" d="M457.7,-431.7C459.81,-423.9 462.36,-414.51 464.72,-405.83"/>
<polygon fill="grey" stroke="grey" stroke-width="2" points="468.12,-406.67 467.36,-396.1 461.36,-404.84 468.12,-406.67"/>
</g>
<!-- 27 -->
<g id="node28" class="node">
<title>27</title>
<path fill="none" stroke="#56d863" stroke-width="2" d="M334,-396C334,-396 256,-396 256,-396 250,-396 244,-390 244,-384 244,-384 244,-372 244,-372 244,-366 250,-360 256,-360 256,-360 334,-360 334,-360 340,-360 346,-366 346,-372 346,-372 346,-384 346,-384 346,-390 340,-396 334,-396"/>
<text text-anchor="middle" x="295" y="-375.5" font-family="sans" font-size="10.00">plink_bed_to_ped</text>
</g>
<!-- 15&#45;&gt;27 -->
<g id="edge44" class="edge">
<title>15&#45;&gt;27</title>
<path fill="none" stroke="grey" stroke-width="2" d="M423.28,-435.83C400.67,-425.82 369.09,-411.83 342.93,-400.23"/>
<polygon fill="grey" stroke="grey" stroke-width="2" points="344.12,-396.93 333.56,-396.08 341.28,-403.33 344.12,-396.93"/>
</g>
<!-- 16&#45;&gt;15 -->
<g id="edge25" class="edge">
<title>16&#45;&gt;15</title>
<path fill="none" stroke="grey" stroke-width="2" d="M415.81,-575.72C418.95,-557.63 424.59,-528.5 432,-504 434.64,-495.28 438.09,-485.99 441.43,-477.65"/>
<polygon fill="grey" stroke="grey" stroke-width="2" points="444.67,-478.98 445.25,-468.41 438.2,-476.31 444.67,-478.98"/>
</g>
<!-- 17 -->
<g id="node18" class="node">
<title>17</title>
<path fill="none" stroke="#56d87b" stroke-width="2" d="M494.5,-540C494.5,-540 453.5,-540 453.5,-540 447.5,-540 441.5,-534 441.5,-528 441.5,-528 441.5,-516 441.5,-516 441.5,-510 447.5,-504 453.5,-504 453.5,-504 494.5,-504 494.5,-504 500.5,-504 506.5,-510 506.5,-516 506.5,-516 506.5,-528 506.5,-528 506.5,-534 500.5,-540 494.5,-540"/>
<text text-anchor="middle" x="474" y="-519.5" font-family="sans" font-size="10.00">approx_ld</text>
</g>
<!-- 16&#45;&gt;17 -->
<g id="edge30" class="edge">
<title>16&#45;&gt;17</title>
<path fill="none" stroke="grey" stroke-width="2" d="M428.08,-575.7C435.39,-567.3 444.31,-557.07 452.34,-547.86"/>
<polygon fill="grey" stroke="grey" stroke-width="2" points="455.16,-549.94 459.09,-540.1 449.89,-545.34 455.16,-549.94"/>
</g>
<!-- 42 -->
<g id="node43" class="node">
<title>42</title>
<path fill="none" stroke="#d89c56" stroke-width="2" d="M302.5,-540C302.5,-540 233.5,-540 233.5,-540 227.5,-540 221.5,-534 221.5,-528 221.5,-528 221.5,-516 221.5,-516 221.5,-510 227.5,-504 233.5,-504 233.5,-504 302.5,-504 302.5,-504 308.5,-504 314.5,-510 314.5,-516 314.5,-516 314.5,-528 314.5,-528 314.5,-534 308.5,-540 302.5,-540"/>
<text text-anchor="middle" x="268" y="-519.5" font-family="sans" font-size="10.00">snps_only_filter</text>
</g>
<!-- 16&#45;&gt;42 -->
<g id="edge64" class="edge">
<title>16&#45;&gt;42</title>
<path fill="none" stroke="grey" stroke-width="2" d="M380.82,-577.46C360.74,-567.77 334.62,-555.16 312.57,-544.51"/>
<polygon fill="grey" stroke="grey" stroke-width="2" points="313.92,-541.28 303.39,-540.09 310.88,-547.59 313.92,-541.28"/>
</g>
<!-- 17&#45;&gt;15 -->
<g id="edge24" class="edge">
<title>17&#45;&gt;15</title>
<path fill="none" stroke="grey" stroke-width="2" d="M468.81,-503.7C466.47,-495.9 463.65,-486.51 461.05,-477.83"/>
<polygon fill="grey" stroke="grey" stroke-width="2" points="464.36,-476.68 458.13,-468.1 457.65,-478.69 464.36,-476.68"/>
</g>
<!-- 18&#45;&gt;0 -->
<g id="edge5" class="edge">
<title>18&#45;&gt;0</title>
<path fill="none" stroke="grey" stroke-width="2" d="M615,-1007.7C615,-999.98 615,-990.71 615,-982.11"/>
<polygon fill="grey" stroke="grey" stroke-width="2" points="618.5,-982.1 615,-972.1 611.5,-982.1 618.5,-982.1"/>
</g>
<!-- 19 -->
<g id="node20" class="node">
<title>19</title>
<path fill="none" stroke="#56a9d8" stroke-width="2" d="M721,-1116C721,-1116 509,-1116 509,-1116 503,-1116 497,-1110 497,-1104 497,-1104 497,-1092 497,-1092 497,-1086 503,-1080 509,-1080 509,-1080 721,-1080 721,-1080 727,-1080 733,-1086 733,-1092 733,-1092 733,-1104 733,-1104 733,-1110 727,-1116 721,-1116"/>
<text text-anchor="middle" x="615" y="-1095.5" font-family="sans" font-size="10.00">per_sample_verifyIDintensity_contamination</text>
</g>
<!-- 19&#45;&gt;18 -->
<g id="edge32" class="edge">
<title>19&#45;&gt;18</title>
<path fill="none" stroke="grey" stroke-width="2" d="M615,-1079.7C615,-1071.98 615,-1062.71 615,-1054.11"/>
<polygon fill="grey" stroke="grey" stroke-width="2" points="618.5,-1054.1 615,-1044.1 611.5,-1054.1 618.5,-1054.1"/>
</g>
<!-- 20 -->
<g id="node21" class="node">
<title>20</title>
<path fill="none" stroke="#b6d856" stroke-width="2" d="M720.5,-1188C720.5,-1188 607.5,-1188 607.5,-1188 601.5,-1188 595.5,-1182 595.5,-1176 595.5,-1176 595.5,-1164 595.5,-1164 595.5,-1158 601.5,-1152 607.5,-1152 607.5,-1152 720.5,-1152 720.5,-1152 726.5,-1152 732.5,-1158 732.5,-1164 732.5,-1164 732.5,-1176 732.5,-1176 732.5,-1182 726.5,-1188 720.5,-1188"/>
<text text-anchor="middle" x="664" y="-1167.5" font-family="sans" font-size="10.00">per_sample_gtc_to_adpc</text>
</g>
<!-- 20&#45;&gt;19 -->
<g id="edge35" class="edge">
<title>20&#45;&gt;19</title>
<path fill="none" stroke="grey" stroke-width="2" d="M651.89,-1151.7C646.13,-1143.47 639.14,-1133.48 632.79,-1124.42"/>
<polygon fill="grey" stroke="grey" stroke-width="2" points="635.58,-1122.29 626.97,-1116.1 629.84,-1126.3 635.58,-1122.29"/>
</g>
<!-- 21 -->
<g id="node22" class="node">
<title>21</title>
<path fill="none" stroke="#56d8b9" stroke-width="2" d="M565,-1188C565,-1188 461,-1188 461,-1188 455,-1188 449,-1182 449,-1176 449,-1176 449,-1164 449,-1164 449,-1158 455,-1152 461,-1152 461,-1152 565,-1152 565,-1152 571,-1152 577,-1158 577,-1164 577,-1164 577,-1176 577,-1176 577,-1182 571,-1188 565,-1188"/>
<text text-anchor="middle" x="513" y="-1167.5" font-family="sans" font-size="10.00">pull_1KG_allele_b_freq</text>
</g>
<!-- 21&#45;&gt;19 -->
<g id="edge34" class="edge">
<title>21&#45;&gt;19</title>
<path fill="none" stroke="grey" stroke-width="2" d="M537.95,-1151.88C551.04,-1142.89 567.26,-1131.76 581.44,-1122.03"/>
<polygon fill="grey" stroke="grey" stroke-width="2" points="583.69,-1124.73 589.95,-1116.19 579.73,-1118.96 583.69,-1124.73"/>
</g>
<!-- 22 -->
<g id="node23" class="node">
<title>22</title>
<path fill="none" stroke="#d8b456" stroke-width="2" d="M466.5,-1116C466.5,-1116 341.5,-1116 341.5,-1116 335.5,-1116 329.5,-1110 329.5,-1104 329.5,-1104 329.5,-1092 329.5,-1092 329.5,-1086 335.5,-1080 341.5,-1080 341.5,-1080 466.5,-1080 466.5,-1080 472.5,-1080 478.5,-1086 478.5,-1092 478.5,-1092 478.5,-1104 478.5,-1104 478.5,-1110 472.5,-1116 466.5,-1116"/>
<text text-anchor="middle" x="404" y="-1095.5" font-family="sans" font-size="10.00">agg_median_idat_intensity</text>
</g>
<!-- 22&#45;&gt;0 -->
<g id="edge6" class="edge">
<title>22&#45;&gt;0</title>
<path fill="none" stroke="grey" stroke-width="2" d="M421.32,-1079.8C441.13,-1060.71 475.09,-1029.75 508,-1008 525.98,-996.12 547,-985.15 565.62,-976.31"/>
<polygon fill="grey" stroke="grey" stroke-width="2" points="567.25,-979.42 574.83,-972.02 564.29,-973.07 567.25,-979.42"/>
</g>
<!-- 22&#45;&gt;18 -->
<g id="edge33" class="edge">
<title>22&#45;&gt;18</title>
<path fill="none" stroke="grey" stroke-width="2" d="M455.35,-1079.97C484.96,-1070.14 522.37,-1057.73 553.54,-1047.39"/>
<polygon fill="grey" stroke="grey" stroke-width="2" points="555.03,-1050.58 563.42,-1044.11 552.83,-1043.94 555.03,-1050.58"/>
</g>
<!-- 23 -->
<g id="node24" class="node">
<title>23</title>
<path fill="none" stroke="#56d0d8" stroke-width="2" d="M419,-1188C419,-1188 255,-1188 255,-1188 249,-1188 243,-1182 243,-1176 243,-1176 243,-1164 243,-1164 243,-1158 249,-1152 255,-1152 255,-1152 419,-1152 419,-1152 425,-1152 431,-1158 431,-1164 431,-1164 431,-1176 431,-1176 431,-1182 425,-1188 419,-1188"/>
<text text-anchor="middle" x="337" y="-1167.5" font-family="sans" font-size="10.00">per_sample_median_idat_intensity</text>
</g>
<!-- 23&#45;&gt;22 -->
<g id="edge36" class="edge">
<title>23&#45;&gt;22</title>
<path fill="none" stroke="grey" stroke-width="2" d="M353.56,-1151.7C361.68,-1143.22 371.59,-1132.86 380.47,-1123.58"/>
<polygon fill="grey" stroke="grey" stroke-width="2" points="383.24,-1125.75 387.63,-1116.1 378.19,-1120.91 383.24,-1125.75"/>
</g>
<!-- 24&#45;&gt;45 -->
<g id="edge69" class="edge">
<title>24&#45;&gt;45</title>
<path fill="none" stroke="grey" stroke-width="2" d="M312.11,-71.97C275.6,-59.5 226.85,-42.85 193.83,-31.57"/>
<polygon fill="grey" stroke="grey" stroke-width="2" points="194.71,-28.18 184.11,-28.26 192.44,-34.8 194.71,-28.18"/>
</g>
<!-- 25 -->
<g id="node26" class="node">
<title>25</title>
<path fill="none" stroke="#56d8c9" stroke-width="2" d="M362.5,-180C362.5,-180 273.5,-180 273.5,-180 267.5,-180 261.5,-174 261.5,-168 261.5,-168 261.5,-156 261.5,-156 261.5,-150 267.5,-144 273.5,-144 273.5,-144 362.5,-144 362.5,-144 368.5,-144 374.5,-150 374.5,-156 374.5,-156 374.5,-168 374.5,-168 374.5,-174 368.5,-180 362.5,-180"/>
<text text-anchor="middle" x="318" y="-159.5" font-family="sans" font-size="10.00">eigensoft_smartpca</text>
</g>
<!-- 25&#45;&gt;24 -->
<g id="edge38" class="edge">
<title>25&#45;&gt;24</title>
<path fill="none" stroke="grey" stroke-width="2" d="M328.88,-143.7C333.99,-135.56 340.2,-125.69 345.84,-116.7"/>
<polygon fill="grey" stroke="grey" stroke-width="2" points="348.89,-118.43 351.25,-108.1 342.96,-114.71 348.89,-118.43"/>
</g>
<!-- 26 -->
<g id="node27" class="node">
<title>26</title>
<path fill="none" stroke="#68d856" stroke-width="2" d="M335,-324C335,-324 255,-324 255,-324 249,-324 243,-318 243,-312 243,-312 243,-300 243,-300 243,-294 249,-288 255,-288 255,-288 335,-288 335,-288 341,-288 347,-294 347,-300 347,-300 347,-312 347,-312 347,-318 341,-324 335,-324"/>
<text text-anchor="middle" x="295" y="-303.5" font-family="sans" font-size="10.00">eigensoft_convert</text>
</g>
<!-- 26&#45;&gt;25 -->
<g id="edge40" class="edge">
<title>26&#45;&gt;25</title>
<path fill="none" stroke="grey" stroke-width="2" d="M305.63,-287.56C311.1,-277.54 317.2,-264.51 320,-252 324.55,-231.67 323.76,-208.08 321.98,-190.29"/>
<polygon fill="grey" stroke="grey" stroke-width="2" points="325.45,-189.83 320.82,-180.3 318.5,-190.64 325.45,-189.83"/>
</g>
<!-- 36 -->
<g id="node37" class="node">
<title>36</title>
<path fill="none" stroke="#56d892" stroke-width="2" d="M299.5,-252C299.5,-252 226.5,-252 226.5,-252 220.5,-252 214.5,-246 214.5,-240 214.5,-240 214.5,-228 214.5,-228 214.5,-222 220.5,-216 226.5,-216 226.5,-216 299.5,-216 299.5,-216 305.5,-216 311.5,-222 311.5,-228 311.5,-228 311.5,-240 311.5,-240 311.5,-246 305.5,-252 299.5,-252"/>
<text text-anchor="middle" x="263" y="-231.5" font-family="sans" font-size="10.00">eigensoft_config</text>
</g>
<!-- 26&#45;&gt;36 -->
<g id="edge58" class="edge">
<title>26&#45;&gt;36</title>
<path fill="none" stroke="grey" stroke-width="2" d="M281.17,-287.7C276.76,-279.81 272.19,-270.3 268.56,-261.55"/>
<polygon fill="grey" stroke="grey" stroke-width="2" points="271.79,-260.18 264.92,-252.1 265.26,-262.69 271.79,-260.18"/>
</g>
<!-- 27&#45;&gt;26 -->
<g id="edge42" class="edge">
<title>27&#45;&gt;26</title>
<path fill="none" stroke="grey" stroke-width="2" d="M295,-359.7C295,-351.98 295,-342.71 295,-334.11"/>
<polygon fill="grey" stroke="grey" stroke-width="2" points="298.5,-334.1 295,-324.1 291.5,-334.1 298.5,-334.1"/>
</g>
<!-- 27&#45;&gt;36 -->
<g id="edge57" class="edge">
<title>27&#45;&gt;36</title>
<path fill="none" stroke="grey" stroke-width="2" d="M265.96,-359.84C253.68,-350.87 240.69,-338.68 234,-324 224.64,-303.48 233.96,-279.04 244.45,-260.97"/>
<polygon fill="grey" stroke="grey" stroke-width="2" points="247.62,-262.5 249.95,-252.16 241.69,-258.79 247.62,-262.5"/>
</g>
<!-- 28 -->
<g id="node29" class="node">
<title>28</title>
<path fill="none" stroke="#78d856" stroke-width="2" d="M559,-252C559,-252 443,-252 443,-252 437,-252 431,-246 431,-240 431,-240 431,-228 431,-228 431,-222 437,-216 443,-216 443,-216 559,-216 559,-216 565,-216 571,-222 571,-228 571,-228 571,-240 571,-240 571,-246 565,-252 559,-252"/>
<text text-anchor="middle" x="501" y="-231.5" font-family="sans" font-size="10.00">remove_related_subjects</text>
</g>
<!-- 28&#45;&gt;16 -->
<g id="edge29" class="edge">
<title>28&#45;&gt;16</title>
<path fill="none" stroke="grey" stroke-width="2" d="M469.85,-252.12C432.54,-275.18 375,-319.98 375,-377 375,-451 375,-451 375,-451 375,-492.37 390.23,-538.28 401.41,-566.39"/>
<polygon fill="grey" stroke="grey" stroke-width="2" points="398.28,-567.98 405.31,-575.91 404.76,-565.33 398.28,-567.98"/>
</g>
<!-- 43 -->
<g id="node44" class="node">
<title>43</title>
<path fill="none" stroke="#5663d8" stroke-width="2" d="M642.5,-180C642.5,-180 555.5,-180 555.5,-180 549.5,-180 543.5,-174 543.5,-168 543.5,-168 543.5,-156 543.5,-156 543.5,-150 549.5,-144 555.5,-144 555.5,-144 642.5,-144 642.5,-144 648.5,-144 654.5,-150 654.5,-156 654.5,-156 654.5,-168 654.5,-168 654.5,-174 648.5,-180 642.5,-180"/>
<text text-anchor="middle" x="599" y="-159.5" font-family="sans" font-size="10.00">plink_split_controls</text>
</g>
<!-- 28&#45;&gt;43 -->
<g id="edge66" class="edge">
<title>28&#45;&gt;43</title>
<path fill="none" stroke="grey" stroke-width="2" d="M524.97,-215.88C537.55,-206.89 553.13,-195.76 566.75,-186.03"/>
<polygon fill="grey" stroke="grey" stroke-width="2" points="568.83,-188.85 574.93,-180.19 564.76,-183.15 568.83,-188.85"/>
</g>
<!-- 29 -->
<g id="node30" class="node">
<title>29</title>
<path fill="none" stroke="#d85e56" stroke-width="2" d="M655,-684C655,-684 555,-684 555,-684 549,-684 543,-678 543,-672 543,-672 543,-660 543,-660 543,-654 549,-648 555,-648 555,-648 655,-648 655,-648 661,-648 667,-654 667,-660 667,-660 667,-672 667,-672 667,-678 661,-684 655,-684"/>
<text text-anchor="middle" x="605" y="-663.5" font-family="sans" font-size="10.00">plink_split_population</text>
</g>
<!-- 29&#45;&gt;16 -->
<g id="edge26" class="edge">
<title>29&#45;&gt;16</title>
<path fill="none" stroke="grey" stroke-width="2" d="M558.03,-647.88C526.38,-636.33 485,-621.25 454.54,-610.15"/>
<polygon fill="grey" stroke="grey" stroke-width="2" points="455.66,-606.83 445.07,-606.69 453.26,-613.4 455.66,-606.83"/>
</g>
<!-- 29&#45;&gt;28 -->
<g id="edge46" class="edge">
<title>29&#45;&gt;28</title>
<path fill="none" stroke="grey" stroke-width="2" d="M605,-647.95C605,-621.29 605,-568.11 605,-523 605,-523 605,-523 605,-377 605,-327.63 563.58,-284.02 533.02,-258.56"/>
<polygon fill="grey" stroke="grey" stroke-width="2" points="535.1,-255.74 525.12,-252.18 530.7,-261.19 535.1,-255.74"/>
</g>
<!-- 37 -->
<g id="node38" class="node">
<title>37</title>
<path fill="none" stroke="#9fd856" stroke-width="2" d="M914.5,-612C914.5,-612 847.5,-612 847.5,-612 841.5,-612 835.5,-606 835.5,-600 835.5,-600 835.5,-588 835.5,-588 835.5,-582 841.5,-576 847.5,-576 847.5,-576 914.5,-576 914.5,-576 920.5,-576 926.5,-582 926.5,-588 926.5,-588 926.5,-600 926.5,-600 926.5,-606 920.5,-612 914.5,-612"/>
<text text-anchor="middle" x="881" y="-591.5" font-family="sans" font-size="10.00">plink_stats_het</text>
</g>
<!-- 29&#45;&gt;37 -->
<g id="edge59" class="edge">
<title>29&#45;&gt;37</title>
<path fill="none" stroke="grey" stroke-width="2" d="M667.28,-649.2C714.83,-637.14 779.75,-620.68 825.52,-609.07"/>
<polygon fill="grey" stroke="grey" stroke-width="2" points="826.44,-612.45 835.27,-606.6 824.72,-605.66 826.44,-612.45"/>
</g>
<!-- 30 -->
<g id="node31" class="node">
<title>30</title>
<path fill="none" stroke="#5673d8" stroke-width="2" d="M517,-756C517,-756 435,-756 435,-756 429,-756 423,-750 423,-744 423,-744 423,-732 423,-732 423,-726 429,-720 435,-720 435,-720 517,-720 517,-720 523,-720 529,-726 529,-732 529,-732 529,-744 529,-744 529,-750 523,-756 517,-756"/>
<text text-anchor="middle" x="476" y="-735.5" font-family="sans" font-size="10.00">renamed_subjects</text>
</g>
<!-- 30&#45;&gt;29 -->
<g id="edge47" class="edge">
<title>30&#45;&gt;29</title>
<path fill="none" stroke="grey" stroke-width="2" d="M507.56,-719.88C524.66,-710.6 545.98,-699.03 564.32,-689.08"/>
<polygon fill="grey" stroke="grey" stroke-width="2" points="566.2,-692.04 573.32,-684.19 562.86,-685.88 566.2,-692.04"/>
</g>
<!-- 31&#45;&gt;30 -->
<g id="edge50" class="edge">
<title>31&#45;&gt;30</title>
<path fill="none" stroke="grey" stroke-width="2" d="M395.18,-791.88C409.04,-782.81 426.24,-771.55 441.21,-761.76"/>
<polygon fill="grey" stroke="grey" stroke-width="2" points="443.27,-764.59 449.72,-756.19 439.44,-758.74 443.27,-764.59"/>
</g>
<!-- 32&#45;&gt;31 -->
<g id="edge51" class="edge">
<title>32&#45;&gt;31</title>
<path fill="none" stroke="grey" stroke-width="2" d="M369,-863.7C369,-855.98 369,-846.71 369,-838.11"/>
<polygon fill="grey" stroke="grey" stroke-width="2" points="372.5,-838.1 369,-828.1 365.5,-838.1 372.5,-838.1"/>
</g>
<!-- 33&#45;&gt;30 -->
<g id="edge49" class="edge">
<title>33&#45;&gt;30</title>
<path fill="none" stroke="grey" stroke-width="2" d="M513.81,-863.87C506.45,-839.56 492.9,-794.82 484.18,-766.01"/>
<polygon fill="grey" stroke="grey" stroke-width="2" points="487.45,-764.75 481.21,-756.19 480.75,-766.77 487.45,-764.75"/>
</g>
<!-- 34&#45;&gt;29 -->
<g id="edge48" class="edge">
<title>34&#45;&gt;29</title>
<path fill="none" stroke="grey" stroke-width="2" d="M612.53,-719.7C611.43,-711.98 610.1,-702.71 608.87,-694.11"/>
<polygon fill="grey" stroke="grey" stroke-width="2" points="612.32,-693.51 607.44,-684.1 605.39,-694.5 612.32,-693.51"/>
</g>
<!-- 35&#45;&gt;28 -->
<g id="edge45" class="edge">
<title>35&#45;&gt;28</title>
<path fill="none" stroke="grey" stroke-width="2" d="M492.72,-287.7C493.93,-279.98 495.39,-270.71 496.74,-262.11"/>
<polygon fill="grey" stroke="grey" stroke-width="2" points="500.22,-262.53 498.31,-252.1 493.3,-261.44 500.22,-262.53"/>
</g>
<!-- 36&#45;&gt;25 -->
<g id="edge41" class="edge">
<title>36&#45;&gt;25</title>
<path fill="none" stroke="grey" stroke-width="2" d="M276.6,-215.7C283.12,-207.39 291.07,-197.28 298.25,-188.14"/>
<polygon fill="grey" stroke="grey" stroke-width="2" points="301.13,-190.13 304.56,-180.1 295.63,-185.81 301.13,-190.13"/>
</g>
<!-- 36&#45;&gt;26 -->
<g id="edge43" class="edge">
<title>36&#45;&gt;26</title>
<path fill="none" stroke="grey" stroke-width="2" d="M276.71,-252.1C281.13,-259.96 285.7,-269.46 289.34,-278.23"/>
<polygon fill="grey" stroke="grey" stroke-width="2" points="286.13,-279.63 293.01,-287.7 292.66,-277.11 286.13,-279.63"/>
</g>
<!-- 37&#45;&gt;24 -->
<g id="edge39" class="edge">
<title>37&#45;&gt;24</title>
<path fill="none" stroke="grey" stroke-width="2" d="M887.48,-575.79C896.83,-549.36 913,-496.99 913,-451 913,-451 913,-451 913,-233 913,-137.22 596.84,-105.07 443.49,-95.1"/>
<polygon fill="grey" stroke="grey" stroke-width="2" points="443.39,-91.59 433.19,-94.45 442.95,-98.58 443.39,-91.59"/>
</g>
<!-- 38 -->
<g id="node39" class="node">
<title>38</title>
<path fill="none" stroke="#d8d356" stroke-width="2" d="M219,-108C219,-108 95,-108 95,-108 89,-108 83,-102 83,-96 83,-96 83,-84 83,-84 83,-78 89,-72 95,-72 95,-72 219,-72 219,-72 225,-72 231,-78 231,-84 231,-84 231,-96 231,-96 231,-102 225,-108 219,-108"/>
<text text-anchor="middle" x="157" y="-87.5" font-family="sans" font-size="10.00">phony_population_controls</text>
</g>
<!-- 38&#45;&gt;45 -->
<g id="edge70" class="edge">
<title>38&#45;&gt;45</title>
<path fill="none" stroke="grey" stroke-width="2" d="M157,-71.7C157,-63.98 157,-54.71 157,-46.11"/>
<polygon fill="grey" stroke="grey" stroke-width="2" points="160.5,-46.1 157,-36.1 153.5,-46.1 160.5,-46.1"/>
</g>
<!-- 39 -->
<g id="node40" class="node">
<title>39</title>
<path fill="none" stroke="#d85656" stroke-width="2" d="M174.5,-324C174.5,-324 95.5,-324 95.5,-324 89.5,-324 83.5,-318 83.5,-312 83.5,-312 83.5,-300 83.5,-300 83.5,-294 89.5,-288 95.5,-288 95.5,-288 174.5,-288 174.5,-288 180.5,-288 186.5,-294 186.5,-300 186.5,-300 186.5,-312 186.5,-312 186.5,-318 180.5,-324 174.5,-324"/>
<text text-anchor="middle" x="135" y="-303.5" font-family="sans" font-size="10.00">plink_stats_hardy</text>
</g>
<!-- 39&#45;&gt;38 -->
<g id="edge60" class="edge">
<title>39&#45;&gt;38</title>
<path fill="none" stroke="grey" stroke-width="2" d="M136.76,-287.85C140.57,-250.83 149.58,-163.18 154.18,-118.39"/>
<polygon fill="grey" stroke="grey" stroke-width="2" points="157.69,-118.54 155.23,-108.23 150.72,-117.82 157.69,-118.54"/>
</g>
<!-- 40 -->
<g id="node41" class="node">
<title>40</title>
<path fill="none" stroke="#8fd856" stroke-width="2" d="M189.5,-396C189.5,-396 130.5,-396 130.5,-396 124.5,-396 118.5,-390 118.5,-384 118.5,-384 118.5,-372 118.5,-372 118.5,-366 124.5,-360 130.5,-360 130.5,-360 189.5,-360 189.5,-360 195.5,-360 201.5,-366 201.5,-372 201.5,-372 201.5,-384 201.5,-384 201.5,-390 195.5,-396 189.5,-396"/>
<text text-anchor="middle" x="160" y="-375.5" font-family="sans" font-size="10.00">cleaned_filter</text>
</g>
<!-- 40&#45;&gt;39 -->
<g id="edge61" class="edge">
<title>40&#45;&gt;39</title>
<path fill="none" stroke="grey" stroke-width="2" d="M153.82,-359.7C151,-351.81 147.61,-342.3 144.48,-333.55"/>
<polygon fill="grey" stroke="grey" stroke-width="2" points="147.77,-332.34 141.11,-324.1 141.18,-334.7 147.77,-332.34"/>
</g>
<!-- 41 -->
<g id="node42" class="node">
<title>41</title>
<path fill="none" stroke="#d86e56" stroke-width="2" d="M283.5,-468C283.5,-468 188.5,-468 188.5,-468 182.5,-468 176.5,-462 176.5,-456 176.5,-456 176.5,-444 176.5,-444 176.5,-438 182.5,-432 188.5,-432 188.5,-432 283.5,-432 283.5,-432 289.5,-432 295.5,-438 295.5,-444 295.5,-444 295.5,-456 295.5,-456 295.5,-462 289.5,-468 283.5,-468"/>
<text text-anchor="middle" x="236" y="-447.5" font-family="sans" font-size="10.00">autosome_only_filter</text>
</g>
<!-- 41&#45;&gt;40 -->
<g id="edge62" class="edge">
<title>41&#45;&gt;40</title>
<path fill="none" stroke="grey" stroke-width="2" d="M217.21,-431.7C207.83,-423.05 196.32,-412.45 186.09,-403.03"/>
<polygon fill="grey" stroke="grey" stroke-width="2" points="188.3,-400.3 178.57,-396.1 183.55,-405.45 188.3,-400.3"/>
</g>
<!-- 42&#45;&gt;41 -->
<g id="edge63" class="edge">
<title>42&#45;&gt;41</title>
<path fill="none" stroke="grey" stroke-width="2" d="M260.09,-503.7C256.45,-495.73 252.05,-486.1 248.01,-477.26"/>
<polygon fill="grey" stroke="grey" stroke-width="2" points="251.16,-475.74 243.82,-468.1 244.79,-478.65 251.16,-475.74"/>
</g>
<!-- 43&#45;&gt;16 -->
<g id="edge28" class="edge">
<title>43&#45;&gt;16</title>
<path fill="none" stroke="grey" stroke-width="2" d="M595.76,-180.19C587.62,-223.87 567,-338.4 567,-377 567,-451 567,-451 567,-451 567,-496.59 548.96,-508.5 516,-540 498.56,-556.67 474.83,-569.36 454.55,-578.14"/>
<polygon fill="grey" stroke="grey" stroke-width="2" points="453.11,-574.95 445.22,-582.01 455.79,-581.41 453.11,-574.95"/>
</g>
<!-- 44&#45;&gt;43 -->
<g id="edge65" class="edge">
<title>44&#45;&gt;43</title>
<path fill="none" stroke="grey" stroke-width="2" d="M723.02,-791.99C740.01,-766.23 769,-715.2 769,-667 769,-667 769,-667 769,-377 769,-336.55 770.96,-322.59 750,-288 722.88,-243.25 673.86,-207.16 639.04,-185.47"/>
<polygon fill="grey" stroke="grey" stroke-width="2" points="640.43,-182.22 630.07,-180.01 636.79,-188.2 640.43,-182.22"/>
</g>
</g>
</svg>
