<?xml version="1.0" encoding="UTF-8" standalone="no"?>
<!DOCTYPE svg PUBLIC "-//W3C//DTD SVG 1.1//EN"
 "http://www.w3.org/Graphics/SVG/1.1/DTD/svg11.dtd">
<!-- Generated by graphviz version 2.38.0 (20140413.2041)
 -->
<!-- Title: snakemake_dag Pages: 1 -->
<svg width="2116pt" height="2276pt"
 viewBox="0.00 0.00 2115.50 2276.00" xmlns="http://www.w3.org/2000/svg" xmlns:xlink="http://www.w3.org/1999/xlink">
<g id="graph0" class="graph" transform="scale(1 1) rotate(0) translate(4 2272)">
<title>snakemake_dag</title>
<polygon fill="white" stroke="none" points="-4,4 -4,-2272 2111.5,-2272 2111.5,4 -4,4"/>
<!-- 0 -->
<g id="node1" class="node"><title>0</title>
<path fill="none" stroke="#c6d856" stroke-width="2" d="M312,-36C312,-36 282,-36 282,-36 276,-36 270,-30 270,-24 270,-24 270,-12 270,-12 270,-6 276,-0 282,-0 282,-0 312,-0 312,-0 318,-0 324,-6 324,-12 324,-12 324,-24 324,-24 324,-30 318,-36 312,-36"/>
<text text-anchor="middle" x="297" y="-15.5" font-family="sans" font-size="10.00">all</text>
</g>
<!-- 1 -->
<g id="node2" class="node"><title>1</title>
<path fill="none" stroke="#568ad8" stroke-width="2" d="M184,-1332C184,-1332 116,-1332 116,-1332 110,-1332 104,-1326 104,-1320 104,-1320 104,-1308 104,-1308 104,-1302 110,-1296 116,-1296 116,-1296 184,-1296 184,-1296 190,-1296 196,-1302 196,-1308 196,-1308 196,-1320 196,-1320 196,-1326 190,-1332 184,-1332"/>
<text text-anchor="middle" x="150" y="-1311.5" font-family="sans" font-size="10.00">summary_stats</text>
</g>
<!-- 1&#45;&gt;0 -->
<g id="edge5" class="edge"><title>1&#45;&gt;0</title>
<path fill="none" stroke="grey" stroke-width="2" d="M143.12,-1295.83C133.185,-1269.44 116,-1217.14 116,-1171 116,-1171 116,-1171 116,-161 116,-117.99 122.857,-101.665 154,-72 183.109,-44.2726 227.993,-30.7917 259.699,-24.4117"/>
<polygon fill="grey" stroke="grey" stroke-width="2" points="260.715,-27.7827 269.904,-22.51 259.432,-20.9012 260.715,-27.7827"/>
</g>
<!-- 2 -->
<g id="node3" class="node"><title>2</title>
<path fill="none" stroke="#566bd8" stroke-width="2" d="M215.5,-1620C215.5,-1620 108.5,-1620 108.5,-1620 102.5,-1620 96.5,-1614 96.5,-1608 96.5,-1608 96.5,-1596 96.5,-1596 96.5,-1590 102.5,-1584 108.5,-1584 108.5,-1584 215.5,-1584 215.5,-1584 221.5,-1584 227.5,-1590 227.5,-1596 227.5,-1596 227.5,-1608 227.5,-1608 227.5,-1614 221.5,-1620 215.5,-1620"/>
<text text-anchor="middle" x="162" y="-1599.5" font-family="sans" font-size="10.00">combine_idat_intensity</text>
</g>
<!-- 2&#45;&gt;0 -->
<g id="edge14" class="edge"><title>2&#45;&gt;0</title>
<path fill="none" stroke="grey" stroke-width="2" d="M110.269,-1583.95C90.0974,-1575.46 67.829,-1563.61 51,-1548 17.579,-1516.99 0,-1504.59 0,-1459 0,-1459 0,-1459 0,-161 0,-116.473 10.5781,-98.9798 46,-72 79.1578,-46.7447 198.006,-30.0877 259.516,-22.9565"/>
<polygon fill="grey" stroke="grey" stroke-width="2" points="260.045,-26.419 269.588,-21.8147 259.257,-19.4635 260.045,-26.419"/>
</g>
<!-- 5 -->
<g id="node6" class="node"><title>5</title>
<path fill="none" stroke="#d87d56" stroke-width="2" d="M251.5,-1548C251.5,-1548 72.5,-1548 72.5,-1548 66.5,-1548 60.5,-1542 60.5,-1536 60.5,-1536 60.5,-1524 60.5,-1524 60.5,-1518 66.5,-1512 72.5,-1512 72.5,-1512 251.5,-1512 251.5,-1512 257.5,-1512 263.5,-1518 263.5,-1524 263.5,-1524 263.5,-1536 263.5,-1536 263.5,-1542 257.5,-1548 251.5,-1548"/>
<text text-anchor="middle" x="162" y="-1527.5" font-family="sans" font-size="10.00">combine_contam_one_samp_b_1000g</text>
</g>
<!-- 2&#45;&gt;5 -->
<g id="edge22" class="edge"><title>2&#45;&gt;5</title>
<path fill="none" stroke="grey" stroke-width="2" d="M162,-1583.7C162,-1575.98 162,-1566.71 162,-1558.11"/>
<polygon fill="grey" stroke="grey" stroke-width="2" points="165.5,-1558.1 162,-1548.1 158.5,-1558.1 165.5,-1558.1"/>
</g>
<!-- 17 -->
<g id="node18" class="node"><title>17</title>
<path fill="none" stroke="#d89556" stroke-width="2" d="M395,-1476C395,-1476 315,-1476 315,-1476 309,-1476 303,-1470 303,-1464 303,-1464 303,-1452 303,-1452 303,-1446 309,-1440 315,-1440 315,-1440 395,-1440 395,-1440 401,-1440 407,-1446 407,-1452 407,-1452 407,-1464 407,-1464 407,-1470 401,-1476 395,-1476"/>
<text text-anchor="middle" x="355" y="-1455.5" font-family="sans" font-size="10.00">sample_qc_report</text>
</g>
<!-- 2&#45;&gt;17 -->
<g id="edge43" class="edge"><title>2&#45;&gt;17</title>
<path fill="none" stroke="grey" stroke-width="2" d="M206.676,-1583.98C227.545,-1574.93 252.113,-1562.64 272,-1548 285.469,-1538.08 314.027,-1506.39 333.857,-1483.65"/>
<polygon fill="grey" stroke="grey" stroke-width="2" points="336.558,-1485.88 340.468,-1476.03 331.271,-1481.29 336.558,-1485.88"/>
</g>
<!-- 3 -->
<g id="node4" class="node"><title>3</title>
<path fill="none" stroke="#bed856" stroke-width="2" d="M712.5,-1548C712.5,-1548 635.5,-1548 635.5,-1548 629.5,-1548 623.5,-1542 623.5,-1536 623.5,-1536 623.5,-1524 623.5,-1524 623.5,-1518 629.5,-1512 635.5,-1512 635.5,-1512 712.5,-1512 712.5,-1512 718.5,-1512 724.5,-1518 724.5,-1524 724.5,-1524 724.5,-1536 724.5,-1536 724.5,-1542 718.5,-1548 712.5,-1548"/>
<text text-anchor="middle" x="674" y="-1527.5" font-family="sans" font-size="10.00">output_replicates</text>
</g>
<!-- 3&#45;&gt;0 -->
<g id="edge1" class="edge"><title>3&#45;&gt;0</title>
<path fill="none" stroke="grey" stroke-width="2" d="M724.944,-1526.95C862.306,-1521.12 1238.1,-1503.11 1359,-1476 1489.78,-1446.67 1614,-1449.03 1614,-1315 1614,-1315 1614,-1315 1614,-1241 1614,-882.821 1980,-881.179 1980,-523 1980,-523 1980,-523 1980,-377 1980,-273.169 2017.89,-232.135 1963,-144 1929.51,-90.2315 1900.84,-89.6249 1840,-72 1691.34,-28.9363 554.934,-20.4364 334.111,-19.1859"/>
<polygon fill="grey" stroke="grey" stroke-width="2" points="334.026,-15.6855 324.007,-19.1302 333.987,-22.6854 334.026,-15.6855"/>
</g>
<!-- 6 -->
<g id="node7" class="node"><title>6</title>
<path fill="none" stroke="#59d856" stroke-width="2" d="M439.5,-1404C439.5,-1404 384.5,-1404 384.5,-1404 378.5,-1404 372.5,-1398 372.5,-1392 372.5,-1392 372.5,-1380 372.5,-1380 372.5,-1374 378.5,-1368 384.5,-1368 384.5,-1368 439.5,-1368 439.5,-1368 445.5,-1368 451.5,-1374 451.5,-1380 451.5,-1380 451.5,-1392 451.5,-1392 451.5,-1398 445.5,-1404 439.5,-1404"/>
<text text-anchor="middle" x="412" y="-1383.5" font-family="sans" font-size="10.00">copy_for_lab</text>
</g>
<!-- 3&#45;&gt;6 -->
<g id="edge23" class="edge"><title>3&#45;&gt;6</title>
<path fill="none" stroke="grey" stroke-width="2" d="M623.204,-1512.76C596.793,-1503.48 564.394,-1490.75 537,-1476 501.96,-1457.13 465.249,-1429.98 440.75,-1410.63"/>
<polygon fill="grey" stroke="grey" stroke-width="2" points="442.616,-1407.65 432.616,-1404.14 438.25,-1413.12 442.616,-1407.65"/>
</g>
<!-- 11 -->
<g id="node12" class="node"><title>11</title>
<path fill="none" stroke="#56d8c1" stroke-width="2" d="M1750,-612C1750,-612 1686,-612 1686,-612 1680,-612 1674,-606 1674,-600 1674,-600 1674,-588 1674,-588 1674,-582 1680,-576 1686,-576 1686,-576 1750,-576 1750,-576 1756,-576 1762,-582 1762,-588 1762,-588 1762,-600 1762,-600 1762,-606 1756,-612 1750,-612"/>
<text text-anchor="middle" x="1718" y="-591.5" font-family="sans" font-size="10.00">unexp_rep_list</text>
</g>
<!-- 3&#45;&gt;11 -->
<g id="edge32" class="edge"><title>3&#45;&gt;11</title>
<path fill="none" stroke="grey" stroke-width="2" d="M724.754,-1527.93C915.138,-1522.59 1576,-1491.33 1576,-1315 1576,-1315 1576,-1315 1576,-1241 1576,-1019.57 1645.68,-972.949 1690,-756 1699.54,-709.299 1708.62,-654.553 1713.73,-622.435"/>
<polygon fill="grey" stroke="grey" stroke-width="2" points="1717.2,-622.879 1715.31,-612.455 1710.29,-621.786 1717.2,-622.879"/>
</g>
<!-- 3&#45;&gt;17 -->
<g id="edge40" class="edge"><title>3&#45;&gt;17</title>
<path fill="none" stroke="grey" stroke-width="2" d="M623.454,-1517.91C567.569,-1505.65 477.504,-1485.88 417.3,-1472.67"/>
<polygon fill="grey" stroke="grey" stroke-width="2" points="417.682,-1469.17 407.164,-1470.45 416.181,-1476.01 417.682,-1469.17"/>
</g>
<!-- 27 -->
<g id="node28" class="node"><title>27</title>
<path fill="none" stroke="#5663d8" stroke-width="2" d="M561.5,-180C561.5,-180 510.5,-180 510.5,-180 504.5,-180 498.5,-174 498.5,-168 498.5,-168 498.5,-156 498.5,-156 498.5,-150 504.5,-144 510.5,-144 510.5,-144 561.5,-144 561.5,-144 567.5,-144 573.5,-150 573.5,-156 573.5,-156 573.5,-168 573.5,-168 573.5,-174 567.5,-180 561.5,-180"/>
<text text-anchor="middle" x="536" y="-159.5" font-family="sans" font-size="10.00">excel_sheet</text>
</g>
<!-- 3&#45;&gt;27 -->
<g id="edge72" class="edge"><title>3&#45;&gt;27</title>
<path fill="none" stroke="grey" stroke-width="2" d="M669.958,-1511.89C665.673,-1493.94 658.621,-1464.92 652,-1440 558.337,-1087.49 432.568,-1012.71 437,-648 438.556,-519.972 426.813,-486.879 444,-360 448.428,-327.314 452.977,-319.727 462,-288 471.19,-255.688 467.795,-244.853 485,-216 491.222,-205.566 499.862,-195.568 508.264,-187.122"/>
<polygon fill="grey" stroke="grey" stroke-width="2" points="510.749,-189.588 515.52,-180.128 505.891,-184.548 510.749,-189.588"/>
</g>
<!-- 44 -->
<g id="node45" class="node"><title>44</title>
<path fill="none" stroke="#d87556" stroke-width="2" d="M969,-1188C969,-1188 897,-1188 897,-1188 891,-1188 885,-1182 885,-1176 885,-1176 885,-1164 885,-1164 885,-1158 891,-1152 897,-1152 897,-1152 969,-1152 969,-1152 975,-1152 981,-1158 981,-1164 981,-1164 981,-1176 981,-1176 981,-1182 975,-1188 969,-1188"/>
<text text-anchor="middle" x="933" y="-1167.5" font-family="sans" font-size="10.00">split_known_rep</text>
</g>
<!-- 3&#45;&gt;44 -->
<g id="edge111" class="edge"><title>3&#45;&gt;44</title>
<path fill="none" stroke="grey" stroke-width="2" d="M691.378,-1511.95C701.337,-1501.86 713.837,-1488.61 724,-1476 803.217,-1377.74 884.041,-1250.49 917.271,-1196.75"/>
<polygon fill="grey" stroke="grey" stroke-width="2" points="920.285,-1198.53 922.551,-1188.18 914.325,-1194.86 920.285,-1198.53"/>
</g>
<!-- 4 -->
<g id="node5" class="node"><title>4</title>
<path fill="none" stroke="#56d873" stroke-width="2" d="M402,-1548C402,-1548 332,-1548 332,-1548 326,-1548 320,-1542 320,-1536 320,-1536 320,-1524 320,-1524 320,-1518 326,-1512 332,-1512 332,-1512 402,-1512 402,-1512 408,-1512 414,-1518 414,-1524 414,-1524 414,-1536 414,-1536 414,-1542 408,-1548 402,-1548"/>
<text text-anchor="middle" x="367" y="-1527.5" font-family="sans" font-size="10.00">snpweights_csv</text>
</g>
<!-- 4&#45;&gt;0 -->
<g id="edge15" class="edge"><title>4&#45;&gt;0</title>
<path fill="none" stroke="grey" stroke-width="2" d="M319.922,-1516.48C237.563,-1493.17 76,-1440.61 76,-1387 76,-1387 76,-1387 76,-161 76,-116.473 87.7703,-100.477 122,-72 161.594,-39.0601 221.293,-26.5846 259.709,-21.8649"/>
<polygon fill="grey" stroke="grey" stroke-width="2" points="260.393,-25.3106 269.946,-20.7288 259.62,-18.3533 260.393,-25.3106"/>
</g>
<!-- 4&#45;&gt;17 -->
<g id="edge44" class="edge"><title>4&#45;&gt;17</title>
<path fill="none" stroke="grey" stroke-width="2" d="M364.034,-1511.7C362.711,-1503.98 361.122,-1494.71 359.648,-1486.11"/>
<polygon fill="grey" stroke="grey" stroke-width="2" points="363.072,-1485.37 357.932,-1476.1 356.172,-1486.55 363.072,-1485.37"/>
</g>
<!-- 43 -->
<g id="node44" class="node"><title>43</title>
<path fill="none" stroke="#d8ac56" stroke-width="2" d="M1026,-828C1026,-828 962,-828 962,-828 956,-828 950,-822 950,-816 950,-816 950,-804 950,-804 950,-798 956,-792 962,-792 962,-792 1026,-792 1026,-792 1032,-792 1038,-798 1038,-804 1038,-804 1038,-816 1038,-816 1038,-822 1032,-828 1026,-828"/>
<text text-anchor="middle" x="994" y="-807.5" font-family="sans" font-size="10.00">make_pop_list</text>
</g>
<!-- 4&#45;&gt;43 -->
<g id="edge109" class="edge"><title>4&#45;&gt;43</title>
<path fill="none" stroke="grey" stroke-width="2" d="M414.067,-1525.74C485.416,-1519.9 616.421,-1505.43 652,-1476 737.66,-1405.13 743,-1354.17 743,-1243 743,-1243 743,-1243 743,-1097 743,-992.615 828.079,-995.277 914,-936 942.796,-916.134 964.136,-928.798 984,-900 996.382,-882.049 998.199,-857.053 997.31,-838.12"/>
<polygon fill="grey" stroke="grey" stroke-width="2" points="1000.79,-837.754 996.56,-828.041 993.811,-838.273 1000.79,-837.754"/>
</g>
<!-- 5&#45;&gt;0 -->
<g id="edge3" class="edge"><title>5&#45;&gt;0</title>
<path fill="none" stroke="grey" stroke-width="2" d="M131.666,-1511.96C94.9562,-1488.82 38,-1443.79 38,-1387 38,-1387 38,-1387 38,-161 38,-116.473 49.0664,-99.609 84,-72 135.312,-31.4465 213.561,-21.4473 259.564,-19.2612"/>
<polygon fill="grey" stroke="grey" stroke-width="2" points="259.837,-22.7536 269.699,-18.8819 259.575,-15.7585 259.837,-22.7536"/>
</g>
<!-- 5&#45;&gt;17 -->
<g id="edge42" class="edge"><title>5&#45;&gt;17</title>
<path fill="none" stroke="grey" stroke-width="2" d="M209.213,-1511.88C236.066,-1502.14 269.88,-1489.87 298.18,-1479.61"/>
<polygon fill="grey" stroke="grey" stroke-width="2" points="299.733,-1482.77 307.94,-1476.07 297.346,-1476.19 299.733,-1482.77"/>
</g>
<!-- 6&#45;&gt;0 -->
<g id="edge13" class="edge"><title>6&#45;&gt;0</title>
<path fill="none" stroke="grey" stroke-width="2" d="M406.116,-1367.95C371.129,-1266.32 192,-742.29 192,-667 192,-667 192,-667 192,-161 192,-111.464 233.821,-67.8955 264.676,-42.4918"/>
<polygon fill="grey" stroke="grey" stroke-width="2" points="267.017,-45.1007 272.647,-36.1253 262.649,-39.6311 267.017,-45.1007"/>
</g>
<!-- 7 -->
<g id="node8" class="node"><title>7</title>
<path fill="none" stroke="#70d856" stroke-width="2" d="M265.5,-1332C265.5,-1332 226.5,-1332 226.5,-1332 220.5,-1332 214.5,-1326 214.5,-1320 214.5,-1320 214.5,-1308 214.5,-1308 214.5,-1302 220.5,-1296 226.5,-1296 226.5,-1296 265.5,-1296 265.5,-1296 271.5,-1296 277.5,-1302 277.5,-1308 277.5,-1308 277.5,-1320 277.5,-1320 277.5,-1326 271.5,-1332 265.5,-1332"/>
<text text-anchor="middle" x="246" y="-1311.5" font-family="sans" font-size="10.00">identifiler</text>
</g>
<!-- 7&#45;&gt;0 -->
<g id="edge8" class="edge"><title>7&#45;&gt;0</title>
<path fill="none" stroke="grey" stroke-width="2" d="M225.124,-1295.63C197.98,-1270.97 154,-1222.99 154,-1171 154,-1171 154,-1171 154,-161 154,-120.031 151.37,-103.133 178,-72 198.987,-47.4641 233.574,-33.8114 260.066,-26.5339"/>
<polygon fill="grey" stroke="grey" stroke-width="2" points="260.959,-29.9184 269.778,-24.0475 259.222,-23.1371 260.959,-29.9184"/>
</g>
<!-- 8 -->
<g id="node9" class="node"><title>8</title>
<path fill="none" stroke="#68d856" stroke-width="2" d="M1332,-828C1332,-828 1258,-828 1258,-828 1252,-828 1246,-822 1246,-816 1246,-816 1246,-804 1246,-804 1246,-798 1252,-792 1258,-792 1258,-792 1332,-792 1332,-792 1338,-792 1344,-798 1344,-804 1344,-804 1344,-816 1344,-816 1344,-822 1338,-828 1332,-828"/>
<text text-anchor="middle" x="1295" y="-807.5" font-family="sans" font-size="10.00">qc_stats_subject</text>
</g>
<!-- 8&#45;&gt;0 -->
<g id="edge9" class="edge"><title>8&#45;&gt;0</title>
<path fill="none" stroke="grey" stroke-width="2" d="M1344.32,-798.963C1436.88,-778.058 1639.14,-722.344 1771,-612 1807.02,-581.855 1828,-569.973 1828,-523 1828,-523 1828,-523 1828,-449 1828,-244.671 1678.93,-205.262 1484,-144 1337.89,-98.0802 1298.74,-92.8228 1147,-72 834.889,-29.1688 453.502,-20.9201 334.363,-19.358"/>
<polygon fill="grey" stroke="grey" stroke-width="2" points="334.344,-15.8576 324.302,-19.2341 334.258,-22.8571 334.344,-15.8576"/>
</g>
<!-- 55 -->
<g id="node56" class="node"><title>55</title>
<path fill="none" stroke="#d8cb56" stroke-width="2" d="M957,-756C957,-756 877,-756 877,-756 871,-756 865,-750 865,-744 865,-744 865,-732 865,-732 865,-726 871,-720 877,-720 877,-720 957,-720 957,-720 963,-720 969,-726 969,-732 969,-732 969,-744 969,-744 969,-750 963,-756 957,-756"/>
<text text-anchor="middle" x="917" y="-735.5" font-family="sans" font-size="10.00">make_related_list</text>
</g>
<!-- 8&#45;&gt;55 -->
<g id="edge128" class="edge"><title>8&#45;&gt;55</title>
<path fill="none" stroke="grey" stroke-width="2" d="M1245.81,-802.428C1185.24,-793.971 1079.08,-777.96 979.115,-756.127"/>
<polygon fill="grey" stroke="grey" stroke-width="2" points="979.671,-752.665 969.152,-753.926 978.162,-759.501 979.671,-752.665"/>
</g>
<!-- 9 -->
<g id="node10" class="node"><title>9</title>
<path fill="none" stroke="#56d8b9" stroke-width="2" d="M524.5,-1260C524.5,-1260 453.5,-1260 453.5,-1260 447.5,-1260 441.5,-1254 441.5,-1248 441.5,-1248 441.5,-1236 441.5,-1236 441.5,-1230 447.5,-1224 453.5,-1224 453.5,-1224 524.5,-1224 524.5,-1224 530.5,-1224 536.5,-1230 536.5,-1236 536.5,-1236 536.5,-1248 536.5,-1248 536.5,-1254 530.5,-1260 524.5,-1260"/>
<text text-anchor="middle" x="489" y="-1239.5" font-family="sans" font-size="10.00">plot_completion</text>
</g>
<!-- 9&#45;&gt;0 -->
<g id="edge10" class="edge"><title>9&#45;&gt;0</title>
<path fill="none" stroke="grey" stroke-width="2" d="M480.704,-1223.91C460.334,-1181.67 406.703,-1068.76 368,-972 244.233,-662.587 230,-568.248 230,-235 230,-235 230,-235 230,-161 230,-116.725 256.97,-71.4709 276.688,-44.3024"/>
<polygon fill="grey" stroke="grey" stroke-width="2" points="279.605,-46.2456 282.791,-36.1412 273.999,-42.0532 279.605,-46.2456"/>
</g>
<!-- 26 -->
<g id="node27" class="node"><title>26</title>
<path fill="none" stroke="#d6d856" stroke-width="2" d="M1018.5,-252C1018.5,-252 979.5,-252 979.5,-252 973.5,-252 967.5,-246 967.5,-240 967.5,-240 967.5,-228 967.5,-228 967.5,-222 973.5,-216 979.5,-216 979.5,-216 1018.5,-216 1018.5,-216 1024.5,-216 1030.5,-222 1030.5,-228 1030.5,-228 1030.5,-240 1030.5,-240 1030.5,-246 1024.5,-252 1018.5,-252"/>
<text text-anchor="middle" x="999" y="-231.5" font-family="sans" font-size="10.00">word_doc</text>
</g>
<!-- 9&#45;&gt;26 -->
<g id="edge66" class="edge"><title>9&#45;&gt;26</title>
<path fill="none" stroke="grey" stroke-width="2" d="M492.916,-1223.99C508.867,-1158.43 575.069,-919.445 719,-792 753.74,-761.239 786.873,-791.291 817,-756 846.117,-721.892 885.802,-403.892 895,-360 901.724,-327.916 891.855,-314.609 911,-288 922.689,-271.754 941.039,-259.567 957.966,-251.002"/>
<polygon fill="grey" stroke="grey" stroke-width="2" points="959.65,-254.076 967.171,-246.613 956.638,-247.757 959.65,-254.076"/>
</g>
<!-- 10 -->
<g id="node11" class="node"><title>10</title>
<path fill="none" stroke="#88d856" stroke-width="2" d="M801,-900C801,-900 715,-900 715,-900 709,-900 703,-894 703,-888 703,-888 703,-876 703,-876 703,-870 709,-864 715,-864 715,-864 801,-864 801,-864 807,-864 813,-870 813,-876 813,-876 813,-888 813,-888 813,-894 807,-900 801,-900"/>
<text text-anchor="middle" x="758" y="-879.5" font-family="sans" font-size="10.00">sex_discordant_list</text>
</g>
<!-- 10&#45;&gt;0 -->
<g id="edge4" class="edge"><title>10&#45;&gt;0</title>
<path fill="none" stroke="grey" stroke-width="2" d="M702.772,-869.553C640.302,-853.946 539.198,-820.264 477,-756 303.488,-576.724 268,-484.492 268,-235 268,-235 268,-235 268,-161 268,-120.215 279.627,-74.1481 288.156,-45.8398"/>
<polygon fill="grey" stroke="grey" stroke-width="2" points="291.509,-46.8446 291.131,-36.2565 284.824,-44.7691 291.509,-46.8446"/>
</g>
<!-- 41 -->
<g id="node42" class="node"><title>41</title>
<path fill="none" stroke="#56d8a9" stroke-width="2" d="M1494.5,-540C1494.5,-540 1417.5,-540 1417.5,-540 1411.5,-540 1405.5,-534 1405.5,-528 1405.5,-528 1405.5,-516 1405.5,-516 1405.5,-510 1411.5,-504 1417.5,-504 1417.5,-504 1494.5,-504 1494.5,-504 1500.5,-504 1506.5,-510 1506.5,-516 1506.5,-516 1506.5,-528 1506.5,-528 1506.5,-534 1500.5,-540 1494.5,-540"/>
<text text-anchor="middle" x="1456" y="-519.5" font-family="sans" font-size="10.00">count_exclusions</text>
</g>
<!-- 10&#45;&gt;41 -->
<g id="edge101" class="edge"><title>10&#45;&gt;41</title>
<path fill="none" stroke="grey" stroke-width="2" d="M813.197,-871.7C890.795,-858.5 1025.15,-835.138 1047,-828 1116.91,-805.161 1135.87,-798.352 1196,-756 1289.27,-690.306 1291.01,-648.617 1379,-576 1391.94,-565.323 1406.98,-554.628 1420.32,-545.67"/>
<polygon fill="grey" stroke="grey" stroke-width="2" points="1422.39,-548.493 1428.8,-540.052 1418.53,-542.657 1422.39,-548.493"/>
</g>
<!-- 11&#45;&gt;0 -->
<g id="edge11" class="edge"><title>11&#45;&gt;0</title>
<path fill="none" stroke="grey" stroke-width="2" d="M1724.88,-575.829C1734.82,-549.444 1752,-497.136 1752,-451 1752,-451 1752,-451 1752,-377 1752,-75.7936 561.407,-26.5786 334.21,-19.9292"/>
<polygon fill="grey" stroke="grey" stroke-width="2" points="334.223,-16.4282 324.128,-19.6439 334.025,-23.4254 334.223,-16.4282"/>
</g>
<!-- 11&#45;&gt;27 -->
<g id="edge76" class="edge"><title>11&#45;&gt;27</title>
<path fill="none" stroke="grey" stroke-width="2" d="M1709.5,-575.993C1697.23,-549.822 1676,-497.79 1676,-451 1676,-451 1676,-451 1676,-305 1676,-193.086 799.684,-168.259 583.68,-163.839"/>
<polygon fill="grey" stroke="grey" stroke-width="2" points="583.673,-160.339 573.605,-163.638 583.533,-167.337 583.673,-160.339"/>
</g>
<!-- 11&#45;&gt;41 -->
<g id="edge102" class="edge"><title>11&#45;&gt;41</title>
<path fill="none" stroke="grey" stroke-width="2" d="M1673.71,-579.864C1669.08,-578.539 1664.45,-577.23 1660,-576 1611.94,-562.717 1557.24,-548.558 1516.59,-538.22"/>
<polygon fill="grey" stroke="grey" stroke-width="2" points="1517.39,-534.811 1506.84,-535.743 1515.67,-541.596 1517.39,-534.811"/>
</g>
<!-- 12 -->
<g id="node13" class="node"><title>12</title>
<path fill="none" stroke="#80d856" stroke-width="2" d="M501,-108C501,-108 457,-108 457,-108 451,-108 445,-102 445,-96 445,-96 445,-84 445,-84 445,-78 451,-72 457,-72 457,-72 501,-72 501,-72 507,-72 513,-78 513,-84 513,-84 513,-96 513,-96 513,-102 507,-108 501,-108"/>
<text text-anchor="middle" x="479" y="-87.5" font-family="sans" font-size="10.00">copy_docs</text>
</g>
<!-- 12&#45;&gt;0 -->
<g id="edge6" class="edge"><title>12&#45;&gt;0</title>
<path fill="none" stroke="grey" stroke-width="2" d="M444.767,-75.8335C413.133,-63.6664 366.259,-45.6382 333.824,-33.1633"/>
<polygon fill="grey" stroke="grey" stroke-width="2" points="334.845,-29.8058 324.255,-29.4827 332.332,-36.3392 334.845,-29.8058"/>
</g>
<!-- 13 -->
<g id="node14" class="node"><title>13</title>
<path fill="none" stroke="#d88556" stroke-width="2" d="M343.5,-252C343.5,-252 308.5,-252 308.5,-252 302.5,-252 296.5,-246 296.5,-240 296.5,-240 296.5,-228 296.5,-228 296.5,-222 302.5,-216 308.5,-216 308.5,-216 343.5,-216 343.5,-216 349.5,-216 355.5,-222 355.5,-228 355.5,-228 355.5,-240 355.5,-240 355.5,-246 349.5,-252 343.5,-252"/>
<text text-anchor="middle" x="326" y="-231.5" font-family="sans" font-size="10.00">zip_HWP</text>
</g>
<!-- 13&#45;&gt;0 -->
<g id="edge16" class="edge"><title>13&#45;&gt;0</title>
<path fill="none" stroke="grey" stroke-width="2" d="M323.676,-215.849C318.659,-178.832 306.782,-91.1809 300.711,-46.3863"/>
<polygon fill="grey" stroke="grey" stroke-width="2" points="304.146,-45.6718 299.335,-36.2325 297.21,-46.6119 304.146,-45.6718"/>
</g>
<!-- 14 -->
<g id="node15" class="node"><title>14</title>
<path fill="none" stroke="#5682d8" stroke-width="2" d="M1942.5,-180C1942.5,-180 1829.5,-180 1829.5,-180 1823.5,-180 1817.5,-174 1817.5,-168 1817.5,-168 1817.5,-156 1817.5,-156 1817.5,-150 1823.5,-144 1829.5,-144 1829.5,-144 1942.5,-144 1942.5,-144 1948.5,-144 1954.5,-150 1954.5,-156 1954.5,-156 1954.5,-168 1954.5,-168 1954.5,-174 1948.5,-180 1942.5,-180"/>
<text text-anchor="middle" x="1886" y="-159.5" font-family="sans" font-size="10.00">copy_subject_geno_data</text>
</g>
<!-- 14&#45;&gt;0 -->
<g id="edge7" class="edge"><title>14&#45;&gt;0</title>
<path fill="none" stroke="grey" stroke-width="2" d="M1875.97,-143.781C1862.47,-122.476 1836.26,-87.1614 1803,-72 1734.16,-40.6192 559.941,-22.6738 334.325,-19.5072"/>
<polygon fill="grey" stroke="grey" stroke-width="2" points="334.06,-16.0033 324.013,-19.3635 333.963,-23.0026 334.06,-16.0033"/>
</g>
<!-- 15 -->
<g id="node16" class="node"><title>15</title>
<path fill="none" stroke="#56d89a" stroke-width="2" d="M2095.5,-2124C2095.5,-2124 1982.5,-2124 1982.5,-2124 1976.5,-2124 1970.5,-2118 1970.5,-2112 1970.5,-2112 1970.5,-2100 1970.5,-2100 1970.5,-2094 1976.5,-2088 1982.5,-2088 1982.5,-2088 2095.5,-2088 2095.5,-2088 2101.5,-2088 2107.5,-2094 2107.5,-2100 2107.5,-2100 2107.5,-2112 2107.5,-2112 2107.5,-2118 2101.5,-2124 2095.5,-2124"/>
<text text-anchor="middle" x="2039" y="-2103.5" font-family="sans" font-size="10.00">copy_sample_geno_data</text>
</g>
<!-- 15&#45;&gt;0 -->
<g id="edge2" class="edge"><title>15&#45;&gt;0</title>
<path fill="none" stroke="grey" stroke-width="2" d="M2035.36,-2087.6C2030.1,-2060.92 2021,-2008.23 2021,-1963 2021,-1963 2021,-1963 2021,-161 2021,-94.599 1963.7,-93.8675 1901,-72 1748.77,-18.9063 560.683,-18.4947 334.221,-18.9039"/>
<polygon fill="grey" stroke="grey" stroke-width="2" points="334.165,-15.4039 324.172,-18.9238 334.179,-22.4039 334.165,-15.4039"/>
</g>
<!-- 16 -->
<g id="node17" class="node"><title>16</title>
<path fill="none" stroke="#d89c56" stroke-width="2" d="M2091,-108C2091,-108 2061,-108 2061,-108 2055,-108 2049,-102 2049,-96 2049,-96 2049,-84 2049,-84 2049,-78 2055,-72 2061,-72 2061,-72 2091,-72 2091,-72 2097,-72 2103,-78 2103,-84 2103,-84 2103,-96 2103,-96 2103,-102 2097,-108 2091,-108"/>
<text text-anchor="middle" x="2076" y="-87.5" font-family="sans" font-size="10.00">readme</text>
</g>
<!-- 16&#45;&gt;0 -->
<g id="edge12" class="edge"><title>16&#45;&gt;0</title>
<path fill="none" stroke="grey" stroke-width="2" d="M2048.65,-76.0727C2044.17,-74.4219 2039.52,-72.9718 2035,-72 1863.6,-35.1495 572.119,-21.5355 334.508,-19.331"/>
<polygon fill="grey" stroke="grey" stroke-width="2" points="334.339,-15.8294 324.307,-19.2374 334.275,-22.8291 334.339,-15.8294"/>
</g>
<!-- 17&#45;&gt;1 -->
<g id="edge17" class="edge"><title>17&#45;&gt;1</title>
<path fill="none" stroke="grey" stroke-width="2" d="M324.379,-1439.95C306.956,-1429.96 284.904,-1416.82 266,-1404 235.312,-1383.19 201.88,-1357.16 178.826,-1338.63"/>
<polygon fill="grey" stroke="grey" stroke-width="2" points="180.805,-1335.73 170.826,-1332.17 176.406,-1341.18 180.805,-1335.73"/>
</g>
<!-- 17&#45;&gt;6 -->
<g id="edge24" class="edge"><title>17&#45;&gt;6</title>
<path fill="none" stroke="grey" stroke-width="2" d="M369.09,-1439.7C375.923,-1431.3 384.257,-1421.07 391.756,-1411.86"/>
<polygon fill="grey" stroke="grey" stroke-width="2" points="394.472,-1414.07 398.072,-1404.1 389.044,-1409.65 394.472,-1414.07"/>
</g>
<!-- 17&#45;&gt;7 -->
<g id="edge25" class="edge"><title>17&#45;&gt;7</title>
<path fill="none" stroke="grey" stroke-width="2" d="M330.235,-1439.84C317.704,-1430.3 302.886,-1417.62 292,-1404 276.813,-1385 264.49,-1360.19 256.435,-1341.6"/>
<polygon fill="grey" stroke="grey" stroke-width="2" points="259.608,-1340.11 252.514,-1332.24 253.152,-1342.82 259.608,-1340.11"/>
</g>
<!-- 23 -->
<g id="node24" class="node"><title>23</title>
<path fill="none" stroke="#56d8a9" stroke-width="2" d="M1047.5,-1404C1047.5,-1404 970.5,-1404 970.5,-1404 964.5,-1404 958.5,-1398 958.5,-1392 958.5,-1392 958.5,-1380 958.5,-1380 958.5,-1374 964.5,-1368 970.5,-1368 970.5,-1368 1047.5,-1368 1047.5,-1368 1053.5,-1368 1059.5,-1374 1059.5,-1380 1059.5,-1380 1059.5,-1392 1059.5,-1392 1059.5,-1398 1053.5,-1404 1047.5,-1404"/>
<text text-anchor="middle" x="1009" y="-1383.5" font-family="sans" font-size="10.00">qc_fail_samp_list</text>
</g>
<!-- 17&#45;&gt;23 -->
<g id="edge53" class="edge"><title>17&#45;&gt;23</title>
<path fill="none" stroke="grey" stroke-width="2" d="M407.139,-1451.42C526.761,-1438.62 820.428,-1407.18 948.089,-1393.52"/>
<polygon fill="grey" stroke="grey" stroke-width="2" points="948.518,-1396.99 958.089,-1392.45 947.773,-1390.03 948.518,-1396.99"/>
</g>
<!-- 17&#45;&gt;26 -->
<g id="edge65" class="edge"><title>17&#45;&gt;26</title>
<path fill="none" stroke="grey" stroke-width="2" d="M352.827,-1439.98C349.621,-1413.37 344,-1360.25 344,-1315 344,-1315 344,-1315 344,-1241 344,-1144.4 382,-1123.6 382,-1027 382,-1027 382,-1027 382,-809 382,-665.052 534,-666.948 534,-523 534,-523 534,-523 534,-377 534,-314.802 585.165,-313.266 642,-288 748.469,-240.669 888.628,-234.134 957.357,-234.102"/>
<polygon fill="grey" stroke="grey" stroke-width="2" points="957.348,-237.602 967.363,-234.144 957.378,-230.602 957.348,-237.602"/>
</g>
<!-- 48 -->
<g id="node49" class="node"><title>48</title>
<path fill="none" stroke="#56a9d8" stroke-width="2" d="M260.5,-1044C260.5,-1044 201.5,-1044 201.5,-1044 195.5,-1044 189.5,-1038 189.5,-1032 189.5,-1032 189.5,-1020 189.5,-1020 189.5,-1014 195.5,-1008 201.5,-1008 201.5,-1008 260.5,-1008 260.5,-1008 266.5,-1008 272.5,-1014 272.5,-1020 272.5,-1020 272.5,-1032 272.5,-1032 272.5,-1038 266.5,-1044 260.5,-1044"/>
<text text-anchor="middle" x="231" y="-1023.5" font-family="sans" font-size="10.00">subset_all_qc</text>
</g>
<!-- 17&#45;&gt;48 -->
<g id="edge116" class="edge"><title>17&#45;&gt;48</title>
<path fill="none" stroke="grey" stroke-width="2" d="M345.843,-1439.68C340.708,-1429.49 334.458,-1416.24 330,-1404 283.467,-1276.28 249.004,-1116.87 236.321,-1054.14"/>
<polygon fill="grey" stroke="grey" stroke-width="2" points="239.736,-1053.37 234.34,-1044.25 232.872,-1054.75 239.736,-1053.37"/>
</g>
<!-- 54 -->
<g id="node55" class="node"><title>54</title>
<path fill="none" stroke="#d88d56" stroke-width="2" d="M963,-900C963,-900 881,-900 881,-900 875,-900 869,-894 869,-888 869,-888 869,-876 869,-876 869,-870 875,-864 881,-864 881,-864 963,-864 963,-864 969,-864 975,-870 975,-876 975,-876 975,-888 975,-888 975,-894 969,-900 963,-900"/>
<text text-anchor="middle" x="922" y="-879.5" font-family="sans" font-size="10.00">subset_qc_subject</text>
</g>
<!-- 17&#45;&gt;54 -->
<g id="edge125" class="edge"><title>17&#45;&gt;54</title>
<path fill="none" stroke="grey" stroke-width="2" d="M407.182,-1453.09C486.681,-1443.97 629,-1413.85 629,-1315 629,-1315 629,-1315 629,-1241 629,-1092.21 653.908,-1032.68 767,-936 792.83,-913.918 828.317,-900.903 858.818,-893.302"/>
<polygon fill="grey" stroke="grey" stroke-width="2" points="860.013,-896.617 868.95,-890.926 858.415,-889.802 860.013,-896.617"/>
</g>
<!-- 18 -->
<g id="node19" class="node"><title>18</title>
<path fill="none" stroke="#9fd856" stroke-width="2" d="M687,-1620C687,-1620 583,-1620 583,-1620 577,-1620 571,-1614 571,-1608 571,-1608 571,-1596 571,-1596 571,-1590 577,-1584 583,-1584 583,-1584 687,-1584 687,-1584 693,-1584 699,-1590 699,-1596 699,-1596 699,-1608 699,-1608 699,-1614 693,-1620 687,-1620"/>
<text text-anchor="middle" x="635" y="-1599.5" font-family="sans" font-size="10.00">plink_sample_qc_stats</text>
</g>
<!-- 18&#45;&gt;3 -->
<g id="edge18" class="edge"><title>18&#45;&gt;3</title>
<path fill="none" stroke="grey" stroke-width="2" d="M644.64,-1583.7C649.127,-1575.64 654.559,-1565.89 659.524,-1556.98"/>
<polygon fill="grey" stroke="grey" stroke-width="2" points="662.661,-1558.54 664.47,-1548.1 656.546,-1555.14 662.661,-1558.54"/>
</g>
<!-- 18&#45;&gt;5 -->
<g id="edge21" class="edge"><title>18&#45;&gt;5</title>
<path fill="none" stroke="grey" stroke-width="2" d="M570.717,-1591.49C494.557,-1580.22 366.356,-1561.24 273.819,-1547.55"/>
<polygon fill="grey" stroke="grey" stroke-width="2" points="274.255,-1544.07 263.85,-1546.07 273.23,-1551 274.255,-1544.07"/>
</g>
<!-- 18&#45;&gt;9 -->
<g id="edge27" class="edge"><title>18&#45;&gt;9</title>
<path fill="none" stroke="grey" stroke-width="2" d="M592.646,-1583.93C546.753,-1562.31 480,-1520.31 480,-1459 480,-1459 480,-1459 480,-1385 480,-1344.92 483.616,-1298.59 486.264,-1270.05"/>
<polygon fill="grey" stroke="grey" stroke-width="2" points="489.754,-1270.31 487.222,-1260.03 482.786,-1269.65 489.754,-1270.31"/>
</g>
<!-- 18&#45;&gt;17 -->
<g id="edge41" class="edge"><title>18&#45;&gt;17</title>
<path fill="none" stroke="grey" stroke-width="2" d="M570.809,-1587.22C538.184,-1578.67 498.644,-1565.85 466,-1548 444.132,-1536.04 442.388,-1527.66 423,-1512 410.914,-1502.24 397.449,-1491.68 385.71,-1482.57"/>
<polygon fill="grey" stroke="grey" stroke-width="2" points="387.564,-1479.58 377.512,-1476.23 383.281,-1485.12 387.564,-1479.58"/>
</g>
<!-- 22 -->
<g id="node23" class="node"><title>22</title>
<path fill="none" stroke="#56d0d8" stroke-width="2" d="M631.5,-1476C631.5,-1476 558.5,-1476 558.5,-1476 552.5,-1476 546.5,-1470 546.5,-1464 546.5,-1464 546.5,-1452 546.5,-1452 546.5,-1446 552.5,-1440 558.5,-1440 558.5,-1440 631.5,-1440 631.5,-1440 637.5,-1440 643.5,-1446 643.5,-1452 643.5,-1452 643.5,-1464 643.5,-1464 643.5,-1470 637.5,-1476 631.5,-1476"/>
<text text-anchor="middle" x="595" y="-1455.5" font-family="sans" font-size="10.00">add_CaCo_imiss</text>
</g>
<!-- 18&#45;&gt;22 -->
<g id="edge52" class="edge"><title>18&#45;&gt;22</title>
<path fill="none" stroke="grey" stroke-width="2" d="M627.251,-1583.59C622.919,-1573.38 617.669,-1560.13 614,-1548 607.833,-1527.62 602.893,-1504.02 599.597,-1486.25"/>
<polygon fill="grey" stroke="grey" stroke-width="2" points="603.018,-1485.5 597.806,-1476.28 596.128,-1486.74 603.018,-1485.5"/>
</g>
<!-- 19 -->
<g id="node20" class="node"><title>19</title>
<path fill="none" stroke="#56d8c9" stroke-width="2" d="M826.5,-1620C826.5,-1620 789.5,-1620 789.5,-1620 783.5,-1620 777.5,-1614 777.5,-1608 777.5,-1608 777.5,-1596 777.5,-1596 777.5,-1590 783.5,-1584 789.5,-1584 789.5,-1584 826.5,-1584 826.5,-1584 832.5,-1584 838.5,-1590 838.5,-1596 838.5,-1596 838.5,-1608 838.5,-1608 838.5,-1614 832.5,-1620 826.5,-1620"/>
<text text-anchor="middle" x="808" y="-1599.5" font-family="sans" font-size="10.00">plink_ibd</text>
</g>
<!-- 19&#45;&gt;3 -->
<g id="edge19" class="edge"><title>19&#45;&gt;3</title>
<path fill="none" stroke="grey" stroke-width="2" d="M777.258,-1584.94C759.114,-1575.46 735.894,-1563.33 716.07,-1552.98"/>
<polygon fill="grey" stroke="grey" stroke-width="2" points="717.425,-1549.74 706.941,-1548.21 714.184,-1555.94 717.425,-1549.74"/>
</g>
<!-- 45 -->
<g id="node46" class="node"><title>45</title>
<path fill="none" stroke="#56c9d8" stroke-width="2" d="M1005,-972C1005,-972 935,-972 935,-972 929,-972 923,-966 923,-960 923,-960 923,-948 923,-948 923,-942 929,-936 935,-936 935,-936 1005,-936 1005,-936 1011,-936 1017,-942 1017,-948 1017,-948 1017,-960 1017,-960 1017,-966 1011,-972 1005,-972"/>
<text text-anchor="middle" x="970" y="-951.5" font-family="sans" font-size="10.00">subject_ibd_csv</text>
</g>
<!-- 19&#45;&gt;45 -->
<g id="edge113" class="edge"><title>19&#45;&gt;45</title>
<path fill="none" stroke="grey" stroke-width="2" d="M808.756,-1583.8C811.241,-1525.72 819,-1331.56 819,-1171 819,-1171 819,-1171 819,-1097 819,-1040.39 876.018,-999.733 919.98,-976.8"/>
<polygon fill="grey" stroke="grey" stroke-width="2" points="921.788,-979.807 929.137,-972.176 918.633,-973.559 921.788,-979.807"/>
</g>
<!-- 19&#45;&gt;55 -->
<g id="edge129" class="edge"><title>19&#45;&gt;55</title>
<path fill="none" stroke="grey" stroke-width="2" d="M800.225,-1583.98C764.251,-1503 618.442,-1148.81 684,-864 691.981,-829.326 691.557,-814.647 719,-792 720.374,-790.866 797.595,-770.389 855.179,-755.226"/>
<polygon fill="grey" stroke="grey" stroke-width="2" points="856.177,-758.583 864.957,-752.653 854.396,-751.813 856.177,-758.583"/>
</g>
<!-- 20 -->
<g id="node21" class="node"><title>20</title>
<path fill="none" stroke="#56d863" stroke-width="2" d="M466,-1620C466,-1620 418,-1620 418,-1620 412,-1620 406,-1614 406,-1608 406,-1608 406,-1596 406,-1596 406,-1590 412,-1584 418,-1584 418,-1584 466,-1584 466,-1584 472,-1584 478,-1590 478,-1596 478,-1596 478,-1608 478,-1608 478,-1614 472,-1620 466,-1620"/>
<text text-anchor="middle" x="442" y="-1599.5" font-family="sans" font-size="10.00">snpweights</text>
</g>
<!-- 20&#45;&gt;4 -->
<g id="edge20" class="edge"><title>20&#45;&gt;4</title>
<path fill="none" stroke="grey" stroke-width="2" d="M423.461,-1583.7C414.197,-1575.05 402.838,-1564.45 392.743,-1555.03"/>
<polygon fill="grey" stroke="grey" stroke-width="2" points="395.025,-1552.37 385.326,-1548.1 390.249,-1557.49 395.025,-1552.37"/>
</g>
<!-- 21 -->
<g id="node22" class="node"><title>21</title>
<path fill="none" stroke="#a7d856" stroke-width="2" d="M1256,-900C1256,-900 1156,-900 1156,-900 1150,-900 1144,-894 1144,-888 1144,-888 1144,-876 1144,-876 1144,-870 1150,-864 1156,-864 1156,-864 1256,-864 1256,-864 1262,-864 1268,-870 1268,-876 1268,-876 1268,-888 1268,-888 1268,-894 1262,-900 1256,-900"/>
<text text-anchor="middle" x="1206" y="-879.5" font-family="sans" font-size="10.00">rename_samp_to_sub</text>
</g>
<!-- 21&#45;&gt;8 -->
<g id="edge26" class="edge"><title>21&#45;&gt;8</title>
<path fill="none" stroke="grey" stroke-width="2" d="M1228,-863.697C1239.21,-854.881 1253,-844.032 1265.15,-834.474"/>
<polygon fill="grey" stroke="grey" stroke-width="2" points="1267.56,-837.038 1273.25,-828.104 1263.23,-831.535 1267.56,-837.038"/>
</g>
<!-- 21&#45;&gt;41 -->
<g id="edge95" class="edge"><title>21&#45;&gt;41</title>
<path fill="none" stroke="grey" stroke-width="2" d="M1208.02,-863.981C1211.13,-844.488 1218.79,-812.595 1237,-792 1260.96,-764.897 1284.13,-781.282 1310,-756 1374.55,-692.924 1350.93,-649.002 1404,-576 1411.33,-565.919 1420.54,-555.894 1429.16,-547.319"/>
<polygon fill="grey" stroke="grey" stroke-width="2" points="1431.78,-549.661 1436.53,-540.193 1426.91,-544.63 1431.78,-549.661"/>
</g>
<!-- 21&#45;&gt;43 -->
<g id="edge110" class="edge"><title>21&#45;&gt;43</title>
<path fill="none" stroke="grey" stroke-width="2" d="M1154.41,-863.966C1122.2,-853.33 1080.79,-839.657 1048.11,-828.868"/>
<polygon fill="grey" stroke="grey" stroke-width="2" points="1048.87,-825.431 1038.27,-825.619 1046.67,-832.078 1048.87,-825.431"/>
</g>
<!-- 21&#45;&gt;55 -->
<g id="edge130" class="edge"><title>21&#45;&gt;55</title>
<path fill="none" stroke="grey" stroke-width="2" d="M1185.83,-863.828C1161.92,-844.191 1120.22,-812.163 1080,-792 1061.93,-782.942 1017.13,-768.571 979.063,-757.077"/>
<polygon fill="grey" stroke="grey" stroke-width="2" points="979.627,-753.592 969.043,-754.071 977.616,-760.297 979.627,-753.592"/>
</g>
<!-- 59 -->
<g id="node60" class="node"><title>59</title>
<path fill="none" stroke="#d85e56" stroke-width="2" d="M796.5,-756C796.5,-756 719.5,-756 719.5,-756 713.5,-756 707.5,-750 707.5,-744 707.5,-744 707.5,-732 707.5,-732 707.5,-726 713.5,-720 719.5,-720 719.5,-720 796.5,-720 796.5,-720 802.5,-720 808.5,-726 808.5,-732 808.5,-732 808.5,-744 808.5,-744 808.5,-750 802.5,-756 796.5,-756"/>
<text text-anchor="middle" x="758" y="-735.5" font-family="sans" font-size="10.00">plink_subset_pop</text>
</g>
<!-- 21&#45;&gt;59 -->
<g id="edge135" class="edge"><title>21&#45;&gt;59</title>
<path fill="none" stroke="grey" stroke-width="2" d="M1151.57,-863.966C1128.33,-855.252 1101.64,-843.234 1080,-828 1062.25,-815.504 1065.99,-802.503 1047,-792 1041.99,-789.228 901.617,-764.234 818.385,-749.58"/>
<polygon fill="grey" stroke="grey" stroke-width="2" points="818.986,-746.132 808.53,-747.847 817.773,-753.026 818.986,-746.132"/>
</g>
<!-- 22&#45;&gt;9 -->
<g id="edge28" class="edge"><title>22&#45;&gt;9</title>
<path fill="none" stroke="grey" stroke-width="2" d="M586.505,-1439.85C568.014,-1402.52 524.017,-1313.69 502.007,-1269.26"/>
<polygon fill="grey" stroke="grey" stroke-width="2" points="505.111,-1267.64 497.536,-1260.23 498.838,-1270.75 505.111,-1267.64"/>
</g>
<!-- 23&#45;&gt;10 -->
<g id="edge30" class="edge"><title>23&#45;&gt;10</title>
<path fill="none" stroke="grey" stroke-width="2" d="M995.501,-1367.9C969.747,-1334.71 912.883,-1258.59 876,-1188 824.728,-1089.87 783.1,-964.271 766.173,-909.985"/>
<polygon fill="grey" stroke="grey" stroke-width="2" points="769.418,-908.629 763.122,-900.108 762.73,-910.695 769.418,-908.629"/>
</g>
<!-- 24 -->
<g id="node25" class="node"><title>24</title>
<path fill="none" stroke="#61d856" stroke-width="2" d="M1073.5,-1116C1073.5,-1116 980.5,-1116 980.5,-1116 974.5,-1116 968.5,-1110 968.5,-1104 968.5,-1104 968.5,-1092 968.5,-1092 968.5,-1086 974.5,-1080 980.5,-1080 980.5,-1080 1073.5,-1080 1073.5,-1080 1079.5,-1080 1085.5,-1086 1085.5,-1092 1085.5,-1092 1085.5,-1104 1085.5,-1104 1085.5,-1110 1079.5,-1116 1073.5,-1116"/>
<text text-anchor="middle" x="1027" y="-1095.5" font-family="sans" font-size="10.00">expected_duplicates</text>
</g>
<!-- 23&#45;&gt;24 -->
<g id="edge54" class="edge"><title>23&#45;&gt;24</title>
<path fill="none" stroke="grey" stroke-width="2" d="M1010.07,-1367.97C1013.07,-1320.29 1021.58,-1185.18 1025.26,-1126.63"/>
<polygon fill="grey" stroke="grey" stroke-width="2" points="1028.78,-1126.51 1025.91,-1116.31 1021.79,-1126.07 1028.78,-1126.51"/>
</g>
<!-- 23&#45;&gt;41 -->
<g id="edge96" class="edge"><title>23&#45;&gt;41</title>
<path fill="none" stroke="grey" stroke-width="2" d="M1059.72,-1378.25C1167.23,-1362.88 1412.56,-1321.71 1466,-1260 1513.2,-1205.49 1486,-1171.11 1486,-1099 1486,-1099 1486,-1099 1486,-881 1486,-745.182 1485.07,-710.611 1467,-576 1465.86,-567.486 1464.13,-558.296 1462.38,-549.997"/>
<polygon fill="grey" stroke="grey" stroke-width="2" points="1465.76,-549.091 1460.19,-540.079 1458.93,-550.599 1465.76,-549.091"/>
</g>
<!-- 52 -->
<g id="node53" class="node"><title>52</title>
<path fill="none" stroke="#97d856" stroke-width="2" d="M1535.5,-1332C1535.5,-1332 1454.5,-1332 1454.5,-1332 1448.5,-1332 1442.5,-1326 1442.5,-1320 1442.5,-1320 1442.5,-1308 1442.5,-1308 1442.5,-1302 1448.5,-1296 1454.5,-1296 1454.5,-1296 1535.5,-1296 1535.5,-1296 1541.5,-1296 1547.5,-1302 1547.5,-1308 1547.5,-1308 1547.5,-1320 1547.5,-1320 1547.5,-1326 1541.5,-1332 1535.5,-1332"/>
<text text-anchor="middle" x="1495" y="-1311.5" font-family="sans" font-size="10.00">combine_fail_lists</text>
</g>
<!-- 23&#45;&gt;52 -->
<g id="edge122" class="edge"><title>23&#45;&gt;52</title>
<path fill="none" stroke="grey" stroke-width="2" d="M1059.59,-1378.33C1132.62,-1368.61 1271.79,-1349.79 1390,-1332 1403.74,-1329.93 1418.47,-1327.61 1432.43,-1325.37"/>
<polygon fill="grey" stroke="grey" stroke-width="2" points="1433.11,-1328.8 1442.43,-1323.75 1432,-1321.89 1433.11,-1328.8"/>
</g>
<!-- 24&#45;&gt;10 -->
<g id="edge29" class="edge"><title>24&#45;&gt;10</title>
<path fill="none" stroke="grey" stroke-width="2" d="M1010.75,-1079.61C981.112,-1048.47 915.447,-982.122 852,-936 836.273,-924.568 817.849,-913.694 801.499,-904.805"/>
<polygon fill="grey" stroke="grey" stroke-width="2" points="803.129,-901.708 792.66,-900.08 799.829,-907.881 803.129,-901.708"/>
</g>
<!-- 24&#45;&gt;12 -->
<g id="edge36" class="edge"><title>24&#45;&gt;12</title>
<path fill="none" stroke="grey" stroke-width="2" d="M968.369,-1091.2C920.882,-1084.69 853.347,-1071.23 800,-1044 732.041,-1009.31 564.757,-891.838 477,-756 362.837,-579.29 367.43,-494.814 406,-288 417.878,-224.31 448.418,-154.161 466.003,-117.178"/>
<polygon fill="grey" stroke="grey" stroke-width="2" points="469.196,-118.615 470.385,-108.087 462.89,-115.575 469.196,-118.615"/>
</g>
<!-- 24&#45;&gt;21 -->
<g id="edge50" class="edge"><title>24&#45;&gt;21</title>
<path fill="none" stroke="grey" stroke-width="2" d="M1037.78,-1079.99C1060.88,-1043.81 1114.88,-960.513 1138,-936 1148.16,-925.223 1160.63,-914.857 1172.11,-906.195"/>
<polygon fill="grey" stroke="grey" stroke-width="2" points="1174.26,-908.955 1180.24,-900.207 1170.11,-903.319 1174.26,-908.955"/>
</g>
<!-- 36 -->
<g id="node37" class="node"><title>36</title>
<path fill="none" stroke="#56a9d8" stroke-width="2" d="M1331.5,-1044C1331.5,-1044 1230.5,-1044 1230.5,-1044 1224.5,-1044 1218.5,-1038 1218.5,-1032 1218.5,-1032 1218.5,-1020 1218.5,-1020 1218.5,-1014 1224.5,-1008 1230.5,-1008 1230.5,-1008 1331.5,-1008 1331.5,-1008 1337.5,-1008 1343.5,-1014 1343.5,-1020 1343.5,-1020 1343.5,-1032 1343.5,-1032 1343.5,-1038 1337.5,-1044 1331.5,-1044"/>
<text text-anchor="middle" x="1281" y="-1023.5" font-family="sans" font-size="10.00">combine_internal_dup</text>
</g>
<!-- 24&#45;&gt;36 -->
<g id="edge89" class="edge"><title>24&#45;&gt;36</title>
<path fill="none" stroke="grey" stroke-width="2" d="M1085.59,-1080.85C1122.46,-1070.69 1170.3,-1057.51 1209.42,-1046.73"/>
<polygon fill="grey" stroke="grey" stroke-width="2" points="1210.45,-1050.07 1219.16,-1044.04 1208.59,-1043.33 1210.45,-1050.07"/>
</g>
<!-- 24&#45;&gt;41 -->
<g id="edge104" class="edge"><title>24&#45;&gt;41</title>
<path fill="none" stroke="grey" stroke-width="2" d="M1048.15,-1079.99C1060.05,-1070.01 1074.91,-1056.87 1087,-1044 1107.82,-1021.84 1146.23,-953.631 1171,-936 1211.53,-907.149 1234.4,-925.703 1277,-900 1296.92,-887.981 1340.46,-847.598 1353,-828 1412.01,-735.749 1441.03,-606.041 1451.4,-550.255"/>
<polygon fill="grey" stroke="grey" stroke-width="2" points="1454.89,-550.579 1453.22,-540.116 1448,-549.336 1454.89,-550.579"/>
</g>
<!-- 24&#45;&gt;43 -->
<g id="edge108" class="edge"><title>24&#45;&gt;43</title>
<path fill="none" stroke="grey" stroke-width="2" d="M1028.81,-1079.94C1032.42,-1040.88 1038.41,-942.305 1017,-864 1014.57,-855.099 1010.91,-845.75 1007.23,-837.426"/>
<polygon fill="grey" stroke="grey" stroke-width="2" points="1010.34,-835.815 1002.96,-828.212 1003.99,-838.757 1010.34,-835.815"/>
</g>
<!-- 24&#45;&gt;45 -->
<g id="edge112" class="edge"><title>24&#45;&gt;45</title>
<path fill="none" stroke="grey" stroke-width="2" d="M1020.12,-1079.87C1010.32,-1055.46 992.248,-1010.43 980.692,-981.635"/>
<polygon fill="grey" stroke="grey" stroke-width="2" points="983.873,-980.166 976.9,-972.189 977.377,-982.773 983.873,-980.166"/>
</g>
<!-- 24&#45;&gt;55 -->
<g id="edge127" class="edge"><title>24&#45;&gt;55</title>
<path fill="none" stroke="grey" stroke-width="2" d="M968.253,-1081.81C889.517,-1057.93 752.861,-1003.3 694,-900 686.079,-886.098 685.912,-877.805 694,-864 728.426,-805.237 801.704,-772.009 854.888,-754.817"/>
<polygon fill="grey" stroke="grey" stroke-width="2" points="856.07,-758.114 864.571,-751.791 853.982,-751.433 856.07,-758.114"/>
</g>
<!-- 25 -->
<g id="node26" class="node"><title>25</title>
<path fill="none" stroke="#56d8d8" stroke-width="2" d="M1311.5,-972C1311.5,-972 1192.5,-972 1192.5,-972 1186.5,-972 1180.5,-966 1180.5,-960 1180.5,-960 1180.5,-948 1180.5,-948 1180.5,-942 1186.5,-936 1192.5,-936 1192.5,-936 1311.5,-936 1311.5,-936 1317.5,-936 1323.5,-942 1323.5,-948 1323.5,-948 1323.5,-960 1323.5,-960 1323.5,-966 1317.5,-972 1311.5,-972"/>
<text text-anchor="middle" x="1252" y="-951.5" font-family="sans" font-size="10.00">plink_make_subject_level</text>
</g>
<!-- 25&#45;&gt;10 -->
<g id="edge31" class="edge"><title>25&#45;&gt;10</title>
<path fill="none" stroke="grey" stroke-width="2" d="M1180.37,-943.988C1101.71,-933.934 971.705,-916.856 860,-900 848.073,-898.2 835.381,-896.174 823.147,-894.165"/>
<polygon fill="grey" stroke="grey" stroke-width="2" points="823.442,-890.666 813.004,-892.486 822.298,-897.572 823.442,-890.666"/>
</g>
<!-- 25&#45;&gt;11 -->
<g id="edge33" class="edge"><title>25&#45;&gt;11</title>
<path fill="none" stroke="grey" stroke-width="2" d="M1276.16,-935.922C1309.66,-912.138 1371.96,-867.505 1424,-828 1522.48,-753.243 1636.58,-661.227 1688.98,-618.661"/>
<polygon fill="grey" stroke="grey" stroke-width="2" points="1691.29,-621.289 1696.84,-612.265 1686.88,-615.857 1691.29,-621.289"/>
</g>
<!-- 25&#45;&gt;14 -->
<g id="edge38" class="edge"><title>25&#45;&gt;14</title>
<path fill="none" stroke="grey" stroke-width="2" d="M1323.64,-940.857C1493.01,-907.626 1904,-798.597 1904,-523 1904,-523 1904,-523 1904,-305 1904,-264.896 1896.85,-218.924 1891.56,-190.419"/>
<polygon fill="grey" stroke="grey" stroke-width="2" points="1894.96,-189.563 1889.64,-180.399 1888.08,-190.878 1894.96,-189.563"/>
</g>
<!-- 25&#45;&gt;21 -->
<g id="edge51" class="edge"><title>25&#45;&gt;21</title>
<path fill="none" stroke="grey" stroke-width="2" d="M1240.63,-935.697C1235.28,-927.559 1228.8,-917.689 1222.89,-908.701"/>
<polygon fill="grey" stroke="grey" stroke-width="2" points="1225.66,-906.539 1217.24,-900.104 1219.81,-910.384 1225.66,-906.539"/>
</g>
<!-- 25&#45;&gt;54 -->
<g id="edge126" class="edge"><title>25&#45;&gt;54</title>
<path fill="none" stroke="grey" stroke-width="2" d="M1180.39,-937.811C1122.22,-925.471 1040.95,-908.231 985.167,-896.399"/>
<polygon fill="grey" stroke="grey" stroke-width="2" points="985.569,-892.907 975.06,-894.255 984.116,-899.754 985.569,-892.907"/>
</g>
<!-- 26&#45;&gt;12 -->
<g id="edge34" class="edge"><title>26&#45;&gt;12</title>
<path fill="none" stroke="grey" stroke-width="2" d="M967.254,-224.331C878.053,-199.972 625.013,-130.873 522.715,-102.938"/>
<polygon fill="grey" stroke="grey" stroke-width="2" points="523.578,-99.5451 513.009,-100.287 521.734,-106.298 523.578,-99.5451"/>
</g>
<!-- 26&#45;&gt;27 -->
<g id="edge77" class="edge"><title>26&#45;&gt;27</title>
<path fill="none" stroke="grey" stroke-width="2" d="M967.348,-227.95C945.826,-224.533 916.703,-219.942 891,-216 781.002,-199.132 651.717,-180.006 583.582,-169.982"/>
<polygon fill="grey" stroke="grey" stroke-width="2" points="583.987,-166.503 573.584,-168.511 582.968,-173.429 583.987,-166.503"/>
</g>
<!-- 27&#45;&gt;12 -->
<g id="edge35" class="edge"><title>27&#45;&gt;12</title>
<path fill="none" stroke="grey" stroke-width="2" d="M521.91,-143.697C515.077,-135.305 506.743,-125.07 499.244,-115.861"/>
<polygon fill="grey" stroke="grey" stroke-width="2" points="501.956,-113.649 492.928,-108.104 496.528,-118.069 501.956,-113.649"/>
</g>
<!-- 28 -->
<g id="node29" class="node"><title>28</title>
<path fill="none" stroke="#5673d8" stroke-width="2" d="M673.5,-396C673.5,-396 618.5,-396 618.5,-396 612.5,-396 606.5,-390 606.5,-384 606.5,-384 606.5,-372 606.5,-372 606.5,-366 612.5,-360 618.5,-360 618.5,-360 673.5,-360 673.5,-360 679.5,-360 685.5,-366 685.5,-372 685.5,-372 685.5,-384 685.5,-384 685.5,-390 679.5,-396 673.5,-396"/>
<text text-anchor="middle" x="646" y="-375.5" font-family="sans" font-size="10.00">control_HWP</text>
</g>
<!-- 28&#45;&gt;13 -->
<g id="edge37" class="edge"><title>28&#45;&gt;13</title>
<path fill="none" stroke="grey" stroke-width="2" d="M607.401,-359.871C546.02,-332.634 426.815,-279.737 365.114,-252.357"/>
<polygon fill="grey" stroke="grey" stroke-width="2" points="366.282,-249.046 355.722,-248.189 363.443,-255.445 366.282,-249.046"/>
</g>
<!-- 38 -->
<g id="node39" class="node"><title>38</title>
<path fill="none" stroke="#b6d856" stroke-width="2" d="M703,-324C703,-324 663,-324 663,-324 657,-324 651,-318 651,-312 651,-312 651,-300 651,-300 651,-294 657,-288 663,-288 663,-288 703,-288 703,-288 709,-288 715,-294 715,-300 715,-300 715,-312 715,-312 715,-318 709,-324 703,-324"/>
<text text-anchor="middle" x="683" y="-303.5" font-family="sans" font-size="10.00">plot_HWP</text>
</g>
<!-- 28&#45;&gt;38 -->
<g id="edge92" class="edge"><title>28&#45;&gt;38</title>
<path fill="none" stroke="grey" stroke-width="2" d="M655.146,-359.697C659.403,-351.644 664.556,-341.894 669.266,-332.982"/>
<polygon fill="grey" stroke="grey" stroke-width="2" points="672.38,-334.581 673.959,-324.104 666.192,-331.31 672.38,-334.581"/>
</g>
<!-- 29 -->
<g id="node30" class="node"><title>29</title>
<path fill="none" stroke="#56a2d8" stroke-width="2" d="M1851,-2268C1851,-2268 1757,-2268 1757,-2268 1751,-2268 1745,-2262 1745,-2256 1745,-2256 1745,-2244 1745,-2244 1745,-2238 1751,-2232 1757,-2232 1757,-2232 1851,-2232 1851,-2232 1857,-2232 1863,-2238 1863,-2244 1863,-2244 1863,-2256 1863,-2256 1863,-2262 1857,-2268 1851,-2268"/>
<text text-anchor="middle" x="1804" y="-2247.5" font-family="sans" font-size="10.00">merge_sample_peds</text>
</g>
<!-- 29&#45;&gt;15 -->
<g id="edge39" class="edge"><title>29&#45;&gt;15</title>
<path fill="none" stroke="grey" stroke-width="2" d="M1863.33,-2235.53C1892.76,-2227.11 1927.91,-2214.32 1956,-2196 1982.17,-2178.93 2005.8,-2151.89 2021.09,-2132.09"/>
<polygon fill="grey" stroke="grey" stroke-width="2" points="2023.89,-2134.18 2027.12,-2124.09 2018.3,-2129.97 2023.89,-2134.18"/>
</g>
<!-- 29&#45;&gt;18 -->
<g id="edge45" class="edge"><title>29&#45;&gt;18</title>
<path fill="none" stroke="grey" stroke-width="2" d="M1744.89,-2247.08C1526.83,-2239.21 780,-2205.1 780,-2107 780,-2107 780,-2107 780,-1745 780,-1689.2 724.501,-1648.09 682.174,-1624.85"/>
<polygon fill="grey" stroke="grey" stroke-width="2" points="683.57,-1621.63 673.097,-1620.03 680.284,-1627.81 683.57,-1621.63"/>
</g>
<!-- 29&#45;&gt;26 -->
<g id="edge62" class="edge"><title>29&#45;&gt;26</title>
<path fill="none" stroke="grey" stroke-width="2" d="M1839.54,-2231.87C1880.43,-2209.39 1942,-2165.78 1942,-2107 1942,-2107 1942,-2107 1942,-593 1942,-445.288 1834.95,-430.234 1705,-360 1625.56,-317.062 1602.88,-308.789 1515,-288 1342.15,-247.111 1129.36,-237.768 1040.77,-235.632"/>
<polygon fill="grey" stroke="grey" stroke-width="2" points="1040.66,-232.129 1030.59,-235.406 1040.51,-239.128 1040.66,-232.129"/>
</g>
<!-- 33 -->
<g id="node34" class="node"><title>33</title>
<path fill="none" stroke="#5692d8" stroke-width="2" d="M1764,-2196C1764,-2196 1690,-2196 1690,-2196 1684,-2196 1678,-2190 1678,-2184 1678,-2184 1678,-2172 1678,-2172 1678,-2166 1684,-2160 1690,-2160 1690,-2160 1764,-2160 1764,-2160 1770,-2160 1776,-2166 1776,-2172 1776,-2172 1776,-2184 1776,-2184 1776,-2190 1770,-2196 1764,-2196"/>
<text text-anchor="middle" x="1727" y="-2175.5" font-family="sans" font-size="10.00">filter_call_rate_1</text>
</g>
<!-- 29&#45;&gt;33 -->
<g id="edge85" class="edge"><title>29&#45;&gt;33</title>
<path fill="none" stroke="grey" stroke-width="2" d="M1784.97,-2231.7C1775.46,-2223.05 1763.79,-2212.45 1753.43,-2203.03"/>
<polygon fill="grey" stroke="grey" stroke-width="2" points="1755.57,-2200.24 1745.81,-2196.1 1750.86,-2205.42 1755.57,-2200.24"/>
</g>
<!-- 29&#45;&gt;41 -->
<g id="edge98" class="edge"><title>29&#45;&gt;41</title>
<path fill="none" stroke="grey" stroke-width="2" d="M1804,-2231.95C1804,-2205.29 1804,-2152.11 1804,-2107 1804,-2107 1804,-2107 1804,-1313 1804,-1153.77 1790,-1114.23 1790,-955 1790,-955 1790,-955 1790,-737 1790,-679.423 1636.75,-604.982 1587,-576 1564.93,-563.141 1539.14,-551.975 1516.31,-543.251"/>
<polygon fill="grey" stroke="grey" stroke-width="2" points="1517.31,-539.891 1506.72,-539.664 1514.86,-546.447 1517.31,-539.891"/>
</g>
<!-- 30 -->
<g id="node31" class="node"><title>30</title>
<path fill="none" stroke="#569ad8" stroke-width="2" d="M1513,-2124C1513,-2124 1439,-2124 1439,-2124 1433,-2124 1427,-2118 1427,-2112 1427,-2112 1427,-2100 1427,-2100 1427,-2094 1433,-2088 1439,-2088 1439,-2088 1513,-2088 1513,-2088 1519,-2088 1525,-2094 1525,-2100 1525,-2100 1525,-2112 1525,-2112 1525,-2118 1519,-2124 1513,-2124"/>
<text text-anchor="middle" x="1476" y="-2103.5" font-family="sans" font-size="10.00">filter_call_rate_2</text>
</g>
<!-- 30&#45;&gt;18 -->
<g id="edge46" class="edge"><title>30&#45;&gt;18</title>
<path fill="none" stroke="grey" stroke-width="2" d="M1426.92,-2095.92C1329.92,-2076.58 1123,-2027.74 1123,-1963 1123,-1963 1123,-1963 1123,-1745 1123,-1702.42 845.507,-1643.31 709.023,-1616.81"/>
<polygon fill="grey" stroke="grey" stroke-width="2" points="709.531,-1613.35 699.048,-1614.89 708.203,-1620.22 709.531,-1613.35"/>
</g>
<!-- 30&#45;&gt;26 -->
<g id="edge63" class="edge"><title>30&#45;&gt;26</title>
<path fill="none" stroke="grey" stroke-width="2" d="M1525.1,-2095.19C1588.28,-2079.38 1690,-2041.7 1690,-1963 1690,-1963 1690,-1963 1690,-1241 1690,-1099.87 1828,-1096.13 1828,-955 1828,-955 1828,-955 1828,-737 1828,-661.092 1815.95,-637.166 1771,-576 1644.66,-404.097 1584.34,-369.034 1387,-288 1324.83,-262.471 1127.26,-244.762 1040.51,-238.021"/>
<polygon fill="grey" stroke="grey" stroke-width="2" points="1040.74,-234.528 1030.5,-237.254 1040.2,-241.508 1040.74,-234.528"/>
</g>
<!-- 31 -->
<g id="node32" class="node"><title>31</title>
<path fill="none" stroke="#d8a456" stroke-width="2" d="M1073,-1980C1073,-1980 999,-1980 999,-1980 993,-1980 987,-1974 987,-1968 987,-1968 987,-1956 987,-1956 987,-1950 993,-1944 999,-1944 999,-1944 1073,-1944 1073,-1944 1079,-1944 1085,-1950 1085,-1956 1085,-1956 1085,-1968 1085,-1968 1085,-1974 1079,-1980 1073,-1980"/>
<text text-anchor="middle" x="1036" y="-1959.5" font-family="sans" font-size="10.00">extract_ld_prune</text>
</g>
<!-- 30&#45;&gt;31 -->
<g id="edge82" class="edge"><title>30&#45;&gt;31</title>
<path fill="none" stroke="grey" stroke-width="2" d="M1426.71,-2102.28C1339.55,-2096.77 1162.41,-2082.13 1109,-2052 1083.04,-2037.35 1062.55,-2009.56 1049.97,-1988.91"/>
<polygon fill="grey" stroke="grey" stroke-width="2" points="1052.82,-1986.87 1044.75,-1980 1046.78,-1990.4 1052.82,-1986.87"/>
</g>
<!-- 35 -->
<g id="node36" class="node"><title>35</title>
<path fill="none" stroke="#56d86b" stroke-width="2" d="M1445,-1260C1445,-1260 1373,-1260 1373,-1260 1367,-1260 1361,-1254 1361,-1248 1361,-1248 1361,-1236 1361,-1236 1361,-1230 1367,-1224 1373,-1224 1373,-1224 1445,-1224 1445,-1224 1451,-1224 1457,-1230 1457,-1236 1457,-1236 1457,-1248 1457,-1248 1457,-1254 1451,-1260 1445,-1260"/>
<text text-anchor="middle" x="1409" y="-1239.5" font-family="sans" font-size="10.00">remove_failures</text>
</g>
<!-- 30&#45;&gt;35 -->
<g id="edge88" class="edge"><title>30&#45;&gt;35</title>
<path fill="none" stroke="grey" stroke-width="2" d="M1462.85,-2087.69C1444.65,-2061.95 1414,-2011.42 1414,-1963 1414,-1963 1414,-1963 1414,-1385 1414,-1344.97 1411.99,-1298.63 1410.52,-1270.07"/>
<polygon fill="grey" stroke="grey" stroke-width="2" points="1414.01,-1269.84 1409.99,-1260.04 1407.02,-1270.21 1414.01,-1269.84"/>
</g>
<!-- 30&#45;&gt;41 -->
<g id="edge99" class="edge"><title>30&#45;&gt;41</title>
<path fill="none" stroke="grey" stroke-width="2" d="M1525.03,-2089.22C1577.1,-2069.02 1652,-2028.57 1652,-1963 1652,-1963 1652,-1963 1652,-1241 1652,-973.422 1601.88,-910.098 1548,-648 1541.38,-615.794 1549.4,-603.253 1531,-576 1522.89,-563.983 1511.08,-553.817 1499.22,-545.702"/>
<polygon fill="grey" stroke="grey" stroke-width="2" points="1500.93,-542.639 1490.63,-540.158 1497.13,-548.521 1500.93,-542.639"/>
</g>
<!-- 50 -->
<g id="node51" class="node"><title>50</title>
<path fill="none" stroke="#d86e56" stroke-width="2" d="M1045,-2052C1045,-2052 981,-2052 981,-2052 975,-2052 969,-2046 969,-2040 969,-2040 969,-2028 969,-2028 969,-2022 975,-2016 981,-2016 981,-2016 1045,-2016 1045,-2016 1051,-2016 1057,-2022 1057,-2028 1057,-2028 1057,-2040 1057,-2040 1057,-2046 1051,-2052 1045,-2052"/>
<text text-anchor="middle" x="1013" y="-2031.5" font-family="sans" font-size="10.00">plink_ld_prune</text>
</g>
<!-- 30&#45;&gt;50 -->
<g id="edge120" class="edge"><title>30&#45;&gt;50</title>
<path fill="none" stroke="grey" stroke-width="2" d="M1426.96,-2101.05C1350.38,-2094.34 1197.98,-2078.75 1071,-2052 1069.73,-2051.73 1068.45,-2051.45 1067.15,-2051.16"/>
<polygon fill="grey" stroke="grey" stroke-width="2" points="1067.7,-2047.69 1057.15,-2048.71 1066.03,-2054.49 1067.7,-2047.69"/>
</g>
<!-- 30&#45;&gt;52 -->
<g id="edge123" class="edge"><title>30&#45;&gt;52</title>
<path fill="none" stroke="grey" stroke-width="2" d="M1489.15,-2087.69C1507.35,-2061.95 1538,-2011.42 1538,-1963 1538,-1963 1538,-1963 1538,-1457 1538,-1415.29 1520.8,-1369.54 1508.16,-1341.54"/>
<polygon fill="grey" stroke="grey" stroke-width="2" points="1511.3,-1340.01 1503.91,-1332.42 1504.95,-1342.96 1511.3,-1340.01"/>
</g>
<!-- 31&#45;&gt;19 -->
<g id="edge48" class="edge"><title>31&#45;&gt;19</title>
<path fill="none" stroke="grey" stroke-width="2" d="M1066.9,-1943.82C1103.91,-1920.69 1161,-1875.82 1161,-1819 1161,-1819 1161,-1819 1161,-1745 1161,-1704.03 1167.43,-1683.43 1137,-1656 1095.2,-1618.33 926.978,-1607.31 848.584,-1604.18"/>
<polygon fill="grey" stroke="grey" stroke-width="2" points="848.711,-1600.69 838.587,-1603.81 848.449,-1607.68 848.711,-1600.69"/>
</g>
<!-- 61 -->
<g id="node62" class="node"><title>61</title>
<path fill="none" stroke="#56d8b1" stroke-width="2" d="M1009.5,-1836C1009.5,-1836 918.5,-1836 918.5,-1836 912.5,-1836 906.5,-1830 906.5,-1824 906.5,-1824 906.5,-1812 906.5,-1812 906.5,-1806 912.5,-1800 918.5,-1800 918.5,-1800 1009.5,-1800 1009.5,-1800 1015.5,-1800 1021.5,-1806 1021.5,-1812 1021.5,-1812 1021.5,-1824 1021.5,-1824 1021.5,-1830 1015.5,-1836 1009.5,-1836"/>
<text text-anchor="middle" x="964" y="-1815.5" font-family="sans" font-size="10.00">remove_not_thousG</text>
</g>
<!-- 31&#45;&gt;61 -->
<g id="edge138" class="edge"><title>31&#45;&gt;61</title>
<path fill="none" stroke="grey" stroke-width="2" d="M1013.6,-1943.87C1002.77,-1934.43 990.519,-1921.83 983,-1908 972.593,-1888.85 967.885,-1864.5 965.756,-1846.11"/>
<polygon fill="grey" stroke="grey" stroke-width="2" points="969.229,-1845.67 964.776,-1836.06 962.262,-1846.35 969.229,-1845.67"/>
</g>
<!-- 63 -->
<g id="node64" class="node"><title>63</title>
<path fill="none" stroke="#56d85b" stroke-width="2" d="M1067.5,-1908C1067.5,-1908 1004.5,-1908 1004.5,-1908 998.5,-1908 992.5,-1902 992.5,-1896 992.5,-1896 992.5,-1884 992.5,-1884 992.5,-1878 998.5,-1872 1004.5,-1872 1004.5,-1872 1067.5,-1872 1067.5,-1872 1073.5,-1872 1079.5,-1878 1079.5,-1884 1079.5,-1884 1079.5,-1896 1079.5,-1896 1079.5,-1902 1073.5,-1908 1067.5,-1908"/>
<text text-anchor="middle" x="1036" y="-1887.5" font-family="sans" font-size="10.00">thousG_match</text>
</g>
<!-- 31&#45;&gt;63 -->
<g id="edge140" class="edge"><title>31&#45;&gt;63</title>
<path fill="none" stroke="grey" stroke-width="2" d="M1036,-1943.7C1036,-1935.98 1036,-1926.71 1036,-1918.11"/>
<polygon fill="grey" stroke="grey" stroke-width="2" points="1039.5,-1918.1 1036,-1908.1 1032.5,-1918.1 1039.5,-1918.1"/>
</g>
<!-- 32 -->
<g id="node33" class="node"><title>32</title>
<path fill="none" stroke="#ced856" stroke-width="2" d="M484,-1692C484,-1692 422,-1692 422,-1692 416,-1692 410,-1686 410,-1680 410,-1680 410,-1668 410,-1668 410,-1662 416,-1656 422,-1656 422,-1656 484,-1656 484,-1656 490,-1656 496,-1662 496,-1668 496,-1668 496,-1680 496,-1680 496,-1686 490,-1692 484,-1692"/>
<text text-anchor="middle" x="453" y="-1671.5" font-family="sans" font-size="10.00">convert_eigen</text>
</g>
<!-- 32&#45;&gt;20 -->
<g id="edge49" class="edge"><title>32&#45;&gt;20</title>
<path fill="none" stroke="grey" stroke-width="2" d="M450.281,-1655.7C449.069,-1647.98 447.612,-1638.71 446.261,-1630.11"/>
<polygon fill="grey" stroke="grey" stroke-width="2" points="449.698,-1629.44 444.688,-1620.1 442.783,-1630.53 449.698,-1629.44"/>
</g>
<!-- 33&#45;&gt;18 -->
<g id="edge47" class="edge"><title>33&#45;&gt;18</title>
<path fill="none" stroke="grey" stroke-width="2" d="M1677.94,-2174.39C1491.57,-2163.85 838,-2120.77 838,-2035 838,-2035 838,-2035 838,-1745 838,-1700.87 827.27,-1684.99 794,-1656 770.249,-1635.31 738.15,-1622.64 709.012,-1614.91"/>
<polygon fill="grey" stroke="grey" stroke-width="2" points="709.811,-1611.5 699.261,-1612.47 708.114,-1618.29 709.811,-1611.5"/>
</g>
<!-- 33&#45;&gt;26 -->
<g id="edge64" class="edge"><title>33&#45;&gt;26</title>
<path fill="none" stroke="grey" stroke-width="2" d="M1734.89,-2159.93C1746.29,-2133.67 1766,-2081.53 1766,-2035 1766,-2035 1766,-2035 1766,-1313 1766,-1147.8 1866,-1120.2 1866,-955 1866,-955 1866,-955 1866,-665 1866,-412.837 1683.73,-359.771 1442,-288 1298.98,-245.538 1120.41,-236.969 1040.74,-235.329"/>
<polygon fill="grey" stroke="grey" stroke-width="2" points="1040.68,-231.827 1030.62,-235.148 1040.55,-238.826 1040.68,-231.827"/>
</g>
<!-- 33&#45;&gt;30 -->
<g id="edge81" class="edge"><title>33&#45;&gt;30</title>
<path fill="none" stroke="grey" stroke-width="2" d="M1677.71,-2163.25C1636.78,-2151.84 1578.45,-2135.57 1535.04,-2123.46"/>
<polygon fill="grey" stroke="grey" stroke-width="2" points="1535.75,-2120.03 1525.18,-2120.71 1533.87,-2126.77 1535.75,-2120.03"/>
</g>
<!-- 33&#45;&gt;41 -->
<g id="edge100" class="edge"><title>33&#45;&gt;41</title>
<path fill="none" stroke="grey" stroke-width="2" d="M1727.2,-2159.95C1727.49,-2133.29 1728,-2080.12 1728,-2035 1728,-2035 1728,-2035 1728,-1241 1728,-1113.74 1714,-1082.26 1714,-955 1714,-955 1714,-955 1714,-809 1714,-682.874 1645.66,-660.47 1552,-576 1538.41,-563.743 1521.49,-553.217 1505.65,-544.852"/>
<polygon fill="grey" stroke="grey" stroke-width="2" points="1506.99,-541.604 1496.49,-540.179 1503.81,-547.84 1506.99,-541.604"/>
</g>
<!-- 34 -->
<g id="node35" class="node"><title>34</title>
<path fill="none" stroke="#56b1d8" stroke-width="2" d="M1195,-1188C1195,-1188 1049,-1188 1049,-1188 1043,-1188 1037,-1182 1037,-1176 1037,-1176 1037,-1164 1037,-1164 1037,-1158 1043,-1152 1049,-1152 1049,-1152 1195,-1152 1195,-1152 1201,-1152 1207,-1158 1207,-1164 1207,-1164 1207,-1176 1207,-1176 1207,-1182 1201,-1188 1195,-1188"/>
<text text-anchor="middle" x="1122" y="-1167.5" font-family="sans" font-size="10.00">qc_stats_after_remove_failures</text>
</g>
<!-- 34&#45;&gt;24 -->
<g id="edge55" class="edge"><title>34&#45;&gt;24</title>
<path fill="none" stroke="grey" stroke-width="2" d="M1098.52,-1151.7C1086.44,-1142.8 1071.55,-1131.82 1058.48,-1122.2"/>
<polygon fill="grey" stroke="grey" stroke-width="2" points="1060.34,-1119.22 1050.21,-1116.1 1056.19,-1124.85 1060.34,-1119.22"/>
</g>
<!-- 35&#45;&gt;25 -->
<g id="edge57" class="edge"><title>35&#45;&gt;25</title>
<path fill="none" stroke="grey" stroke-width="2" d="M1380.54,-1223.86C1334.21,-1194.08 1244.1,-1127.84 1209,-1044 1202.82,-1029.24 1203.65,-1023.08 1209,-1008 1212.66,-997.675 1219.29,-987.896 1226.26,-979.614"/>
<polygon fill="grey" stroke="grey" stroke-width="2" points="1228.87,-981.938 1232.96,-972.163 1223.67,-977.256 1228.87,-981.938"/>
</g>
<!-- 35&#45;&gt;34 -->
<g id="edge86" class="edge"><title>35&#45;&gt;34</title>
<path fill="none" stroke="grey" stroke-width="2" d="M1360.96,-1229.28C1317.49,-1218.68 1252.62,-1202.86 1201.43,-1190.37"/>
<polygon fill="grey" stroke="grey" stroke-width="2" points="1202.26,-1186.97 1191.72,-1188 1200.6,-1193.77 1202.26,-1186.97"/>
</g>
<!-- 53 -->
<g id="node54" class="node"><title>53</title>
<path fill="none" stroke="#d8b456" stroke-width="2" d="M1446,-1116C1446,-1116 1372,-1116 1372,-1116 1366,-1116 1360,-1110 1360,-1104 1360,-1104 1360,-1092 1360,-1092 1360,-1086 1366,-1080 1372,-1080 1372,-1080 1446,-1080 1446,-1080 1452,-1080 1458,-1086 1458,-1092 1458,-1092 1458,-1104 1458,-1104 1458,-1110 1452,-1116 1446,-1116"/>
<text text-anchor="middle" x="1409" y="-1095.5" font-family="sans" font-size="10.00">internal_controls</text>
</g>
<!-- 35&#45;&gt;53 -->
<g id="edge124" class="edge"><title>35&#45;&gt;53</title>
<path fill="none" stroke="grey" stroke-width="2" d="M1409,-1223.87C1409,-1199.67 1409,-1155.21 1409,-1126.39"/>
<polygon fill="grey" stroke="grey" stroke-width="2" points="1412.5,-1126.19 1409,-1116.19 1405.5,-1126.19 1412.5,-1126.19"/>
</g>
<!-- 36&#45;&gt;25 -->
<g id="edge56" class="edge"><title>36&#45;&gt;25</title>
<path fill="none" stroke="grey" stroke-width="2" d="M1273.83,-1007.7C1270.57,-999.813 1266.63,-990.304 1263,-981.546"/>
<polygon fill="grey" stroke="grey" stroke-width="2" points="1266.15,-980.003 1259.09,-972.104 1259.68,-982.683 1266.15,-980.003"/>
</g>
<!-- 37 -->
<g id="node38" class="node"><title>37</title>
<path fill="none" stroke="#d86656" stroke-width="2" d="M987,-324C987,-324 955,-324 955,-324 949,-324 943,-318 943,-312 943,-312 943,-300 943,-300 943,-294 949,-288 955,-288 955,-288 987,-288 987,-288 993,-288 999,-294 999,-300 999,-300 999,-312 999,-312 999,-318 993,-324 987,-324"/>
<text text-anchor="middle" x="971" y="-303.5" font-family="sans" font-size="10.00">plot_het</text>
</g>
<!-- 37&#45;&gt;26 -->
<g id="edge59" class="edge"><title>37&#45;&gt;26</title>
<path fill="none" stroke="grey" stroke-width="2" d="M977.921,-287.697C981.075,-279.813 984.878,-270.304 988.381,-261.546"/>
<polygon fill="grey" stroke="grey" stroke-width="2" points="991.694,-262.689 992.158,-252.104 985.195,-260.089 991.694,-262.689"/>
</g>
<!-- 38&#45;&gt;26 -->
<g id="edge58" class="edge"><title>38&#45;&gt;26</title>
<path fill="none" stroke="grey" stroke-width="2" d="M715.13,-294.482C722.597,-292.201 730.544,-289.904 738,-288 814.699,-268.411 905.543,-251.319 957.309,-242.145"/>
<polygon fill="grey" stroke="grey" stroke-width="2" points="958.192,-245.543 967.434,-240.363 956.979,-238.649 958.192,-245.543"/>
</g>
<!-- 39 -->
<g id="node40" class="node"><title>39</title>
<path fill="none" stroke="#68d856" stroke-width="2" d="M793,-324C793,-324 759,-324 759,-324 753,-324 747,-318 747,-312 747,-312 747,-300 747,-300 747,-294 753,-288 759,-288 759,-288 793,-288 793,-288 799,-288 805,-294 805,-300 805,-300 805,-312 805,-312 805,-318 799,-324 793,-324"/>
<text text-anchor="middle" x="776" y="-303.5" font-family="sans" font-size="10.00">plot_pca</text>
</g>
<!-- 39&#45;&gt;26 -->
<g id="edge68" class="edge"><title>39&#45;&gt;26</title>
<path fill="none" stroke="grey" stroke-width="2" d="M805.217,-294.658C811.714,-292.416 818.579,-290.091 825,-288 870.093,-273.316 922.159,-257.621 957.499,-247.155"/>
<polygon fill="grey" stroke="grey" stroke-width="2" points="958.854,-250.404 967.453,-244.214 956.871,-243.691 958.854,-250.404"/>
</g>
<!-- 40 -->
<g id="node41" class="node"><title>40</title>
<path fill="none" stroke="#d8bc56" stroke-width="2" d="M1033,-756C1033,-756 999,-756 999,-756 993,-756 987,-750 987,-744 987,-744 987,-732 987,-732 987,-726 993,-720 999,-720 999,-720 1033,-720 1033,-720 1039,-720 1045,-726 1045,-732 1045,-732 1045,-744 1045,-744 1045,-750 1039,-756 1033,-756"/>
<text text-anchor="middle" x="1016" y="-735.5" font-family="sans" font-size="10.00">plot_sex</text>
</g>
<!-- 40&#45;&gt;26 -->
<g id="edge69" class="edge"><title>40&#45;&gt;26</title>
<path fill="none" stroke="grey" stroke-width="2" d="M998.589,-719.907C965.765,-685.764 898,-605.307 898,-523 898,-523 898,-523 898,-449 898,-375.677 895.095,-350.15 934,-288 941.132,-276.606 951.574,-266.537 962.01,-258.32"/>
<polygon fill="grey" stroke="grey" stroke-width="2" points="964.385,-260.915 970.316,-252.136 960.204,-255.301 964.385,-260.915"/>
</g>
<!-- 41&#45;&gt;26 -->
<g id="edge61" class="edge"><title>41&#45;&gt;26</title>
<path fill="none" stroke="grey" stroke-width="2" d="M1454.23,-503.821C1448.71,-459.921 1427.66,-343.204 1356,-288 1307.39,-250.551 1124.17,-239.381 1040.79,-236.2"/>
<polygon fill="grey" stroke="grey" stroke-width="2" points="1040.77,-232.698 1030.65,-235.834 1040.52,-239.693 1040.77,-232.698"/>
</g>
<!-- 42 -->
<g id="node43" class="node"><title>42</title>
<path fill="none" stroke="#d8c356" stroke-width="2" d="M1035.5,-468C1035.5,-468 976.5,-468 976.5,-468 970.5,-468 964.5,-462 964.5,-456 964.5,-456 964.5,-444 964.5,-444 964.5,-438 970.5,-432 976.5,-432 976.5,-432 1035.5,-432 1035.5,-432 1041.5,-432 1047.5,-438 1047.5,-444 1047.5,-444 1047.5,-456 1047.5,-456 1047.5,-462 1041.5,-468 1035.5,-468"/>
<text text-anchor="middle" x="1006" y="-447.5" font-family="sans" font-size="10.00">ancestry_plot</text>
</g>
<!-- 42&#45;&gt;26 -->
<g id="edge70" class="edge"><title>42&#45;&gt;26</title>
<path fill="none" stroke="grey" stroke-width="2" d="M1007.31,-431.569C1009.3,-401.986 1012.39,-340.088 1008,-288 1007.28,-279.499 1005.93,-270.312 1004.49,-262.012"/>
<polygon fill="grey" stroke="grey" stroke-width="2" points="1007.91,-261.289 1002.65,-252.092 1001.03,-262.562 1007.91,-261.289"/>
</g>
<!-- 43&#45;&gt;26 -->
<g id="edge67" class="edge"><title>43&#45;&gt;26</title>
<path fill="none" stroke="grey" stroke-width="2" d="M1034.65,-791.892C1060.37,-780.503 1090.65,-765.873 1101,-756 1127.49,-730.733 1131.82,-719.436 1141,-684 1145.01,-668.512 1149.59,-661.499 1141,-648 1120.72,-616.128 1084.98,-643.413 1064,-612 1019.52,-545.412 1066.77,-511.352 1056,-432 1047.17,-366.937 1043.98,-350.217 1023,-288 1020.03,-279.194 1016.1,-269.873 1012.27,-261.543"/>
<polygon fill="grey" stroke="grey" stroke-width="2" points="1015.34,-259.852 1007.9,-252.312 1009.02,-262.847 1015.34,-259.852"/>
</g>
<!-- 43&#45;&gt;27 -->
<g id="edge75" class="edge"><title>43&#45;&gt;27</title>
<path fill="none" stroke="grey" stroke-width="2" d="M949.806,-805.899C827.927,-796.143 496,-760.95 496,-667 496,-667 496,-667 496,-377 496,-340.819 518.372,-239.066 529.653,-190.054"/>
<polygon fill="grey" stroke="grey" stroke-width="2" points="533.097,-190.695 531.944,-180.163 526.278,-189.116 533.097,-190.695"/>
</g>
<!-- 43&#45;&gt;42 -->
<g id="edge107" class="edge"><title>43&#45;&gt;42</title>
<path fill="none" stroke="grey" stroke-width="2" d="M1022.79,-791.934C1054.71,-771.11 1104.27,-732.593 1124,-684 1130.02,-669.175 1133.16,-661.12 1124,-648 1097.44,-609.951 1054.86,-648.337 1026,-612 995.521,-573.621 997.235,-513.036 1001.46,-478.161"/>
<polygon fill="grey" stroke="grey" stroke-width="2" points="1004.93,-478.598 1002.82,-468.216 997.997,-477.65 1004.93,-478.598"/>
</g>
<!-- 43&#45;&gt;59 -->
<g id="edge134" class="edge"><title>43&#45;&gt;59</title>
<path fill="none" stroke="grey" stroke-width="2" d="M949.887,-795.916C912.834,-784.925 859.517,-769.111 818.483,-756.94"/>
<polygon fill="grey" stroke="grey" stroke-width="2" points="819.448,-753.576 808.866,-754.087 817.458,-760.287 819.448,-753.576"/>
</g>
<!-- 44&#45;&gt;26 -->
<g id="edge60" class="edge"><title>44&#45;&gt;26</title>
<path fill="none" stroke="grey" stroke-width="2" d="M981.051,-1157.56C1085.53,-1132.28 1326.13,-1071.71 1352,-1044 1379.66,-1014.36 1372,-995.542 1372,-955 1372,-955 1372,-955 1372,-737 1372,-640.959 1342,-619.041 1342,-523 1342,-523 1342,-523 1342,-377 1342,-312.459 1132.06,-261.991 1040.67,-243.08"/>
<polygon fill="grey" stroke="grey" stroke-width="2" points="1041.15,-239.606 1030.65,-241.035 1039.75,-246.464 1041.15,-239.606"/>
</g>
<!-- 45&#45;&gt;26 -->
<g id="edge71" class="edge"><title>45&#45;&gt;26</title>
<path fill="none" stroke="grey" stroke-width="2" d="M995.214,-935.983C1025.66,-914.239 1076.56,-873.878 1107,-828 1144.54,-771.424 1146.5,-750.914 1158,-684 1160.71,-668.231 1165.93,-661.894 1158,-648 1142.39,-620.662 1114.46,-638.196 1097,-612 1093.08,-606.119 1063.39,-366.929 1062,-360 1055.49,-327.551 1058.15,-317.425 1043,-288 1037.86,-278.009 1030.56,-268.211 1023.38,-259.811"/>
<polygon fill="grey" stroke="grey" stroke-width="2" points="1025.89,-257.357 1016.62,-252.226 1020.66,-262.018 1025.89,-257.357"/>
</g>
<!-- 45&#45;&gt;27 -->
<g id="edge78" class="edge"><title>45&#45;&gt;27</title>
<path fill="none" stroke="grey" stroke-width="2" d="M926.786,-935.897C905.784,-926.675 880.68,-914.26 860,-900 840.848,-886.793 841.48,-876.719 822,-864 752.954,-818.916 728.471,-820.254 651,-792 600.286,-773.504 580.176,-785.549 535,-756 491.227,-727.369 458,-719.305 458,-667 458,-667 458,-667 458,-377 458,-305.43 496.987,-228.093 519.835,-188.918"/>
<polygon fill="grey" stroke="grey" stroke-width="2" points="522.884,-190.637 524.99,-180.254 516.868,-187.058 522.884,-190.637"/>
</g>
<!-- 46 -->
<g id="node47" class="node"><title>46</title>
<path fill="none" stroke="#8fd856" stroke-width="2" d="M787,-396C787,-396 755,-396 755,-396 749,-396 743,-390 743,-384 743,-384 743,-372 743,-372 743,-366 749,-360 755,-360 755,-360 787,-360 787,-360 793,-360 799,-366 799,-372 799,-372 799,-384 799,-384 799,-390 793,-396 787,-396"/>
<text text-anchor="middle" x="771" y="-375.5" font-family="sans" font-size="10.00">pca_csv</text>
</g>
<!-- 46&#45;&gt;27 -->
<g id="edge74" class="edge"><title>46&#45;&gt;27</title>
<path fill="none" stroke="grey" stroke-width="2" d="M742.797,-370.623C714.814,-363.179 671.898,-348.635 642,-324 596.673,-286.652 563.676,-224.846 547.406,-189.668"/>
<polygon fill="grey" stroke="grey" stroke-width="2" points="550.57,-188.169 543.265,-180.495 544.19,-191.049 550.57,-188.169"/>
</g>
<!-- 46&#45;&gt;39 -->
<g id="edge93" class="edge"><title>46&#45;&gt;39</title>
<path fill="none" stroke="grey" stroke-width="2" d="M772.236,-359.697C772.787,-351.983 773.449,-342.712 774.063,-334.112"/>
<polygon fill="grey" stroke="grey" stroke-width="2" points="777.557,-334.328 774.778,-324.104 770.575,-333.83 777.557,-334.328"/>
</g>
<!-- 47 -->
<g id="node48" class="node"><title>47</title>
<path fill="none" stroke="#56d892" stroke-width="2" d="M968,-396C968,-396 938,-396 938,-396 932,-396 926,-390 926,-384 926,-384 926,-372 926,-372 926,-366 932,-360 938,-360 938,-360 968,-360 968,-360 974,-360 980,-366 980,-372 980,-372 980,-384 980,-384 980,-390 974,-396 968,-396"/>
<text text-anchor="middle" x="953" y="-375.5" font-family="sans" font-size="10.00">het_csv</text>
</g>
<!-- 47&#45;&gt;27 -->
<g id="edge79" class="edge"><title>47&#45;&gt;27</title>
<path fill="none" stroke="grey" stroke-width="2" d="M928.558,-359.788C901.306,-340.97 855.582,-310.503 814,-288 735.248,-245.382 639.147,-204.492 583.037,-181.664"/>
<polygon fill="grey" stroke="grey" stroke-width="2" points="584.294,-178.397 573.712,-177.887 581.666,-184.885 584.294,-178.397"/>
</g>
<!-- 47&#45;&gt;37 -->
<g id="edge91" class="edge"><title>47&#45;&gt;37</title>
<path fill="none" stroke="grey" stroke-width="2" d="M957.449,-359.697C959.455,-351.898 961.869,-342.509 964.101,-333.829"/>
<polygon fill="grey" stroke="grey" stroke-width="2" points="967.501,-334.661 966.602,-324.104 960.722,-332.918 967.501,-334.661"/>
</g>
<!-- 48&#45;&gt;27 -->
<g id="edge73" class="edge"><title>48&#45;&gt;27</title>
<path fill="none" stroke="grey" stroke-width="2" d="M230.802,-1007.95C230.511,-981.292 230,-928.116 230,-883 230,-883 230,-883 230,-737 230,-522.661 303.926,-476.473 406,-288 423.433,-255.811 420.442,-242.208 446,-216 458.266,-203.422 474.14,-192.773 489.133,-184.394"/>
<polygon fill="grey" stroke="grey" stroke-width="2" points="491.153,-187.282 498.314,-179.474 487.847,-181.112 491.153,-187.282"/>
</g>
<!-- 49 -->
<g id="node50" class="node"><title>49</title>
<path fill="none" stroke="#567bd8" stroke-width="2" d="M680.5,-612C680.5,-612 611.5,-612 611.5,-612 605.5,-612 599.5,-606 599.5,-600 599.5,-600 599.5,-588 599.5,-588 599.5,-582 605.5,-576 611.5,-576 611.5,-576 680.5,-576 680.5,-576 686.5,-576 692.5,-582 692.5,-588 692.5,-588 692.5,-600 692.5,-600 692.5,-606 686.5,-612 680.5,-612"/>
<text text-anchor="middle" x="646" y="-591.5" font-family="sans" font-size="10.00">subset_controls</text>
</g>
<!-- 49&#45;&gt;28 -->
<g id="edge80" class="edge"><title>49&#45;&gt;28</title>
<path fill="none" stroke="grey" stroke-width="2" d="M646,-575.849C646,-538.832 646,-451.181 646,-406.386"/>
<polygon fill="grey" stroke="grey" stroke-width="2" points="649.5,-406.232 646,-396.232 642.5,-406.232 649.5,-406.232"/>
</g>
<!-- 50&#45;&gt;31 -->
<g id="edge83" class="edge"><title>50&#45;&gt;31</title>
<path fill="none" stroke="grey" stroke-width="2" d="M1018.69,-2015.7C1021.25,-2007.9 1024.33,-1998.51 1027.18,-1989.83"/>
<polygon fill="grey" stroke="grey" stroke-width="2" points="1030.58,-1990.7 1030.38,-1980.1 1023.93,-1988.51 1030.58,-1990.7"/>
</g>
<!-- 51 -->
<g id="node52" class="node"><title>51</title>
<path fill="none" stroke="#565bd8" stroke-width="2" d="M659,-1764C659,-1764 569,-1764 569,-1764 563,-1764 557,-1758 557,-1752 557,-1752 557,-1740 557,-1740 557,-1734 563,-1728 569,-1728 569,-1728 659,-1728 659,-1728 665,-1728 671,-1734 671,-1740 671,-1740 671,-1752 671,-1752 671,-1758 665,-1764 659,-1764"/>
<text text-anchor="middle" x="614" y="-1743.5" font-family="sans" font-size="10.00">ped_for_snpweights</text>
</g>
<!-- 51&#45;&gt;32 -->
<g id="edge84" class="edge"><title>51&#45;&gt;32</title>
<path fill="none" stroke="grey" stroke-width="2" d="M574.615,-1727.88C552.605,-1718.31 524.99,-1706.3 501.64,-1696.15"/>
<polygon fill="grey" stroke="grey" stroke-width="2" points="502.823,-1692.85 492.257,-1692.07 500.032,-1699.27 502.823,-1692.85"/>
</g>
<!-- 52&#45;&gt;35 -->
<g id="edge87" class="edge"><title>52&#45;&gt;35</title>
<path fill="none" stroke="grey" stroke-width="2" d="M1473.74,-1295.7C1462.91,-1286.88 1449.58,-1276.03 1437.84,-1266.47"/>
<polygon fill="grey" stroke="grey" stroke-width="2" points="1439.98,-1263.7 1430.01,-1260.1 1435.56,-1269.13 1439.98,-1263.7"/>
</g>
<!-- 52&#45;&gt;41 -->
<g id="edge97" class="edge"><title>52&#45;&gt;41</title>
<path fill="none" stroke="grey" stroke-width="2" d="M1498.41,-1295.98C1512.13,-1225.24 1561.44,-947.431 1538,-720 1531.3,-654.97 1538.8,-633.662 1508,-576 1502.32,-565.359 1493.84,-555.416 1485.37,-547.081"/>
<polygon fill="grey" stroke="grey" stroke-width="2" points="1487.7,-544.465 1478,-540.194 1482.92,-549.579 1487.7,-544.465"/>
</g>
<!-- 53&#45;&gt;36 -->
<g id="edge90" class="edge"><title>53&#45;&gt;36</title>
<path fill="none" stroke="grey" stroke-width="2" d="M1377.69,-1079.88C1360.8,-1070.64 1339.75,-1059.13 1321.62,-1049.21"/>
<polygon fill="grey" stroke="grey" stroke-width="2" points="1322.89,-1045.92 1312.43,-1044.19 1319.53,-1052.06 1322.89,-1045.92"/>
</g>
<!-- 53&#45;&gt;41 -->
<g id="edge103" class="edge"><title>53&#45;&gt;41</title>
<path fill="none" stroke="grey" stroke-width="2" d="M1416.89,-1079.93C1428.29,-1053.67 1448,-1001.53 1448,-955 1448,-955 1448,-955 1448,-737 1448,-669.909 1451.98,-591.069 1454.32,-550.381"/>
<polygon fill="grey" stroke="grey" stroke-width="2" points="1457.83,-550.378 1454.92,-540.19 1450.84,-549.967 1457.83,-550.378"/>
</g>
<!-- 54&#45;&gt;40 -->
<g id="edge94" class="edge"><title>54&#45;&gt;40</title>
<path fill="none" stroke="grey" stroke-width="2" d="M922.04,-863.853C922.859,-844.817 926.562,-813.895 941,-792 950.216,-778.024 964.489,-766.597 978.121,-757.978"/>
<polygon fill="grey" stroke="grey" stroke-width="2" points="980.134,-760.853 986.926,-752.722 976.546,-754.842 980.134,-760.853"/>
</g>
<!-- 55&#45;&gt;41 -->
<g id="edge105" class="edge"><title>55&#45;&gt;41</title>
<path fill="none" stroke="grey" stroke-width="2" d="M969.215,-722.337C972.185,-721.538 975.129,-720.754 978,-720 1042.64,-703.027 1062.12,-709.251 1124,-684 1182.29,-660.211 1194.37,-648.039 1246,-612 1266.72,-597.537 1267.79,-588.056 1290,-576 1323.01,-558.079 1363.05,-545.074 1395.53,-536.433"/>
<polygon fill="grey" stroke="grey" stroke-width="2" points="1396.55,-539.785 1405.35,-533.891 1394.79,-533.008 1396.55,-539.785"/>
</g>
<!-- 55&#45;&gt;49 -->
<g id="edge118" class="edge"><title>55&#45;&gt;49</title>
<path fill="none" stroke="grey" stroke-width="2" d="M899.013,-719.773C877.626,-700.085 840.135,-668.009 803,-648 793.709,-642.994 743.488,-626.314 702.31,-612.987"/>
<polygon fill="grey" stroke="grey" stroke-width="2" points="703.198,-609.596 692.606,-609.855 701.047,-616.258 703.198,-609.596"/>
</g>
<!-- 64 -->
<g id="node65" class="node"><title>64</title>
<path fill="none" stroke="#d8d356" stroke-width="2" d="M819.5,-612C819.5,-612 722.5,-612 722.5,-612 716.5,-612 710.5,-606 710.5,-600 710.5,-600 710.5,-588 710.5,-588 710.5,-582 716.5,-576 722.5,-576 722.5,-576 819.5,-576 819.5,-576 825.5,-576 831.5,-582 831.5,-588 831.5,-588 831.5,-600 831.5,-600 831.5,-606 825.5,-612 819.5,-612"/>
<text text-anchor="middle" x="771" y="-591.5" font-family="sans" font-size="10.00">extract_ld_prune_pca</text>
</g>
<!-- 55&#45;&gt;64 -->
<g id="edge142" class="edge"><title>55&#45;&gt;64</title>
<path fill="none" stroke="grey" stroke-width="2" d="M921.156,-719.76C924.768,-700.355 927.303,-668.827 912,-648 895.386,-625.389 867.931,-612.421 841.64,-604.985"/>
<polygon fill="grey" stroke="grey" stroke-width="2" points="842.204,-601.516 831.646,-602.398 840.45,-608.293 842.204,-601.516"/>
</g>
<!-- 56 -->
<g id="node57" class="node"><title>56</title>
<path fill="none" stroke="#56d87b" stroke-width="2" d="M1225.5,-612C1225.5,-612 1118.5,-612 1118.5,-612 1112.5,-612 1106.5,-606 1106.5,-600 1106.5,-600 1106.5,-588 1106.5,-588 1106.5,-582 1112.5,-576 1118.5,-576 1118.5,-576 1225.5,-576 1225.5,-576 1231.5,-576 1237.5,-582 1237.5,-588 1237.5,-588 1237.5,-600 1237.5,-600 1237.5,-606 1231.5,-612 1225.5,-612"/>
<text text-anchor="middle" x="1172" y="-591.5" font-family="sans" font-size="10.00">autosomal_het_fail_list</text>
</g>
<!-- 56&#45;&gt;41 -->
<g id="edge106" class="edge"><title>56&#45;&gt;41</title>
<path fill="none" stroke="grey" stroke-width="2" d="M1237.51,-576.853C1285.13,-565.116 1349.1,-549.349 1395.51,-537.91"/>
<polygon fill="grey" stroke="grey" stroke-width="2" points="1396.55,-541.257 1405.43,-535.465 1394.88,-534.46 1396.55,-541.257"/>
</g>
<!-- 57 -->
<g id="node58" class="node"><title>57</title>
<path fill="none" stroke="#afd856" stroke-width="2" d="M790,-468C790,-468 752,-468 752,-468 746,-468 740,-462 740,-456 740,-456 740,-444 740,-444 740,-438 746,-432 752,-432 752,-432 790,-432 790,-432 796,-432 802,-438 802,-444 802,-444 802,-456 802,-456 802,-462 796,-468 790,-468"/>
<text text-anchor="middle" x="771" y="-447.5" font-family="sans" font-size="10.00">smartpca</text>
</g>
<!-- 57&#45;&gt;46 -->
<g id="edge114" class="edge"><title>57&#45;&gt;46</title>
<path fill="none" stroke="grey" stroke-width="2" d="M771,-431.697C771,-423.983 771,-414.712 771,-406.112"/>
<polygon fill="grey" stroke="grey" stroke-width="2" points="774.5,-406.104 771,-396.104 767.5,-406.104 774.5,-406.104"/>
</g>
<!-- 58 -->
<g id="node59" class="node"><title>58</title>
<path fill="none" stroke="#56d8d0" stroke-width="2" d="M1103.5,-684C1103.5,-684 1014.5,-684 1014.5,-684 1008.5,-684 1002.5,-678 1002.5,-672 1002.5,-672 1002.5,-660 1002.5,-660 1002.5,-654 1008.5,-648 1014.5,-648 1014.5,-648 1103.5,-648 1103.5,-648 1109.5,-648 1115.5,-654 1115.5,-660 1115.5,-660 1115.5,-672 1115.5,-672 1115.5,-678 1109.5,-684 1103.5,-684"/>
<text text-anchor="middle" x="1059" y="-663.5" font-family="sans" font-size="10.00">pop_autosomal_het</text>
</g>
<!-- 58&#45;&gt;47 -->
<g id="edge115" class="edge"><title>58&#45;&gt;47</title>
<path fill="none" stroke="grey" stroke-width="2" d="M1026.9,-647.965C1012.96,-639.022 997.656,-626.821 988,-612 946.141,-547.747 946.819,-452.648 950.183,-406.338"/>
<polygon fill="grey" stroke="grey" stroke-width="2" points="953.686,-406.436 951.023,-396.182 946.71,-405.859 953.686,-406.436"/>
</g>
<!-- 58&#45;&gt;56 -->
<g id="edge131" class="edge"><title>58&#45;&gt;56</title>
<path fill="none" stroke="grey" stroke-width="2" d="M1086.64,-647.876C1101.42,-638.724 1119.79,-627.342 1135.7,-617.485"/>
<polygon fill="grey" stroke="grey" stroke-width="2" points="1137.59,-620.431 1144.25,-612.19 1133.91,-614.481 1137.59,-620.431"/>
</g>
<!-- 59&#45;&gt;49 -->
<g id="edge117" class="edge"><title>59&#45;&gt;49</title>
<path fill="none" stroke="grey" stroke-width="2" d="M719.885,-719.93C704.073,-711.179 686.721,-699.142 675,-684 661.048,-665.977 653.679,-640.988 649.868,-622.076"/>
<polygon fill="grey" stroke="grey" stroke-width="2" points="653.272,-621.231 648.054,-612.01 646.383,-622.472 653.272,-621.231"/>
</g>
<!-- 59&#45;&gt;58 -->
<g id="edge133" class="edge"><title>59&#45;&gt;58</title>
<path fill="none" stroke="grey" stroke-width="2" d="M808.72,-725.205C859.193,-713.467 936.916,-695.392 992.349,-682.5"/>
<polygon fill="grey" stroke="grey" stroke-width="2" points="993.481,-685.83 1002.43,-680.156 991.895,-679.012 993.481,-685.83"/>
</g>
<!-- 60 -->
<g id="node61" class="node"><title>60</title>
<path fill="none" stroke="#56d8a2" stroke-width="2" d="M616,-684C616,-684 536,-684 536,-684 530,-684 524,-678 524,-672 524,-672 524,-660 524,-660 524,-654 530,-648 536,-648 536,-648 616,-648 616,-648 622,-648 628,-654 628,-660 628,-660 628,-672 628,-672 628,-678 622,-684 616,-684"/>
<text text-anchor="middle" x="576" y="-663.5" font-family="sans" font-size="10.00">make_control_list</text>
</g>
<!-- 59&#45;&gt;60 -->
<g id="edge136" class="edge"><title>59&#45;&gt;60</title>
<path fill="none" stroke="grey" stroke-width="2" d="M713.478,-719.876C688.266,-710.179 656.547,-697.98 629.931,-687.743"/>
<polygon fill="grey" stroke="grey" stroke-width="2" points="630.968,-684.391 620.378,-684.068 628.455,-690.925 630.968,-684.391"/>
</g>
<!-- 59&#45;&gt;64 -->
<g id="edge141" class="edge"><title>59&#45;&gt;64</title>
<path fill="none" stroke="grey" stroke-width="2" d="M778.379,-719.531C787.807,-710.092 798.006,-697.597 803,-684 808.516,-668.981 807.292,-663.414 803,-648 800.332,-638.419 795.412,-628.84 790.216,-620.513"/>
<polygon fill="grey" stroke="grey" stroke-width="2" points="793.021,-618.41 784.564,-612.028 787.195,-622.291 793.021,-618.41"/>
</g>
<!-- 65 -->
<g id="node66" class="node"><title>65</title>
<path fill="none" stroke="#56c1d8" stroke-width="2" d="M782,-684C782,-684 696,-684 696,-684 690,-684 684,-678 684,-672 684,-672 684,-660 684,-660 684,-654 690,-648 696,-648 696,-648 782,-648 782,-648 788,-648 794,-654 794,-660 794,-660 794,-672 794,-672 794,-678 788,-684 782,-684"/>
<text text-anchor="middle" x="739" y="-663.5" font-family="sans" font-size="10.00">plink_ld_prune_pca</text>
</g>
<!-- 59&#45;&gt;65 -->
<g id="edge144" class="edge"><title>59&#45;&gt;65</title>
<path fill="none" stroke="grey" stroke-width="2" d="M753.303,-719.697C751.187,-711.898 748.638,-702.509 746.282,-693.829"/>
<polygon fill="grey" stroke="grey" stroke-width="2" points="749.64,-692.838 743.643,-684.104 742.884,-694.672 749.64,-692.838"/>
</g>
<!-- 60&#45;&gt;49 -->
<g id="edge119" class="edge"><title>60&#45;&gt;49</title>
<path fill="none" stroke="grey" stroke-width="2" d="M593.303,-647.697C601.865,-639.135 612.344,-628.656 621.696,-619.304"/>
<polygon fill="grey" stroke="grey" stroke-width="2" points="624.299,-621.65 628.896,-612.104 619.35,-616.701 624.299,-621.65"/>
</g>
<!-- 61&#45;&gt;51 -->
<g id="edge121" class="edge"><title>61&#45;&gt;51</title>
<path fill="none" stroke="grey" stroke-width="2" d="M906.205,-1805.44C844.372,-1793.07 746.41,-1773.48 681.186,-1760.44"/>
<polygon fill="grey" stroke="grey" stroke-width="2" points="681.502,-1756.93 671.009,-1758.4 680.129,-1763.8 681.502,-1756.93"/>
</g>
<!-- 62 -->
<g id="node63" class="node"><title>62</title>
<path fill="none" stroke="#d88556" stroke-width="2" d="M813,-540C813,-540 729,-540 729,-540 723,-540 717,-534 717,-528 717,-528 717,-516 717,-516 717,-510 723,-504 729,-504 729,-504 813,-504 813,-504 819,-504 825,-510 825,-516 825,-516 825,-528 825,-528 825,-534 819,-540 813,-540"/>
<text text-anchor="middle" x="771" y="-519.5" font-family="sans" font-size="10.00">convert_eigen_pca</text>
</g>
<!-- 62&#45;&gt;57 -->
<g id="edge132" class="edge"><title>62&#45;&gt;57</title>
<path fill="none" stroke="grey" stroke-width="2" d="M771,-503.697C771,-495.983 771,-486.712 771,-478.112"/>
<polygon fill="grey" stroke="grey" stroke-width="2" points="774.5,-478.104 771,-468.104 767.5,-478.104 774.5,-478.104"/>
</g>
<!-- 63&#45;&gt;61 -->
<g id="edge137" class="edge"><title>63&#45;&gt;61</title>
<path fill="none" stroke="grey" stroke-width="2" d="M1018.2,-1871.7C1009.4,-1863.14 998.618,-1852.66 988.999,-1843.3"/>
<polygon fill="grey" stroke="grey" stroke-width="2" points="991.203,-1840.57 981.593,-1836.1 986.323,-1845.58 991.203,-1840.57"/>
</g>
<!-- 64&#45;&gt;62 -->
<g id="edge139" class="edge"><title>64&#45;&gt;62</title>
<path fill="none" stroke="grey" stroke-width="2" d="M771,-575.697C771,-567.983 771,-558.712 771,-550.112"/>
<polygon fill="grey" stroke="grey" stroke-width="2" points="774.5,-550.104 771,-540.104 767.5,-550.104 774.5,-550.104"/>
</g>
<!-- 65&#45;&gt;64 -->
<g id="edge143" class="edge"><title>65&#45;&gt;64</title>
<path fill="none" stroke="grey" stroke-width="2" d="M746.91,-647.697C750.553,-639.728 754.954,-630.1 758.994,-621.264"/>
<polygon fill="grey" stroke="grey" stroke-width="2" points="762.206,-622.654 763.181,-612.104 755.84,-619.744 762.206,-622.654"/>
</g>
</g>
</svg>
