<?xml version="1.0" encoding="UTF-8" standalone="no"?>
<!DOCTYPE svg PUBLIC "-//W3C//DTD SVG 1.1//EN"
 "http://www.w3.org/Graphics/SVG/1.1/DTD/svg11.dtd">
<!-- Generated by graphviz version 2.43.0 (0)
 -->
<!-- Title: snakemake_dag Pages: 1 -->
<svg width="220pt" height="283pt"
 viewBox="0.00 0.00 220.00 283.00" xmlns="http://www.w3.org/2000/svg" xmlns:xlink="http://www.w3.org/1999/xlink">
<g id="graph0" class="graph" transform="scale(1 1) rotate(0) translate(4 279)">
<title>snakemake_dag</title>
<polygon fill="white" stroke="transparent" points="-4,4 -4,-279 192,-279 192,4 -4,4"/>
<text text-anchor="middle" x="94" y="-259.8" font-family="Times,serif" font-size="14.00">IDAT input</text>
<!-- 0 -->
<g id="node1" class="node">
<title>0</title>
<path fill="none" stroke="#d85656" stroke-width="2" d="M134,-36C134,-36 54,-36 54,-36 48,-36 42,-30 42,-24 42,-24 42,-12 42,-12 42,-6 48,0 54,0 54,0 134,0 134,0 140,0 146,-6 146,-12 146,-12 146,-24 146,-24 146,-30 140,-36 134,-36"/>
<text text-anchor="middle" x="94" y="-15.5" font-family="sans" font-size="10.00">all_contamination</text>
</g>
<!-- 1 -->
<g id="node2" class="node">
<title>1</title>
<path fill="none" stroke="#59d856" stroke-width="2" d="M156.5,-108C156.5,-108 31.5,-108 31.5,-108 25.5,-108 19.5,-102 19.5,-96 19.5,-96 19.5,-84 19.5,-84 19.5,-78 25.5,-72 31.5,-72 31.5,-72 156.5,-72 156.5,-72 162.5,-72 168.5,-78 168.5,-84 168.5,-84 168.5,-96 168.5,-96 168.5,-102 162.5,-108 156.5,-108"/>
<text text-anchor="middle" x="94" y="-87.5" font-family="sans" font-size="10.00">agg_median_idat_intensity</text>
</g>
<!-- 1&#45;&gt;0 -->
<g id="edge1" class="edge">
<title>1&#45;&gt;0</title>
<path fill="none" stroke="grey" stroke-width="2" d="M94,-71.7C94,-63.98 94,-54.71 94,-46.11"/>
<polygon fill="grey" stroke="grey" stroke-width="2" points="97.5,-46.1 94,-36.1 90.5,-46.1 97.5,-46.1"/>
</g>
<!-- 2 -->
<g id="node3" class="node">
<title>2</title>
<path fill="none" stroke="#56d8d8" stroke-width="2" d="M176,-180C176,-180 12,-180 12,-180 6,-180 0,-174 0,-168 0,-168 0,-156 0,-156 0,-150 6,-144 12,-144 12,-144 176,-144 176,-144 182,-144 188,-150 188,-156 188,-156 188,-168 188,-168 188,-174 182,-180 176,-180"/>
<text text-anchor="middle" x="94" y="-159.5" font-family="sans" font-size="10.00">per_sample_median_idat_intensity</text>
</g>
<!-- 2&#45;&gt;1 -->
<g id="edge2" class="edge">
<title>2&#45;&gt;1</title>
<path fill="none" stroke="grey" stroke-width="2" d="M94,-143.7C94,-135.98 94,-126.71 94,-118.11"/>
<polygon fill="grey" stroke="grey" stroke-width="2" points="97.5,-118.1 94,-108.1 90.5,-118.1 97.5,-118.1"/>
</g>
<!-- 3 -->
<g id="node4" class="node">
<title>3</title>
<path fill="none" stroke="grey" stroke-width="2" d="M132,-252C132,-252 56,-252 56,-252 50,-252 44,-246 44,-240 44,-240 44,-228 44,-228 44,-222 50,-216 56,-216 56,-216 132,-216 132,-216 138,-216 144,-222 144,-228 144,-228 144,-240 144,-240 144,-246 138,-252 132,-252"/>
<text text-anchor="middle" x="94" y="-231.5" font-family="sans" font-size="10.00">illuminaio_conda</text>
</g>
<!-- 3&#45;&gt;2 -->
<g id="edge3" class="edge">
<title>3&#45;&gt;2</title>
<path fill="none" stroke="grey" stroke-width="2" d="M94,-215.7C94,-207.98 94,-198.71 94,-190.11"/>
<polygon fill="grey" stroke="grey" stroke-width="2" points="97.5,-190.1 94,-180.1 90.5,-190.1 97.5,-190.1"/>
</g>
</g>
</svg>
