<?xml version="1.0" encoding="UTF-8" standalone="no"?>
<!DOCTYPE svg PUBLIC "-//W3C//DTD SVG 1.1//EN"
 "http://www.w3.org/Graphics/SVG/1.1/DTD/svg11.dtd">
<!-- Generated by graphviz version 2.43.0 (0)
 -->
<!-- Title: snakemake_dag Pages: 1 -->
<svg width="467pt" height="283pt"
 viewBox="0.00 0.00 467.00 283.00" xmlns="http://www.w3.org/2000/svg" xmlns:xlink="http://www.w3.org/1999/xlink">
<g id="graph0" class="graph" transform="scale(1 1) rotate(0) translate(4 279)">
<title>snakemake_dag</title>
<polygon fill="white" stroke="transparent" points="-4,4 -4,-279 463,-279 463,4 -4,4"/>
<text text-anchor="middle" x="229.5" y="-259.8" font-family="Times,serif" font-size="14.00">Aggregated BCF input</text>
<!-- 0 -->
<g id="node1" class="node">
<title>0</title>
<path fill="none" stroke="red" stroke-width="2" d="M272.5,-36C272.5,-36 192.5,-36 192.5,-36 186.5,-36 180.5,-30 180.5,-24 180.5,-24 180.5,-12 180.5,-12 180.5,-6 186.5,0 192.5,0 192.5,0 272.5,0 272.5,0 278.5,0 284.5,-6 284.5,-12 284.5,-12 284.5,-24 284.5,-24 284.5,-30 278.5,-36 272.5,-36"/>
<text text-anchor="middle" x="232.5" y="-15.5" font-family="sans" font-size="10.00">all_contamination</text>
</g>
<!-- 1 -->
<g id="node2" class="node">
<title>1</title>
<path fill="none" stroke="darkgreen" stroke-width="2" d="M280,-108C280,-108 185,-108 185,-108 179,-108 173,-102 173,-96 173,-96 173,-84 173,-84 173,-78 179,-72 185,-72 185,-72 280,-72 280,-72 286,-72 292,-78 292,-84 292,-84 292,-96 292,-96 292,-102 286,-108 280,-108"/>
<text text-anchor="middle" x="232.5" y="-87.5" font-family="sans" font-size="10.00">agg_verifyidintensity</text>
</g>
<!-- 1&#45;&gt;0 -->
<g id="edge1" class="edge">
<title>1&#45;&gt;0</title>
<path fill="none" stroke="grey" stroke-width="2" d="M232.5,-71.7C232.5,-63.98 232.5,-54.71 232.5,-46.11"/>
<polygon fill="grey" stroke="grey" stroke-width="2" points="236,-46.1 232.5,-36.1 229,-46.1 236,-46.1"/>
</g>
<!-- 2 -->
<g id="node3" class="node">
<title>2</title>
<path fill="none" stroke="#caff70" stroke-width="2" d="M338.5,-180C338.5,-180 126.5,-180 126.5,-180 120.5,-180 114.5,-174 114.5,-168 114.5,-168 114.5,-156 114.5,-156 114.5,-150 120.5,-144 126.5,-144 126.5,-144 338.5,-144 338.5,-144 344.5,-144 350.5,-150 350.5,-156 350.5,-156 350.5,-168 350.5,-168 350.5,-174 344.5,-180 338.5,-180"/>
<text text-anchor="middle" x="232.5" y="-159.5" font-family="sans" font-size="10.00">per_sample_contamination_verifyIDintensity</text>
</g>
<!-- 2&#45;&gt;1 -->
<g id="edge2" class="edge">
<title>2&#45;&gt;1</title>
<path fill="none" stroke="grey" stroke-width="2" d="M232.5,-143.7C232.5,-135.98 232.5,-126.71 232.5,-118.11"/>
<polygon fill="grey" stroke="grey" stroke-width="2" points="236,-118.1 232.5,-108.1 229,-118.1 236,-118.1"/>
</g>
<!-- 3 -->
<g id="node4" class="node">
<title>3</title>
<path fill="none" stroke="#ee7600" stroke-width="2" d="M125,-252C125,-252 12,-252 12,-252 6,-252 0,-246 0,-240 0,-240 0,-228 0,-228 0,-222 6,-216 12,-216 12,-216 125,-216 125,-216 131,-216 137,-222 137,-228 137,-228 137,-240 137,-240 137,-246 131,-252 125,-252"/>
<text text-anchor="middle" x="68.5" y="-231.5" font-family="sans" font-size="10.00">per_sample_vcf_to_adpc</text>
</g>
<!-- 3&#45;&gt;2 -->
<g id="edge4" class="edge">
<title>3&#45;&gt;2</title>
<path fill="none" stroke="grey" stroke-width="2" d="M108.62,-215.88C131.14,-206.26 159.42,-194.19 183.27,-184.01"/>
<polygon fill="grey" stroke="grey" stroke-width="2" points="184.69,-187.21 192.51,-180.07 181.94,-180.77 184.69,-187.21"/>
</g>
<!-- 4 -->
<g id="node5" class="node">
<title>4</title>
<path fill="none" stroke="#66cd00" stroke-width="2" d="M298,-252C298,-252 167,-252 167,-252 161,-252 155,-246 155,-240 155,-240 155,-228 155,-228 155,-222 161,-216 167,-216 167,-216 298,-216 298,-216 304,-216 310,-222 310,-228 310,-228 310,-240 310,-240 310,-246 304,-252 298,-252"/>
<text text-anchor="middle" x="232.5" y="-231.5" font-family="sans" font-size="10.00">pull_b_allele_freq_from_1kg</text>
</g>
<!-- 4&#45;&gt;2 -->
<g id="edge5" class="edge">
<title>4&#45;&gt;2</title>
<path fill="none" stroke="grey" stroke-width="2" d="M232.5,-215.7C232.5,-207.98 232.5,-198.71 232.5,-190.11"/>
<polygon fill="grey" stroke="grey" stroke-width="2" points="236,-190.1 232.5,-180.1 229,-190.1 236,-190.1"/>
</g>
<!-- 5 -->
<g id="node6" class="node">
<title>5</title>
<path fill="none" stroke="grey" stroke-width="2" d="M447,-252C447,-252 340,-252 340,-252 334,-252 328,-246 328,-240 328,-240 328,-228 328,-228 328,-222 334,-216 340,-216 340,-216 447,-216 447,-216 453,-216 459,-222 459,-228 459,-228 459,-240 459,-240 459,-246 453,-252 447,-252"/>
<text text-anchor="middle" x="393.5" y="-231.5" font-family="sans" font-size="10.00">verifyidintensity_conda</text>
</g>
<!-- 5&#45;&gt;2 -->
<g id="edge3" class="edge">
<title>5&#45;&gt;2</title>
<path fill="none" stroke="grey" stroke-width="2" d="M354.11,-215.88C332.11,-206.31 304.49,-194.3 281.14,-184.15"/>
<polygon fill="grey" stroke="grey" stroke-width="2" points="282.32,-180.85 271.76,-180.07 279.53,-187.27 282.32,-180.85"/>
</g>
</g>
</svg>
