<?xml version="1.0" encoding="UTF-8" standalone="no"?>
<!DOCTYPE svg PUBLIC "-//W3C//DTD SVG 1.1//EN"
 "http://www.w3.org/Graphics/SVG/1.1/DTD/svg11.dtd">
<!-- Generated by graphviz version 2.44.0 (0)
 -->
<!-- Title: snakemake_dag Pages: 1 -->
<svg width="903pt" height="908pt"
 viewBox="0.00 0.00 903.28 908.00" xmlns="http://www.w3.org/2000/svg" xmlns:xlink="http://www.w3.org/1999/xlink">
<g id="graph0" class="graph" transform="scale(1 1) rotate(0) translate(4 904)">
<title>snakemake_dag</title>
<polygon fill="white" stroke="transparent" points="-4,4 -4,-904 899.28,-904 899.28,4 -4,4"/>
<!-- 0 -->
<g id="node1" class="node">
<title>0</title>
<path fill="none" stroke="#d87556" stroke-width="2" stroke-dasharray="5,2" d="M433.01,-36C433.01,-36 371.01,-36 371.01,-36 365.01,-36 359.01,-30 359.01,-24 359.01,-24 359.01,-12 359.01,-12 359.01,-6 365.01,0 371.01,0 371.01,0 433.01,0 433.01,0 439.01,0 445.01,-6 445.01,-12 445.01,-12 445.01,-24 445.01,-24 445.01,-30 439.01,-36 433.01,-36"/>
<text text-anchor="middle" x="402.01" y="-15.5" font-family="sans" font-size="10.00">all_sample_qc</text>
</g>
<!-- 1 -->
<g id="node2" class="node">
<title>1</title>
<path fill="none" stroke="#88d856" stroke-width="2" stroke-dasharray="5,2" d="M379.51,-180C379.51,-180 304.51,-180 304.51,-180 298.51,-180 292.51,-174 292.51,-168 292.51,-168 292.51,-156 292.51,-156 292.51,-150 298.51,-144 304.51,-144 304.51,-144 379.51,-144 379.51,-144 385.51,-144 391.51,-150 391.51,-156 391.51,-156 391.51,-168 391.51,-168 391.51,-174 385.51,-180 379.51,-180"/>
<text text-anchor="middle" x="342.01" y="-159.5" font-family="sans" font-size="10.00">sample_qc_table</text>
</g>
<!-- 1&#45;&gt;0 -->
<g id="edge1" class="edge">
<title>1&#45;&gt;0</title>
<path fill="none" stroke="grey" stroke-width="2" d="M330.03,-143.68C318.75,-125.04 305.34,-94.98 318.01,-72 325.25,-58.87 337.26,-48.55 349.97,-40.64"/>
<polygon fill="grey" stroke="grey" stroke-width="2" points="351.9,-43.56 358.83,-35.54 348.41,-37.5 351.9,-43.56"/>
</g>
<!-- 25 -->
<g id="node26" class="node">
<title>25</title>
<path fill="none" stroke="#56d8a9" stroke-width="2" stroke-dasharray="5,2" d="M465.01,-108C465.01,-108 339.01,-108 339.01,-108 333.01,-108 327.01,-102 327.01,-96 327.01,-96 327.01,-84 327.01,-84 327.01,-78 333.01,-72 339.01,-72 339.01,-72 465.01,-72 465.01,-72 471.01,-72 477.01,-78 477.01,-84 477.01,-84 477.01,-96 477.01,-96 477.01,-102 471.01,-108 465.01,-108"/>
<text text-anchor="middle" x="402.01" y="-87.5" font-family="sans" font-size="10.00">sample_qc_summary_stats</text>
</g>
<!-- 1&#45;&gt;25 -->
<g id="edge44" class="edge">
<title>1&#45;&gt;25</title>
<path fill="none" stroke="grey" stroke-width="2" d="M356.85,-143.7C364.04,-135.3 372.81,-125.07 380.7,-115.86"/>
<polygon fill="grey" stroke="grey" stroke-width="2" points="383.5,-117.97 387.35,-108.1 378.19,-113.42 383.5,-117.97"/>
</g>
<!-- 26 -->
<g id="node27" class="node">
<title>26</title>
<path fill="none" stroke="#56d86b" stroke-width="2" stroke-dasharray="5,2" d="M635.01,-108C635.01,-108 507.01,-108 507.01,-108 501.01,-108 495.01,-102 495.01,-96 495.01,-96 495.01,-84 495.01,-84 495.01,-78 501.01,-72 507.01,-72 507.01,-72 635.01,-72 635.01,-72 641.01,-72 647.01,-78 647.01,-84 647.01,-84 647.01,-96 647.01,-96 647.01,-102 641.01,-108 635.01,-108"/>
<text text-anchor="middle" x="571.01" y="-87.5" font-family="sans" font-size="10.00">sample_lists_from_qc_flags</text>
</g>
<!-- 1&#45;&gt;26 -->
<g id="edge45" class="edge">
<title>1&#45;&gt;26</title>
<path fill="none" stroke="grey" stroke-width="2" d="M391.7,-145.81C425.01,-135.63 469.23,-122.11 505.42,-111.05"/>
<polygon fill="grey" stroke="grey" stroke-width="2" points="506.85,-114.27 515.39,-108 504.81,-107.58 506.85,-114.27"/>
</g>
<!-- 27 -->
<g id="node28" class="node">
<title>27</title>
<path fill="none" stroke="#bed856" stroke-width="2" stroke-dasharray="5,2" d="M736.51,-108C736.51,-108 677.51,-108 677.51,-108 671.51,-108 665.51,-102 665.51,-96 665.51,-96 665.51,-84 665.51,-84 665.51,-78 671.51,-72 677.51,-72 677.51,-72 736.51,-72 736.51,-72 742.51,-72 748.51,-78 748.51,-84 748.51,-84 748.51,-96 748.51,-96 748.51,-102 742.51,-108 736.51,-108"/>
<text text-anchor="middle" x="707.01" y="-87.5" font-family="sans" font-size="10.00">plot_call_rate</text>
</g>
<!-- 1&#45;&gt;27 -->
<g id="edge46" class="edge">
<title>1&#45;&gt;27</title>
<path fill="none" stroke="grey" stroke-width="2" d="M391.72,-155.03C452.03,-147.24 556.85,-132.01 655.58,-107.89"/>
<polygon fill="grey" stroke="grey" stroke-width="2" points="656.56,-111.25 665.42,-105.45 654.87,-104.46 656.56,-111.25"/>
</g>
<!-- 28 -->
<g id="node29" class="node">
<title>28</title>
<path fill="none" stroke="#d8ac56" stroke-width="2" stroke-dasharray="5,2" d="M157.51,-108C157.51,-108 62.51,-108 62.51,-108 56.51,-108 50.51,-102 50.51,-96 50.51,-96 50.51,-84 50.51,-84 50.51,-78 56.51,-72 62.51,-72 62.51,-72 157.51,-72 157.51,-72 163.51,-72 169.51,-78 169.51,-84 169.51,-84 169.51,-96 169.51,-96 169.51,-102 163.51,-108 157.51,-108"/>
<text text-anchor="middle" x="110.01" y="-87.5" font-family="sans" font-size="10.00">plot_chrx_inbreeding</text>
</g>
<!-- 1&#45;&gt;28 -->
<g id="edge48" class="edge">
<title>1&#45;&gt;28</title>
<path fill="none" stroke="grey" stroke-width="2" d="M292.24,-145.98C258.39,-135.77 213.21,-122.14 176.31,-111"/>
<polygon fill="grey" stroke="grey" stroke-width="2" points="177.22,-107.62 166.63,-108.08 175.2,-114.32 177.22,-107.62"/>
</g>
<!-- 29 -->
<g id="node30" class="node">
<title>29</title>
<path fill="none" stroke="#568ad8" stroke-width="2" stroke-dasharray="5,2" d="M258.51,-108C258.51,-108 199.51,-108 199.51,-108 193.51,-108 187.51,-102 187.51,-96 187.51,-96 187.51,-84 187.51,-84 187.51,-78 193.51,-72 199.51,-72 199.51,-72 258.51,-72 258.51,-72 264.51,-72 270.51,-78 270.51,-84 270.51,-84 270.51,-96 270.51,-96 270.51,-102 264.51,-108 258.51,-108"/>
<text text-anchor="middle" x="229.01" y="-87.5" font-family="sans" font-size="10.00">plot_ancestry</text>
</g>
<!-- 1&#45;&gt;29 -->
<g id="edge49" class="edge">
<title>1&#45;&gt;29</title>
<path fill="none" stroke="grey" stroke-width="2" d="M314.37,-143.88C299.6,-134.72 281.22,-123.34 265.31,-113.48"/>
<polygon fill="grey" stroke="grey" stroke-width="2" points="267.11,-110.48 256.76,-108.19 263.42,-116.43 267.11,-110.48"/>
</g>
<!-- 2 -->
<g id="node3" class="node">
<title>2</title>
<path fill="none" stroke="#78d856" stroke-width="2" stroke-dasharray="5,2" d="M851.51,-252C851.51,-252 754.51,-252 754.51,-252 748.51,-252 742.51,-246 742.51,-240 742.51,-240 742.51,-228 742.51,-228 742.51,-222 748.51,-216 754.51,-216 754.51,-216 851.51,-216 851.51,-216 857.51,-216 863.51,-222 863.51,-228 863.51,-228 863.51,-240 863.51,-240 863.51,-246 857.51,-252 851.51,-252"/>
<text text-anchor="middle" x="803.01" y="-231.5" font-family="sans" font-size="10.00">plink_call_rate_initial</text>
</g>
<!-- 2&#45;&gt;1 -->
<g id="edge10" class="edge">
<title>2&#45;&gt;1</title>
<path fill="none" stroke="grey" stroke-width="2" d="M742.39,-217.87C739.23,-217.21 736.09,-216.58 733.01,-216 616.41,-194 478.58,-177.51 401.64,-169.14"/>
<polygon fill="grey" stroke="grey" stroke-width="2" points="401.97,-165.66 391.66,-168.06 401.22,-172.61 401.97,-165.66"/>
</g>
<!-- 23 -->
<g id="node24" class="node">
<title>23</title>
<path fill="none" stroke="#56d0d8" stroke-width="2" stroke-dasharray="5,2" d="M873.01,-180C873.01,-180 817.01,-180 817.01,-180 811.01,-180 805.01,-174 805.01,-168 805.01,-168 805.01,-156 805.01,-156 805.01,-150 811.01,-144 817.01,-144 817.01,-144 873.01,-144 873.01,-144 879.01,-144 885.01,-150 885.01,-156 885.01,-156 885.01,-168 885.01,-168 885.01,-174 879.01,-180 873.01,-180"/>
<text text-anchor="middle" x="845.01" y="-159.5" font-family="sans" font-size="10.00">snp_qc_table</text>
</g>
<!-- 2&#45;&gt;23 -->
<g id="edge39" class="edge">
<title>2&#45;&gt;23</title>
<path fill="none" stroke="grey" stroke-width="2" d="M813.4,-215.7C818.28,-207.56 824.2,-197.69 829.59,-188.7"/>
<polygon fill="grey" stroke="grey" stroke-width="2" points="832.61,-190.48 834.75,-180.1 826.6,-186.88 832.61,-190.48"/>
</g>
<!-- 3 -->
<g id="node4" class="node">
<title>3</title>
<path fill="none" stroke="#56d8c1" stroke-width="2" stroke-dasharray="5,2" d="M712.01,-252C712.01,-252 616.01,-252 616.01,-252 610.01,-252 604.01,-246 604.01,-240 604.01,-240 604.01,-228 604.01,-228 604.01,-222 610.01,-216 616.01,-216 616.01,-216 712.01,-216 712.01,-216 718.01,-216 724.01,-222 724.01,-228 724.01,-228 724.01,-240 724.01,-240 724.01,-246 718.01,-252 712.01,-252"/>
<text text-anchor="middle" x="664.01" y="-231.5" font-family="sans" font-size="10.00">plink_call_rate_post1</text>
</g>
<!-- 3&#45;&gt;1 -->
<g id="edge11" class="edge">
<title>3&#45;&gt;1</title>
<path fill="none" stroke="grey" stroke-width="2" d="M603.83,-218.04C600.85,-217.34 597.9,-216.66 595.01,-216 528.97,-200.95 452.86,-185.22 401.5,-174.85"/>
<polygon fill="grey" stroke="grey" stroke-width="2" points="402.07,-171.39 391.57,-172.85 400.69,-178.25 402.07,-171.39"/>
</g>
<!-- 3&#45;&gt;23 -->
<g id="edge40" class="edge">
<title>3&#45;&gt;23</title>
<path fill="none" stroke="grey" stroke-width="2" d="M708.29,-215.88C734.69,-205.67 768.27,-192.68 795.54,-182.13"/>
<polygon fill="grey" stroke="grey" stroke-width="2" points="796.83,-185.39 804.9,-178.51 794.31,-178.86 796.83,-185.39"/>
</g>
<!-- 4 -->
<g id="node5" class="node">
<title>4</title>
<path fill="none" stroke="#d8d356" stroke-width="2" stroke-dasharray="5,2" d="M450.01,-828C450.01,-828 354.01,-828 354.01,-828 348.01,-828 342.01,-822 342.01,-816 342.01,-816 342.01,-804 342.01,-804 342.01,-798 348.01,-792 354.01,-792 354.01,-792 450.01,-792 450.01,-792 456.01,-792 462.01,-798 462.01,-804 462.01,-804 462.01,-816 462.01,-816 462.01,-822 456.01,-828 450.01,-828"/>
<text text-anchor="middle" x="402.01" y="-807.5" font-family="sans" font-size="10.00">snp_call_rate_filter_1</text>
</g>
<!-- 4&#45;&gt;3 -->
<g id="edge17" class="edge">
<title>4&#45;&gt;3</title>
<path fill="none" stroke="grey" stroke-width="2" d="M462.1,-804.3C592.94,-792.42 892.01,-755.57 892.01,-667 892.01,-667 892.01,-667 892.01,-377 892.01,-336.05 784.72,-284.46 717.34,-256.1"/>
<polygon fill="grey" stroke="grey" stroke-width="2" points="718.28,-252.7 707.7,-252.09 715.59,-259.16 718.28,-252.7"/>
</g>
<!-- 8 -->
<g id="node9" class="node">
<title>8</title>
<path fill="none" stroke="#68d856" stroke-width="2" stroke-dasharray="5,2" d="M459.51,-756C459.51,-756 344.51,-756 344.51,-756 338.51,-756 332.51,-750 332.51,-744 332.51,-744 332.51,-732 332.51,-732 332.51,-726 338.51,-720 344.51,-720 344.51,-720 459.51,-720 459.51,-720 465.51,-720 471.51,-726 471.51,-732 471.51,-732 471.51,-744 471.51,-744 471.51,-750 465.51,-756 459.51,-756"/>
<text text-anchor="middle" x="402.01" y="-735.5" font-family="sans" font-size="10.00">sample_call_rate_filter_2</text>
</g>
<!-- 4&#45;&gt;8 -->
<g id="edge21" class="edge">
<title>4&#45;&gt;8</title>
<path fill="none" stroke="grey" stroke-width="2" d="M402.01,-791.7C402.01,-783.98 402.01,-774.71 402.01,-766.11"/>
<polygon fill="grey" stroke="grey" stroke-width="2" points="405.51,-766.1 402.01,-756.1 398.51,-766.1 405.51,-766.1"/>
</g>
<!-- 9 -->
<g id="node10" class="node">
<title>9</title>
<path fill="none" stroke="#56d87b" stroke-width="2" stroke-dasharray="5,2" d="M181.51,-684C181.51,-684 72.51,-684 72.51,-684 66.51,-684 60.51,-678 60.51,-672 60.51,-672 60.51,-660 60.51,-660 60.51,-654 66.51,-648 72.51,-648 72.51,-648 181.51,-648 181.51,-648 187.51,-648 193.51,-654 193.51,-660 193.51,-660 193.51,-672 193.51,-672 193.51,-678 187.51,-684 181.51,-684"/>
<text text-anchor="middle" x="127.01" y="-663.5" font-family="sans" font-size="10.00">sample_level_sexcheck</text>
</g>
<!-- 4&#45;&gt;9 -->
<g id="edge22" class="edge">
<title>4&#45;&gt;9</title>
<path fill="none" stroke="grey" stroke-width="2" d="M368.84,-791.87C318.88,-766.07 224.32,-717.25 169.42,-688.9"/>
<polygon fill="grey" stroke="grey" stroke-width="2" points="170.79,-685.67 160.3,-684.19 167.58,-691.89 170.79,-685.67"/>
</g>
<!-- 5 -->
<g id="node6" class="node">
<title>5</title>
<path fill="none" stroke="#d89c56" stroke-width="2" stroke-dasharray="5,2" d="M459.51,-900C459.51,-900 344.51,-900 344.51,-900 338.51,-900 332.51,-894 332.51,-888 332.51,-888 332.51,-876 332.51,-876 332.51,-870 338.51,-864 344.51,-864 344.51,-864 459.51,-864 459.51,-864 465.51,-864 471.51,-870 471.51,-876 471.51,-876 471.51,-888 471.51,-888 471.51,-894 465.51,-900 459.51,-900"/>
<text text-anchor="middle" x="402.01" y="-879.5" font-family="sans" font-size="10.00">sample_call_rate_filter_1</text>
</g>
<!-- 5&#45;&gt;4 -->
<g id="edge18" class="edge">
<title>5&#45;&gt;4</title>
<path fill="none" stroke="grey" stroke-width="2" d="M402.01,-863.7C402.01,-855.98 402.01,-846.71 402.01,-838.11"/>
<polygon fill="grey" stroke="grey" stroke-width="2" points="405.51,-838.1 402.01,-828.1 398.51,-838.1 405.51,-838.1"/>
</g>
<!-- 6 -->
<g id="node7" class="node">
<title>6</title>
<path fill="none" stroke="#56c1d8" stroke-width="2" stroke-dasharray="5,2" d="M620.01,-324C620.01,-324 524.01,-324 524.01,-324 518.01,-324 512.01,-318 512.01,-312 512.01,-312 512.01,-300 512.01,-300 512.01,-294 518.01,-288 524.01,-288 524.01,-288 620.01,-288 620.01,-288 626.01,-288 632.01,-294 632.01,-300 632.01,-300 632.01,-312 632.01,-312 632.01,-318 626.01,-324 620.01,-324"/>
<text text-anchor="middle" x="572.01" y="-303.5" font-family="sans" font-size="10.00">plink_call_rate_post2</text>
</g>
<!-- 6&#45;&gt;1 -->
<g id="edge12" class="edge">
<title>6&#45;&gt;1</title>
<path fill="none" stroke="grey" stroke-width="2" d="M511.81,-290C450,-274.58 362.69,-252.7 362.01,-252 346.26,-235.82 341.85,-210.06 341.03,-190.4"/>
<polygon fill="grey" stroke="grey" stroke-width="2" points="344.53,-190.16 340.9,-180.21 337.53,-190.25 344.53,-190.16"/>
</g>
<!-- 22 -->
<g id="node23" class="node">
<title>22</title>
<path fill="none" stroke="#afd856" stroke-width="2" stroke-dasharray="5,2" d="M573.51,-252C573.51,-252 382.51,-252 382.51,-252 376.51,-252 370.51,-246 370.51,-240 370.51,-240 370.51,-228 370.51,-228 370.51,-222 376.51,-216 382.51,-216 382.51,-216 573.51,-216 573.51,-216 579.51,-216 585.51,-222 585.51,-228 585.51,-228 585.51,-240 585.51,-240 585.51,-246 579.51,-252 573.51,-252"/>
<text text-anchor="middle" x="478.01" y="-231.5" font-family="sans" font-size="10.00">sample_contamination_verifyIDintensity</text>
</g>
<!-- 6&#45;&gt;22 -->
<g id="edge38" class="edge">
<title>6&#45;&gt;22</title>
<path fill="none" stroke="grey" stroke-width="2" d="M548.78,-287.7C536.83,-278.8 522.09,-267.82 509.17,-258.2"/>
<polygon fill="grey" stroke="grey" stroke-width="2" points="511.09,-255.27 500.98,-252.1 506.91,-260.88 511.09,-255.27"/>
</g>
<!-- 6&#45;&gt;23 -->
<g id="edge41" class="edge">
<title>6&#45;&gt;23</title>
<path fill="none" stroke="grey" stroke-width="2" d="M632.02,-303.23C710.86,-299.5 842.87,-287.92 873.01,-252 888.09,-234.03 877.15,-207.91 864.8,-188.61"/>
<polygon fill="grey" stroke="grey" stroke-width="2" points="867.65,-186.57 859.12,-180.28 861.86,-190.51 867.65,-186.57"/>
</g>
<!-- 7 -->
<g id="node8" class="node">
<title>7</title>
<path fill="none" stroke="#56d88a" stroke-width="2" stroke-dasharray="5,2" d="M450.01,-684C450.01,-684 354.01,-684 354.01,-684 348.01,-684 342.01,-678 342.01,-672 342.01,-672 342.01,-660 342.01,-660 342.01,-654 348.01,-648 354.01,-648 354.01,-648 450.01,-648 450.01,-648 456.01,-648 462.01,-654 462.01,-660 462.01,-660 462.01,-672 462.01,-672 462.01,-678 456.01,-684 450.01,-684"/>
<text text-anchor="middle" x="402.01" y="-663.5" font-family="sans" font-size="10.00">snp_call_rate_filter_2</text>
</g>
<!-- 7&#45;&gt;6 -->
<g id="edge19" class="edge">
<title>7&#45;&gt;6</title>
<path fill="none" stroke="grey" stroke-width="2" d="M449.58,-647.84C498.64,-626.73 568.01,-585.77 568.01,-523 568.01,-523 568.01,-523 568.01,-449 568.01,-408.98 569.62,-362.64 570.8,-334.07"/>
<polygon fill="grey" stroke="grey" stroke-width="2" points="574.3,-334.18 571.22,-324.04 567.3,-333.89 574.3,-334.18"/>
</g>
<!-- 13 -->
<g id="node14" class="node">
<title>13</title>
<path fill="none" stroke="#d85656" stroke-width="2" stroke-dasharray="5,2" d="M519.51,-468C519.51,-468 378.51,-468 378.51,-468 372.51,-468 366.51,-462 366.51,-456 366.51,-456 366.51,-444 366.51,-444 366.51,-438 372.51,-432 378.51,-432 378.51,-432 519.51,-432 519.51,-432 525.51,-432 531.51,-438 531.51,-444 531.51,-444 531.51,-456 531.51,-456 531.51,-462 525.51,-468 519.51,-468"/>
<text text-anchor="middle" x="449.01" y="-447.5" font-family="sans" font-size="10.00">update_samples_to_1kg_rsIDs</text>
</g>
<!-- 7&#45;&gt;13 -->
<g id="edge26" class="edge">
<title>7&#45;&gt;13</title>
<path fill="none" stroke="grey" stroke-width="2" d="M413.33,-647.56C419.27,-637.55 426.12,-624.52 430.01,-612 444.14,-566.61 447.9,-511.03 448.82,-478.46"/>
<polygon fill="grey" stroke="grey" stroke-width="2" points="452.32,-478.42 449.03,-468.35 445.32,-478.27 452.32,-478.42"/>
</g>
<!-- 18 -->
<g id="node19" class="node">
<title>18</title>
<path fill="none" stroke="#d8bc56" stroke-width="2" stroke-dasharray="5,2" d="M409.01,-612C409.01,-612 299.01,-612 299.01,-612 293.01,-612 287.01,-606 287.01,-600 287.01,-600 287.01,-588 287.01,-588 287.01,-582 293.01,-576 299.01,-576 299.01,-576 409.01,-576 409.01,-576 415.01,-576 421.01,-582 421.01,-588 421.01,-588 421.01,-600 421.01,-600 421.01,-606 415.01,-612 409.01,-612"/>
<text text-anchor="middle" x="354.01" y="-597" font-family="sans" font-size="10.00">sample_level_maf_filter</text>
<text text-anchor="middle" x="354.01" y="-586" font-family="sans" font-size="10.00">maf: 0.2</text>
</g>
<!-- 7&#45;&gt;18 -->
<g id="edge34" class="edge">
<title>7&#45;&gt;18</title>
<path fill="none" stroke="grey" stroke-width="2" d="M390.15,-647.7C384.51,-639.47 377.66,-629.48 371.44,-620.42"/>
<polygon fill="grey" stroke="grey" stroke-width="2" points="374.28,-618.37 365.74,-612.1 368.51,-622.33 374.28,-618.37"/>
</g>
<!-- 21 -->
<g id="node22" class="node">
<title>21</title>
<path fill="none" stroke="#9fd856" stroke-width="2" stroke-dasharray="5,2" d="M162.01,-540C162.01,-540 40.01,-540 40.01,-540 34.01,-540 28.01,-534 28.01,-528 28.01,-528 28.01,-516 28.01,-516 28.01,-510 34.01,-504 40.01,-504 40.01,-504 162.01,-504 162.01,-504 168.01,-504 174.01,-510 174.01,-516 174.01,-516 174.01,-528 174.01,-528 174.01,-534 168.01,-540 162.01,-540"/>
<text text-anchor="middle" x="101.01" y="-519.5" font-family="sans" font-size="10.00">sample_concordance_king</text>
</g>
<!-- 7&#45;&gt;21 -->
<g id="edge37" class="edge">
<title>7&#45;&gt;21</title>
<path fill="none" stroke="grey" stroke-width="2" d="M360.4,-647.97C336.19,-637.88 305.19,-624.63 278.01,-612 231.05,-590.18 178.11,-563.25 142.47,-544.76"/>
<polygon fill="grey" stroke="grey" stroke-width="2" points="143.83,-541.52 133.34,-540.01 140.6,-547.73 143.83,-541.52"/>
</g>
<!-- 8&#45;&gt;7 -->
<g id="edge20" class="edge">
<title>8&#45;&gt;7</title>
<path fill="none" stroke="grey" stroke-width="2" d="M402.01,-719.7C402.01,-711.98 402.01,-702.71 402.01,-694.11"/>
<polygon fill="grey" stroke="grey" stroke-width="2" points="405.51,-694.1 402.01,-684.1 398.51,-694.1 405.51,-694.1"/>
</g>
<!-- 9&#45;&gt;1 -->
<g id="edge13" class="edge">
<title>9&#45;&gt;1</title>
<path fill="none" stroke="grey" stroke-width="2" d="M95.62,-647.94C58.01,-624.95 0.01,-580.22 0.01,-523 0.01,-523 0.01,-523 0.01,-305 0.01,-262.97 -0.2,-243 32.01,-216 50.94,-200.14 197.91,-180.23 282.51,-169.91"/>
<polygon fill="grey" stroke="grey" stroke-width="2" points="283,-173.38 292.51,-168.7 282.16,-166.43 283,-173.38"/>
</g>
<!-- 10 -->
<g id="node11" class="node">
<title>10</title>
<path fill="none" stroke="#566bd8" stroke-width="2" stroke-dasharray="5,2" d="M301.51,-252C301.51,-252 242.51,-252 242.51,-252 236.51,-252 230.51,-246 230.51,-240 230.51,-240 230.51,-228 230.51,-228 230.51,-222 236.51,-216 242.51,-216 242.51,-216 301.51,-216 301.51,-216 307.51,-216 313.51,-222 313.51,-228 313.51,-228 313.51,-240 313.51,-240 313.51,-246 307.51,-252 301.51,-252"/>
<text text-anchor="middle" x="272.01" y="-231.5" font-family="sans" font-size="10.00">graf_ancestry</text>
</g>
<!-- 10&#45;&gt;1 -->
<g id="edge14" class="edge">
<title>10&#45;&gt;1</title>
<path fill="none" stroke="grey" stroke-width="2" d="M289.32,-215.7C297.88,-207.14 308.36,-196.66 317.71,-187.3"/>
<polygon fill="grey" stroke="grey" stroke-width="2" points="320.31,-189.65 324.91,-180.1 315.36,-184.7 320.31,-189.65"/>
</g>
<!-- 11 -->
<g id="node12" class="node">
<title>11</title>
<path fill="none" stroke="#56d8d0" stroke-width="2" stroke-dasharray="5,2" d="M482.01,-324C482.01,-324 408.01,-324 408.01,-324 402.01,-324 396.01,-318 396.01,-312 396.01,-312 396.01,-300 396.01,-300 396.01,-294 402.01,-288 408.01,-288 408.01,-288 482.01,-288 482.01,-288 488.01,-288 494.01,-294 494.01,-300 494.01,-300 494.01,-312 494.01,-312 494.01,-318 488.01,-324 482.01,-324"/>
<text text-anchor="middle" x="445.01" y="-303.5" font-family="sans" font-size="10.00">graf_populations</text>
</g>
<!-- 11&#45;&gt;10 -->
<g id="edge23" class="edge">
<title>11&#45;&gt;10</title>
<path fill="none" stroke="grey" stroke-width="2" d="M402.69,-287.88C378.66,-278.15 348.4,-265.91 323.05,-255.65"/>
<polygon fill="grey" stroke="grey" stroke-width="2" points="324.18,-252.33 313.6,-251.83 321.56,-258.82 324.18,-252.33"/>
</g>
<!-- 12 -->
<g id="node13" class="node">
<title>12</title>
<path fill="none" stroke="#56d89a" stroke-width="2" stroke-dasharray="5,2" d="M512.51,-396C512.51,-396 377.51,-396 377.51,-396 371.51,-396 365.51,-390 365.51,-384 365.51,-384 365.51,-372 365.51,-372 365.51,-366 371.51,-360 377.51,-360 377.51,-360 512.51,-360 512.51,-360 518.51,-360 524.51,-366 524.51,-372 524.51,-372 524.51,-384 524.51,-384 524.51,-390 518.51,-396 512.51,-396"/>
<text text-anchor="middle" x="445.01" y="-375.5" font-family="sans" font-size="10.00">graf_extract_fingerprint_snps</text>
</g>
<!-- 12&#45;&gt;11 -->
<g id="edge24" class="edge">
<title>12&#45;&gt;11</title>
<path fill="none" stroke="grey" stroke-width="2" d="M445.01,-359.7C445.01,-351.98 445.01,-342.71 445.01,-334.11"/>
<polygon fill="grey" stroke="grey" stroke-width="2" points="448.51,-334.1 445.01,-324.1 441.51,-334.1 448.51,-334.1"/>
</g>
<!-- 20 -->
<g id="node21" class="node">
<title>20</title>
<path fill="none" stroke="#567bd8" stroke-width="2" stroke-dasharray="5,2" d="M366.01,-324C366.01,-324 246.01,-324 246.01,-324 240.01,-324 234.01,-318 234.01,-312 234.01,-312 234.01,-300 234.01,-300 234.01,-294 240.01,-288 246.01,-288 246.01,-288 366.01,-288 366.01,-288 372.01,-288 378.01,-294 378.01,-300 378.01,-300 378.01,-312 378.01,-312 378.01,-318 372.01,-324 366.01,-324"/>
<text text-anchor="middle" x="306.01" y="-303.5" font-family="sans" font-size="10.00">sample_concordance_graf</text>
</g>
<!-- 12&#45;&gt;20 -->
<g id="edge36" class="edge">
<title>12&#45;&gt;20</title>
<path fill="none" stroke="grey" stroke-width="2" d="M411.01,-359.88C392.42,-350.51 369.19,-338.81 349.31,-328.8"/>
<polygon fill="grey" stroke="grey" stroke-width="2" points="350.65,-325.56 340.15,-324.19 347.5,-331.81 350.65,-325.56"/>
</g>
<!-- 13&#45;&gt;12 -->
<g id="edge25" class="edge">
<title>13&#45;&gt;12</title>
<path fill="none" stroke="grey" stroke-width="2" d="M448.02,-431.7C447.58,-423.98 447.05,-414.71 446.56,-406.11"/>
<polygon fill="grey" stroke="grey" stroke-width="2" points="450.06,-405.89 445.99,-396.1 443.07,-406.29 450.06,-405.89"/>
</g>
<!-- 13&#45;&gt;23 -->
<g id="edge42" class="edge">
<title>13&#45;&gt;23</title>
<path fill="none" stroke="grey" stroke-width="2" d="M531.78,-438.92C635.93,-421.3 810.74,-374.24 890.01,-252 903.45,-231.28 887.95,-206.02 871.58,-187.72"/>
<polygon fill="grey" stroke="grey" stroke-width="2" points="874.01,-185.19 864.59,-180.33 868.92,-190 874.01,-185.19"/>
</g>
<!-- 14 -->
<g id="node15" class="node">
<title>14</title>
<path fill="none" stroke="#569ad8" stroke-width="2" stroke-dasharray="5,2" d="M200.51,-252C200.51,-252 53.51,-252 53.51,-252 47.51,-252 41.51,-246 41.51,-240 41.51,-240 41.51,-228 41.51,-228 41.51,-222 47.51,-216 53.51,-216 53.51,-216 200.51,-216 200.51,-216 206.51,-216 212.51,-222 212.51,-228 212.51,-228 212.51,-240 212.51,-240 212.51,-246 206.51,-252 200.51,-252"/>
<text text-anchor="middle" x="127.01" y="-231.5" font-family="sans" font-size="10.00">sample_concordance_summary</text>
</g>
<!-- 14&#45;&gt;1 -->
<g id="edge15" class="edge">
<title>14&#45;&gt;1</title>
<path fill="none" stroke="grey" stroke-width="2" d="M179.33,-215.97C210.54,-205.81 250.25,-192.88 282.63,-182.34"/>
<polygon fill="grey" stroke="grey" stroke-width="2" points="283.99,-185.57 292.42,-179.15 281.83,-178.91 283.99,-185.57"/>
</g>
<!-- 24 -->
<g id="node25" class="node">
<title>24</title>
<path fill="none" stroke="#d86656" stroke-width="2" stroke-dasharray="5,2" d="M136.01,-180C136.01,-180 14.01,-180 14.01,-180 8.01,-180 2.01,-174 2.01,-168 2.01,-168 2.01,-156 2.01,-156 2.01,-150 8.01,-144 14.01,-144 14.01,-144 136.01,-144 136.01,-144 142.01,-144 148.01,-150 148.01,-156 148.01,-156 148.01,-168 148.01,-168 148.01,-174 142.01,-180 136.01,-180"/>
<text text-anchor="middle" x="75.01" y="-159.5" font-family="sans" font-size="10.00">split_sample_concordance</text>
</g>
<!-- 14&#45;&gt;24 -->
<g id="edge43" class="edge">
<title>14&#45;&gt;24</title>
<path fill="none" stroke="grey" stroke-width="2" d="M114.16,-215.7C107.99,-207.39 100.48,-197.28 93.69,-188.14"/>
<polygon fill="grey" stroke="grey" stroke-width="2" points="96.49,-186.04 87.72,-180.1 90.87,-190.22 96.49,-186.04"/>
</g>
<!-- 15 -->
<g id="node16" class="node">
<title>15</title>
<path fill="none" stroke="#56a9d8" stroke-width="2" stroke-dasharray="5,2" d="M203.51,-324C203.51,-324 78.51,-324 78.51,-324 72.51,-324 66.51,-318 66.51,-312 66.51,-312 66.51,-300 66.51,-300 66.51,-294 72.51,-288 78.51,-288 78.51,-288 203.51,-288 203.51,-288 209.51,-288 215.51,-294 215.51,-300 215.51,-300 215.51,-312 215.51,-312 215.51,-318 209.51,-324 203.51,-324"/>
<text text-anchor="middle" x="141.01" y="-303.5" font-family="sans" font-size="10.00">sample_concordance_plink</text>
</g>
<!-- 15&#45;&gt;14 -->
<g id="edge27" class="edge">
<title>15&#45;&gt;14</title>
<path fill="none" stroke="grey" stroke-width="2" d="M137.55,-287.7C136.01,-279.98 134.16,-270.71 132.44,-262.11"/>
<polygon fill="grey" stroke="grey" stroke-width="2" points="135.83,-261.22 130.43,-252.1 128.96,-262.6 135.83,-261.22"/>
</g>
<!-- 16 -->
<g id="node17" class="node">
<title>16</title>
<path fill="none" stroke="#ced856" stroke-width="2" stroke-dasharray="5,2" d="M242.01,-396C242.01,-396 164.01,-396 164.01,-396 158.01,-396 152.01,-390 152.01,-384 152.01,-384 152.01,-372 152.01,-372 152.01,-366 158.01,-360 164.01,-360 164.01,-360 242.01,-360 242.01,-360 248.01,-360 254.01,-366 254.01,-372 254.01,-372 254.01,-384 254.01,-384 254.01,-390 248.01,-396 242.01,-396"/>
<text text-anchor="middle" x="203.01" y="-375.5" font-family="sans" font-size="10.00">sample_level_ibd</text>
</g>
<!-- 16&#45;&gt;15 -->
<g id="edge30" class="edge">
<title>16&#45;&gt;15</title>
<path fill="none" stroke="grey" stroke-width="2" d="M187.69,-359.7C180.25,-351.3 171.19,-341.07 163.03,-331.86"/>
<polygon fill="grey" stroke="grey" stroke-width="2" points="165.41,-329.27 156.16,-324.1 160.17,-333.91 165.41,-329.27"/>
</g>
<!-- 17 -->
<g id="node18" class="node">
<title>17</title>
<path fill="none" stroke="#59d856" stroke-width="2" stroke-dasharray="5,2" d="M320.51,-468C320.51,-468 209.51,-468 209.51,-468 203.51,-468 197.51,-462 197.51,-456 197.51,-456 197.51,-444 197.51,-444 197.51,-438 203.51,-432 209.51,-432 209.51,-432 320.51,-432 320.51,-432 326.51,-432 332.51,-438 332.51,-444 332.51,-444 332.51,-456 332.51,-456 332.51,-462 326.51,-468 320.51,-468"/>
<text text-anchor="middle" x="265.01" y="-447.5" font-family="sans" font-size="10.00">sample_level_ld_pruned</text>
</g>
<!-- 17&#45;&gt;16 -->
<g id="edge31" class="edge">
<title>17&#45;&gt;16</title>
<path fill="none" stroke="grey" stroke-width="2" d="M249.69,-431.7C242.25,-423.3 233.19,-413.07 225.03,-403.86"/>
<polygon fill="grey" stroke="grey" stroke-width="2" points="227.41,-401.27 218.16,-396.1 222.17,-405.91 227.41,-401.27"/>
</g>
<!-- 18&#45;&gt;17 -->
<g id="edge32" class="edge">
<title>18&#45;&gt;17</title>
<path fill="none" stroke="grey" stroke-width="2" d="M356.91,-575.93C359.22,-556.96 360.19,-526.1 347.01,-504 339.47,-491.34 327.59,-481.17 315.19,-473.25"/>
<polygon fill="grey" stroke="grey" stroke-width="2" points="316.96,-470.23 306.57,-468.13 313.38,-476.25 316.96,-470.23"/>
</g>
<!-- 19 -->
<g id="node20" class="node">
<title>19</title>
<path fill="none" stroke="#d88d56" stroke-width="2" stroke-dasharray="5,2" d="M325.51,-540C325.51,-540 204.51,-540 204.51,-540 198.51,-540 192.51,-534 192.51,-528 192.51,-528 192.51,-516 192.51,-516 192.51,-510 198.51,-504 204.51,-504 204.51,-504 325.51,-504 325.51,-504 331.51,-504 337.51,-510 337.51,-516 337.51,-516 337.51,-528 337.51,-528 337.51,-534 331.51,-540 325.51,-540"/>
<text text-anchor="middle" x="265.01" y="-525" font-family="sans" font-size="10.00">sample_level_ld_estimate</text>
<text text-anchor="middle" x="265.01" y="-514" font-family="sans" font-size="10.00">ld: 0.1</text>
</g>
<!-- 18&#45;&gt;19 -->
<g id="edge35" class="edge">
<title>18&#45;&gt;19</title>
<path fill="none" stroke="grey" stroke-width="2" d="M332.01,-575.7C320.8,-566.88 307.01,-556.03 294.86,-546.47"/>
<polygon fill="grey" stroke="grey" stroke-width="2" points="296.78,-543.54 286.76,-540.1 292.46,-549.04 296.78,-543.54"/>
</g>
<!-- 19&#45;&gt;17 -->
<g id="edge33" class="edge">
<title>19&#45;&gt;17</title>
<path fill="none" stroke="grey" stroke-width="2" d="M265.01,-503.7C265.01,-495.98 265.01,-486.71 265.01,-478.11"/>
<polygon fill="grey" stroke="grey" stroke-width="2" points="268.51,-478.1 265.01,-468.1 261.51,-478.1 268.51,-478.1"/>
</g>
<!-- 20&#45;&gt;14 -->
<g id="edge28" class="edge">
<title>20&#45;&gt;14</title>
<path fill="none" stroke="grey" stroke-width="2" d="M262.23,-287.88C237.43,-278.18 206.23,-265.98 180.06,-255.74"/>
<polygon fill="grey" stroke="grey" stroke-width="2" points="181.25,-252.45 170.66,-252.07 178.7,-258.97 181.25,-252.45"/>
</g>
<!-- 21&#45;&gt;14 -->
<g id="edge29" class="edge">
<title>21&#45;&gt;14</title>
<path fill="none" stroke="grey" stroke-width="2" d="M90.86,-503.92C68.55,-463.98 20.09,-362.28 57.01,-288 63.02,-275.93 73.23,-265.87 84.02,-257.88"/>
<polygon fill="grey" stroke="grey" stroke-width="2" points="86.07,-260.71 92.33,-252.17 82.11,-254.95 86.07,-260.71"/>
</g>
<!-- 22&#45;&gt;0 -->
<g id="edge9" class="edge">
<title>22&#45;&gt;0</title>
<path fill="none" stroke="grey" stroke-width="2" d="M569.01,-215.97C672.95,-192.62 820.99,-145.05 758.01,-72 719.6,-27.44 545.1,-19.76 455.48,-18.81"/>
<polygon fill="grey" stroke="grey" stroke-width="2" points="455.28,-15.31 445.25,-18.73 455.22,-22.31 455.28,-15.31"/>
</g>
<!-- 22&#45;&gt;1 -->
<g id="edge16" class="edge">
<title>22&#45;&gt;1</title>
<path fill="none" stroke="grey" stroke-width="2" d="M444.74,-215.88C426.55,-206.51 403.82,-194.81 384.37,-184.8"/>
<polygon fill="grey" stroke="grey" stroke-width="2" points="385.9,-181.65 375.41,-180.19 382.7,-187.88 385.9,-181.65"/>
</g>
<!-- 23&#45;&gt;0 -->
<g id="edge2" class="edge">
<title>23&#45;&gt;0</title>
<path fill="none" stroke="grey" stroke-width="2" d="M839.65,-143.69C832.27,-122.96 816.86,-88.95 791.01,-72 736.83,-36.47 548.57,-24.48 455.27,-20.66"/>
<polygon fill="grey" stroke="grey" stroke-width="2" points="455.32,-17.16 445.19,-20.27 455.05,-24.16 455.32,-17.16"/>
</g>
<!-- 23&#45;&gt;27 -->
<g id="edge47" class="edge">
<title>23&#45;&gt;27</title>
<path fill="none" stroke="grey" stroke-width="2" d="M811.26,-143.88C792.79,-134.51 769.73,-122.81 750,-112.8"/>
<polygon fill="grey" stroke="grey" stroke-width="2" points="751.4,-109.59 740.9,-108.19 748.24,-115.83 751.4,-109.59"/>
</g>
<!-- 24&#45;&gt;0 -->
<g id="edge3" class="edge">
<title>24&#45;&gt;0</title>
<path fill="none" stroke="grey" stroke-width="2" d="M59,-143.79C42.93,-124.41 22.96,-92.9 41.01,-72 80.14,-26.71 258.2,-19.4 348.77,-18.68"/>
<polygon fill="grey" stroke="grey" stroke-width="2" points="348.86,-22.18 358.84,-18.63 348.82,-15.18 348.86,-22.18"/>
</g>
<!-- 25&#45;&gt;0 -->
<g id="edge4" class="edge">
<title>25&#45;&gt;0</title>
<path fill="none" stroke="grey" stroke-width="2" d="M402.01,-71.7C402.01,-63.98 402.01,-54.71 402.01,-46.11"/>
<polygon fill="grey" stroke="grey" stroke-width="2" points="405.51,-46.1 402.01,-36.1 398.51,-46.1 405.51,-46.1"/>
</g>
<!-- 26&#45;&gt;0 -->
<g id="edge5" class="edge">
<title>26&#45;&gt;0</title>
<path fill="none" stroke="grey" stroke-width="2" d="M529.67,-71.88C506.47,-62.26 477.32,-50.19 452.74,-40.01"/>
<polygon fill="grey" stroke="grey" stroke-width="2" points="453.8,-36.66 443.22,-36.07 451.12,-43.13 453.8,-36.66"/>
</g>
<!-- 27&#45;&gt;0 -->
<g id="edge6" class="edge">
<title>27&#45;&gt;0</title>
<path fill="none" stroke="grey" stroke-width="2" d="M665.38,-74.69C662.23,-73.73 659.08,-72.83 656.01,-72 587.31,-53.45 506.68,-37.61 455,-28.2"/>
<polygon fill="grey" stroke="grey" stroke-width="2" points="455.53,-24.74 445.07,-26.41 454.29,-31.63 455.53,-24.74"/>
</g>
<!-- 28&#45;&gt;0 -->
<g id="edge7" class="edge">
<title>28&#45;&gt;0</title>
<path fill="none" stroke="grey" stroke-width="2" d="M169.71,-74.03C172.51,-73.34 175.29,-72.66 178.01,-72 236.31,-57.82 303.28,-42.04 348.69,-31.42"/>
<polygon fill="grey" stroke="grey" stroke-width="2" points="349.67,-34.78 358.61,-29.1 348.08,-27.97 349.67,-34.78"/>
</g>
<!-- 29&#45;&gt;0 -->
<g id="edge8" class="edge">
<title>29&#45;&gt;0</title>
<path fill="none" stroke="grey" stroke-width="2" d="M270.89,-72.05C294.83,-62.37 325.05,-50.14 350.45,-39.86"/>
<polygon fill="grey" stroke="grey" stroke-width="2" points="351.96,-43.03 359.92,-36.03 349.34,-36.54 351.96,-43.03"/>
</g>
</g>
</svg>
