<?xml version="1.0" encoding="UTF-8" standalone="no"?>
<!DOCTYPE svg PUBLIC "-//W3C//DTD SVG 1.1//EN"
 "http://www.w3.org/Graphics/SVG/1.1/DTD/svg11.dtd">
<!-- Generated by graphviz version 2.44.0 (0)
 -->
<!-- Title: snakemake_dag Pages: 1 -->
<svg width="1077pt" height="1556pt"
 viewBox="0.00 0.00 1077.00 1556.00" xmlns="http://www.w3.org/2000/svg" xmlns:xlink="http://www.w3.org/1999/xlink">
<g id="graph0" class="graph" transform="scale(1 1) rotate(0) translate(4 1552)">
<title>snakemake_dag</title>
<polygon fill="white" stroke="transparent" points="-4,4 -4,-1552 1073,-1552 1073,4 -4,4"/>
<!-- 0 -->
<g id="node1" class="node">
<title>0</title>
<path fill="none" stroke="#b6d856" stroke-width="2" stroke-dasharray="5,2" d="M207,-36C207,-36 145,-36 145,-36 139,-36 133,-30 133,-24 133,-24 133,-12 133,-12 133,-6 139,0 145,0 145,0 207,0 207,0 213,0 219,-6 219,-12 219,-12 219,-24 219,-24 219,-30 213,-36 207,-36"/>
<text text-anchor="middle" x="176" y="-15.5" font-family="sans" font-size="10.00">all_subject_qc</text>
</g>
<!-- 1 -->
<g id="node2" class="node">
<title>1</title>
<path fill="none" stroke="#d8b456" stroke-width="2" stroke-dasharray="5,2" d="M439,-1548C439,-1548 365,-1548 365,-1548 359,-1548 353,-1542 353,-1536 353,-1536 353,-1524 353,-1524 353,-1518 359,-1512 365,-1512 365,-1512 439,-1512 439,-1512 445,-1512 451,-1518 451,-1524 451,-1524 451,-1536 451,-1536 451,-1542 445,-1548 439,-1548"/>
<text text-anchor="middle" x="402" y="-1527.5" font-family="sans" font-size="10.00">subject_qc_table</text>
</g>
<!-- 1&#45;&gt;0 -->
<g id="edge1" class="edge">
<title>1&#45;&gt;0</title>
<path fill="none" stroke="grey" stroke-width="2" d="M352.78,-1526.61C294.52,-1522.27 195.6,-1510.1 118,-1476 57.86,-1449.57 0,-1452.69 0,-1387 0,-1387 0,-1387 0,-161 0,-116.87 11.62,-101.97 44,-72 65.94,-51.7 96.64,-38.75 122.91,-30.73"/>
<polygon fill="grey" stroke="grey" stroke-width="2" points="124.1,-34.03 132.74,-27.9 122.16,-27.31 124.1,-34.03"/>
</g>
<!-- 3 -->
<g id="node4" class="node">
<title>3</title>
<path fill="none" stroke="#569ad8" stroke-width="2" stroke-dasharray="5,2" d="M235,-1476C235,-1476 139,-1476 139,-1476 133,-1476 127,-1470 127,-1464 127,-1464 127,-1452 127,-1452 127,-1446 133,-1440 139,-1440 139,-1440 235,-1440 235,-1440 241,-1440 247,-1446 247,-1452 247,-1452 247,-1464 247,-1464 247,-1470 241,-1476 235,-1476"/>
<text text-anchor="middle" x="187" y="-1455.5" font-family="sans" font-size="10.00">selected_Subject_IDs</text>
</g>
<!-- 1&#45;&gt;3 -->
<g id="edge9" class="edge">
<title>1&#45;&gt;3</title>
<path fill="none" stroke="grey" stroke-width="2" d="M352.94,-1513.03C322.04,-1502.97 281.87,-1489.89 248.79,-1479.12"/>
<polygon fill="grey" stroke="grey" stroke-width="2" points="249.81,-1475.77 239.22,-1476 247.65,-1482.43 249.81,-1475.77"/>
</g>
<!-- 11 -->
<g id="node12" class="node">
<title>11</title>
<path fill="none" stroke="#70d856" stroke-width="2" stroke-dasharray="5,2" d="M455.5,-1332C455.5,-1332 348.5,-1332 348.5,-1332 342.5,-1332 336.5,-1326 336.5,-1320 336.5,-1320 336.5,-1308 336.5,-1308 336.5,-1302 342.5,-1296 348.5,-1296 348.5,-1296 455.5,-1296 455.5,-1296 461.5,-1296 467.5,-1302 467.5,-1308 467.5,-1308 467.5,-1320 467.5,-1320 467.5,-1326 461.5,-1332 455.5,-1332"/>
<text text-anchor="middle" x="402" y="-1317" font-family="sans" font-size="10.00">population_Subject_IDs</text>
<text text-anchor="middle" x="402" y="-1306" font-family="sans" font-size="10.00">population: European</text>
</g>
<!-- 1&#45;&gt;11 -->
<g id="edge20" class="edge">
<title>1&#45;&gt;11</title>
<path fill="none" stroke="grey" stroke-width="2" d="M402,-1511.85C402,-1474.83 402,-1387.18 402,-1342.39"/>
<polygon fill="grey" stroke="grey" stroke-width="2" points="405.5,-1342.23 402,-1332.23 398.5,-1342.23 405.5,-1342.23"/>
</g>
<!-- 13 -->
<g id="node14" class="node">
<title>13</title>
<path fill="none" stroke="#ced856" stroke-width="2" stroke-dasharray="5,2" d="M235.5,-108C235.5,-108 116.5,-108 116.5,-108 110.5,-108 104.5,-102 104.5,-96 104.5,-96 104.5,-84 104.5,-84 104.5,-78 110.5,-72 116.5,-72 116.5,-72 235.5,-72 235.5,-72 241.5,-72 247.5,-78 247.5,-84 247.5,-84 247.5,-96 247.5,-96 247.5,-102 241.5,-108 235.5,-108"/>
<text text-anchor="middle" x="176" y="-87.5" font-family="sans" font-size="10.00">agg_population_qc_tables</text>
</g>
<!-- 1&#45;&gt;13 -->
<g id="edge22" class="edge">
<title>1&#45;&gt;13</title>
<path fill="none" stroke="grey" stroke-width="2" d="M393.64,-1511.81C373.65,-1471.65 320.19,-1369.5 259,-1296 213.09,-1240.85 174.91,-1250.12 139,-1188 118.76,-1152.98 120,-1139.45 120,-1099 120,-1099 120,-1099 120,-233 120,-189.91 142.6,-144.26 159.08,-116.7"/>
<polygon fill="grey" stroke="grey" stroke-width="2" points="162.13,-118.42 164.4,-108.07 156.17,-114.75 162.13,-118.42"/>
</g>
<!-- 26 -->
<g id="node27" class="node">
<title>26</title>
<path fill="none" stroke="#56a9d8" stroke-width="2" stroke-dasharray="5,2" d="M815,-180C815,-180 781,-180 781,-180 775,-180 769,-174 769,-168 769,-168 769,-156 769,-156 769,-150 775,-144 781,-144 781,-144 815,-144 815,-144 821,-144 827,-150 827,-156 827,-156 827,-168 827,-168 827,-174 821,-180 815,-180"/>
<text text-anchor="middle" x="798" y="-159.5" font-family="sans" font-size="10.00">plot_pca</text>
</g>
<!-- 1&#45;&gt;26 -->
<g id="edge41" class="edge">
<title>1&#45;&gt;26</title>
<path fill="none" stroke="grey" stroke-width="2" d="M451.3,-1524.63C571.72,-1512.61 871,-1473.99 871,-1387 871,-1387 871,-1387 871,-1169 871,-880.16 942,-811.84 942,-523 942,-523 942,-523 942,-305 942,-245.47 878.83,-202.5 836.17,-180.27"/>
<polygon fill="grey" stroke="grey" stroke-width="2" points="837.64,-177.1 827.14,-175.72 834.49,-183.35 837.64,-177.1"/>
</g>
<!-- 27 -->
<g id="node28" class="node">
<title>27</title>
<path fill="none" stroke="#c6d856" stroke-width="2" stroke-dasharray="5,2" d="M1057,-1116C1057,-1116 911,-1116 911,-1116 905,-1116 899,-1110 899,-1104 899,-1104 899,-1092 899,-1092 899,-1086 905,-1080 911,-1080 911,-1080 1057,-1080 1057,-1080 1063,-1080 1069,-1086 1069,-1092 1069,-1092 1069,-1104 1069,-1104 1069,-1110 1063,-1116 1057,-1116"/>
<text text-anchor="middle" x="984" y="-1095.5" font-family="sans" font-size="10.00">plot_autosomal_heterozygosity</text>
</g>
<!-- 1&#45;&gt;27 -->
<g id="edge43" class="edge">
<title>1&#45;&gt;27</title>
<path fill="none" stroke="grey" stroke-width="2" d="M451.24,-1528.72C559.17,-1527.29 812.72,-1519.29 885,-1476 926.14,-1451.36 946,-1434.95 946,-1387 946,-1387 946,-1387 946,-1241 946,-1199.63 961.23,-1153.72 972.41,-1125.61"/>
<polygon fill="grey" stroke="grey" stroke-width="2" points="975.76,-1126.67 976.31,-1116.09 969.28,-1124.02 975.76,-1126.67"/>
</g>
<!-- 35 -->
<g id="node36" class="node">
<title>35</title>
<path fill="none" stroke="#d8ac56" stroke-width="2" stroke-dasharray="5,2" d="M745.5,-1404C745.5,-1404 594.5,-1404 594.5,-1404 588.5,-1404 582.5,-1398 582.5,-1392 582.5,-1392 582.5,-1380 582.5,-1380 582.5,-1374 588.5,-1368 594.5,-1368 594.5,-1368 745.5,-1368 745.5,-1368 751.5,-1368 757.5,-1374 757.5,-1380 757.5,-1380 757.5,-1392 757.5,-1392 757.5,-1398 751.5,-1404 745.5,-1404"/>
<text text-anchor="middle" x="670" y="-1389" font-family="sans" font-size="10.00">population_controls_Subject_IDs</text>
<text text-anchor="middle" x="670" y="-1378" font-family="sans" font-size="10.00">population: European</text>
</g>
<!-- 1&#45;&gt;35 -->
<g id="edge53" class="edge">
<title>1&#45;&gt;35</title>
<path fill="none" stroke="grey" stroke-width="2" d="M434.33,-1511.87C483.02,-1486.07 575.17,-1437.25 628.68,-1408.9"/>
<polygon fill="grey" stroke="grey" stroke-width="2" points="630.36,-1411.96 637.56,-1404.19 627.08,-1405.78 630.36,-1411.96"/>
</g>
<!-- 2 -->
<g id="node3" class="node">
<title>2</title>
<path fill="none" stroke="#56b9d8" stroke-width="2" stroke-dasharray="5,2" d="M146.5,-1404C146.5,-1404 43.5,-1404 43.5,-1404 37.5,-1404 31.5,-1398 31.5,-1392 31.5,-1392 31.5,-1380 31.5,-1380 31.5,-1374 37.5,-1368 43.5,-1368 43.5,-1368 146.5,-1368 146.5,-1368 152.5,-1368 158.5,-1374 158.5,-1380 158.5,-1380 158.5,-1392 158.5,-1392 158.5,-1398 152.5,-1404 146.5,-1404"/>
<text text-anchor="middle" x="95" y="-1383.5" font-family="sans" font-size="10.00">pull_selected_subjects</text>
</g>
<!-- 2&#45;&gt;0 -->
<g id="edge2" class="edge">
<title>2&#45;&gt;0</title>
<path fill="none" stroke="grey" stroke-width="2" d="M80.02,-1367.97C72.06,-1358.09 62.77,-1345.05 57,-1332 40.65,-1295.01 38,-1283.45 38,-1243 38,-1243 38,-1243 38,-161 38,-118.16 46.09,-103.61 75,-72 88.19,-57.57 106.23,-46.39 123.41,-38.1"/>
<polygon fill="grey" stroke="grey" stroke-width="2" points="125.2,-41.13 132.84,-33.79 122.29,-34.77 125.2,-41.13"/>
</g>
<!-- 4 -->
<g id="node5" class="node">
<title>4</title>
<path fill="none" stroke="#56d89a" stroke-width="2" stroke-dasharray="5,2" d="M238,-1332C238,-1332 78,-1332 78,-1332 72,-1332 66,-1326 66,-1320 66,-1320 66,-1308 66,-1308 66,-1302 72,-1296 78,-1296 78,-1296 238,-1296 238,-1296 244,-1296 250,-1302 250,-1308 250,-1308 250,-1320 250,-1320 250,-1326 244,-1332 238,-1332"/>
<text text-anchor="middle" x="158" y="-1311.5" font-family="sans" font-size="10.00">rename_Sample_ID_to_Subject_ID</text>
</g>
<!-- 2&#45;&gt;4 -->
<g id="edge10" class="edge">
<title>2&#45;&gt;4</title>
<path fill="none" stroke="grey" stroke-width="2" d="M110.57,-1367.7C118.2,-1359.22 127.52,-1348.86 135.88,-1339.58"/>
<polygon fill="grey" stroke="grey" stroke-width="2" points="138.52,-1341.88 142.61,-1332.1 133.31,-1337.2 138.52,-1341.88"/>
</g>
<!-- 3&#45;&gt;2 -->
<g id="edge8" class="edge">
<title>3&#45;&gt;2</title>
<path fill="none" stroke="grey" stroke-width="2" d="M164.26,-1439.7C152.56,-1430.8 138.14,-1419.82 125.49,-1410.2"/>
<polygon fill="grey" stroke="grey" stroke-width="2" points="127.56,-1407.37 117.48,-1404.1 123.32,-1412.94 127.56,-1407.37"/>
</g>
<!-- 3&#45;&gt;4 -->
<g id="edge11" class="edge">
<title>3&#45;&gt;4</title>
<path fill="none" stroke="grey" stroke-width="2" d="M183.5,-1439.87C178.54,-1415.56 169.4,-1370.82 163.52,-1342.01"/>
<polygon fill="grey" stroke="grey" stroke-width="2" points="166.94,-1341.29 161.51,-1332.19 160.08,-1342.69 166.94,-1341.29"/>
</g>
<!-- 4&#45;&gt;0 -->
<g id="edge3" class="edge">
<title>4&#45;&gt;0</title>
<path fill="none" stroke="grey" stroke-width="2" d="M139.8,-1295.6C115.64,-1270.53 76,-1221.67 76,-1171 76,-1171 76,-1171 76,-161 76,-120.55 72.13,-105.36 95,-72 103.49,-59.61 115.93,-49.41 128.52,-41.39"/>
<polygon fill="grey" stroke="grey" stroke-width="2" points="130.43,-44.32 137.21,-36.17 126.83,-38.31 130.43,-44.32"/>
</g>
<!-- 10 -->
<g id="node11" class="node">
<title>10</title>
<path fill="none" stroke="#56d8b9" stroke-width="2" stroke-dasharray="5,2" d="M473.5,-1260C473.5,-1260 330.5,-1260 330.5,-1260 324.5,-1260 318.5,-1254 318.5,-1248 318.5,-1248 318.5,-1236 318.5,-1236 318.5,-1230 324.5,-1224 330.5,-1224 330.5,-1224 473.5,-1224 473.5,-1224 479.5,-1224 485.5,-1230 485.5,-1236 485.5,-1236 485.5,-1248 485.5,-1248 485.5,-1254 479.5,-1260 473.5,-1260"/>
<text text-anchor="middle" x="402" y="-1239.5" font-family="sans" font-size="10.00">pull_population_level_subjects</text>
</g>
<!-- 4&#45;&gt;10 -->
<g id="edge18" class="edge">
<title>4&#45;&gt;10</title>
<path fill="none" stroke="grey" stroke-width="2" d="M217.38,-1295.97C252.06,-1286.01 296.01,-1273.41 332.33,-1262.99"/>
<polygon fill="grey" stroke="grey" stroke-width="2" points="333.71,-1266.23 342.36,-1260.11 331.78,-1259.5 333.71,-1266.23"/>
</g>
<!-- 5 -->
<g id="node6" class="node">
<title>5</title>
<path fill="none" stroke="#5682d8" stroke-width="2" stroke-dasharray="5,2" d="M294,-756C294,-756 160,-756 160,-756 154,-756 148,-750 148,-744 148,-744 148,-732 148,-732 148,-726 154,-720 160,-720 160,-720 294,-720 294,-720 300,-720 306,-726 306,-732 306,-732 306,-744 306,-744 306,-750 300,-756 294,-756"/>
<text text-anchor="middle" x="227" y="-735.5" font-family="sans" font-size="10.00">agg_population_concordance</text>
</g>
<!-- 5&#45;&gt;0 -->
<g id="edge4" class="edge">
<title>5&#45;&gt;0</title>
<path fill="none" stroke="grey" stroke-width="2" d="M237.15,-719.73C251.51,-693.64 276,-642.2 276,-595 276,-595 276,-595 276,-161 276,-120.55 279.87,-105.36 257,-72 248.51,-59.61 236.07,-49.41 223.48,-41.39"/>
<polygon fill="grey" stroke="grey" stroke-width="2" points="225.17,-38.31 214.79,-36.17 221.57,-44.32 225.17,-38.31"/>
</g>
<!-- 6 -->
<g id="node7" class="node">
<title>6</title>
<path fill="none" stroke="#56d863" stroke-width="2" stroke-dasharray="5,2" d="M357,-900C357,-900 187,-900 187,-900 181,-900 175,-894 175,-888 175,-888 175,-876 175,-876 175,-870 181,-864 187,-864 187,-864 357,-864 357,-864 363,-864 369,-870 369,-876 369,-876 369,-888 369,-888 369,-894 363,-900 357,-900"/>
<text text-anchor="middle" x="272" y="-879.5" font-family="sans" font-size="10.00">population_level_concordance_plink</text>
</g>
<!-- 6&#45;&gt;5 -->
<g id="edge12" class="edge">
<title>6&#45;&gt;5</title>
<path fill="none" stroke="grey" stroke-width="2" d="M235.97,-863.81C222.08,-855.16 207.7,-843.24 200,-828 189.78,-807.78 198.87,-783 209.18,-764.72"/>
<polygon fill="grey" stroke="grey" stroke-width="2" points="212.23,-766.43 214.42,-756.07 206.24,-762.81 212.23,-766.43"/>
</g>
<!-- 15 -->
<g id="node16" class="node">
<title>15</title>
<path fill="none" stroke="#56d8a9" stroke-width="2" stroke-dasharray="5,2" d="M380.5,-828C380.5,-828 221.5,-828 221.5,-828 215.5,-828 209.5,-822 209.5,-816 209.5,-816 209.5,-804 209.5,-804 209.5,-798 215.5,-792 221.5,-792 221.5,-792 380.5,-792 380.5,-792 386.5,-792 392.5,-798 392.5,-804 392.5,-804 392.5,-816 392.5,-816 392.5,-822 386.5,-828 380.5,-828"/>
<text text-anchor="middle" x="301" y="-807.5" font-family="sans" font-size="10.00">population_level_related_subjects</text>
</g>
<!-- 6&#45;&gt;15 -->
<g id="edge27" class="edge">
<title>6&#45;&gt;15</title>
<path fill="none" stroke="grey" stroke-width="2" d="M279.17,-863.7C282.43,-855.81 286.37,-846.3 290,-837.55"/>
<polygon fill="grey" stroke="grey" stroke-width="2" points="293.32,-838.68 293.91,-828.1 286.85,-836 293.32,-838.68"/>
</g>
<!-- 7 -->
<g id="node8" class="node">
<title>7</title>
<path fill="none" stroke="#80d856" stroke-width="2" stroke-dasharray="5,2" d="M319,-972C319,-972 225,-972 225,-972 219,-972 213,-966 213,-960 213,-960 213,-948 213,-948 213,-942 219,-936 225,-936 225,-936 319,-936 319,-936 325,-936 331,-942 331,-948 331,-948 331,-960 331,-960 331,-966 325,-972 319,-972"/>
<text text-anchor="middle" x="272" y="-951.5" font-family="sans" font-size="10.00">population_level_ibd</text>
</g>
<!-- 7&#45;&gt;6 -->
<g id="edge13" class="edge">
<title>7&#45;&gt;6</title>
<path fill="none" stroke="grey" stroke-width="2" d="M272,-935.7C272,-927.98 272,-918.71 272,-910.11"/>
<polygon fill="grey" stroke="grey" stroke-width="2" points="275.5,-910.1 272,-900.1 268.5,-910.1 275.5,-910.1"/>
</g>
<!-- 8 -->
<g id="node9" class="node">
<title>8</title>
<path fill="none" stroke="#56d88a" stroke-width="2" stroke-dasharray="5,2" d="M335.5,-1044C335.5,-1044 208.5,-1044 208.5,-1044 202.5,-1044 196.5,-1038 196.5,-1032 196.5,-1032 196.5,-1020 196.5,-1020 196.5,-1014 202.5,-1008 208.5,-1008 208.5,-1008 335.5,-1008 335.5,-1008 341.5,-1008 347.5,-1014 347.5,-1020 347.5,-1020 347.5,-1032 347.5,-1032 347.5,-1038 341.5,-1044 335.5,-1044"/>
<text text-anchor="middle" x="272" y="-1023.5" font-family="sans" font-size="10.00">population_level_ld_pruned</text>
</g>
<!-- 8&#45;&gt;7 -->
<g id="edge14" class="edge">
<title>8&#45;&gt;7</title>
<path fill="none" stroke="grey" stroke-width="2" d="M272,-1007.7C272,-999.98 272,-990.71 272,-982.11"/>
<polygon fill="grey" stroke="grey" stroke-width="2" points="275.5,-982.1 272,-972.1 268.5,-982.1 275.5,-982.1"/>
</g>
<!-- 9 -->
<g id="node10" class="node">
<title>9</title>
<path fill="none" stroke="#d86656" stroke-width="2" stroke-dasharray="5,2" d="M286,-1188C286,-1188 160,-1188 160,-1188 154,-1188 148,-1182 148,-1176 148,-1176 148,-1164 148,-1164 148,-1158 154,-1152 160,-1152 160,-1152 286,-1152 286,-1152 292,-1152 298,-1158 298,-1164 298,-1164 298,-1176 298,-1176 298,-1182 292,-1188 286,-1188"/>
<text text-anchor="middle" x="223" y="-1173" font-family="sans" font-size="10.00">population_level_maf_filter</text>
<text text-anchor="middle" x="223" y="-1162" font-family="sans" font-size="10.00">maf: 0.2</text>
</g>
<!-- 9&#45;&gt;8 -->
<g id="edge15" class="edge">
<title>9&#45;&gt;8</title>
<path fill="none" stroke="grey" stroke-width="2" d="M208.27,-1151.98C194.26,-1133.59 177.08,-1103.74 190,-1080 196.91,-1067.3 208.32,-1057.18 220.46,-1049.33"/>
<polygon fill="grey" stroke="grey" stroke-width="2" points="222.59,-1052.14 229.38,-1044.01 219,-1046.13 222.59,-1052.14"/>
</g>
<!-- 12 -->
<g id="node13" class="node">
<title>12</title>
<path fill="none" stroke="#5673d8" stroke-width="2" stroke-dasharray="5,2" d="M348.5,-1116C348.5,-1116 211.5,-1116 211.5,-1116 205.5,-1116 199.5,-1110 199.5,-1104 199.5,-1104 199.5,-1092 199.5,-1092 199.5,-1086 205.5,-1080 211.5,-1080 211.5,-1080 348.5,-1080 348.5,-1080 354.5,-1080 360.5,-1086 360.5,-1092 360.5,-1092 360.5,-1104 360.5,-1104 360.5,-1110 354.5,-1116 348.5,-1116"/>
<text text-anchor="middle" x="280" y="-1101" font-family="sans" font-size="10.00">population_level_ld_estimate</text>
<text text-anchor="middle" x="280" y="-1090" font-family="sans" font-size="10.00">ld: 0.1</text>
</g>
<!-- 9&#45;&gt;12 -->
<g id="edge21" class="edge">
<title>9&#45;&gt;12</title>
<path fill="none" stroke="grey" stroke-width="2" d="M237.09,-1151.7C243.92,-1143.3 252.26,-1133.07 259.76,-1123.86"/>
<polygon fill="grey" stroke="grey" stroke-width="2" points="262.47,-1126.07 266.07,-1116.1 257.04,-1121.65 262.47,-1126.07"/>
</g>
<!-- 10&#45;&gt;9 -->
<g id="edge17" class="edge">
<title>10&#45;&gt;9</title>
<path fill="none" stroke="grey" stroke-width="2" d="M358.21,-1223.88C333.42,-1214.18 302.22,-1201.98 276.04,-1191.74"/>
<polygon fill="grey" stroke="grey" stroke-width="2" points="277.23,-1188.45 266.65,-1188.07 274.68,-1194.97 277.23,-1188.45"/>
</g>
<!-- 22 -->
<g id="node23" class="node">
<title>22</title>
<path fill="none" stroke="#8fd856" stroke-width="2" stroke-dasharray="5,2" d="M665,-756C665,-756 463,-756 463,-756 457,-756 451,-750 451,-744 451,-744 451,-732 451,-732 451,-726 457,-720 463,-720 463,-720 665,-720 665,-720 671,-720 677,-726 677,-732 677,-732 677,-744 677,-744 677,-750 671,-756 665,-756"/>
<text text-anchor="middle" x="564" y="-735.5" font-family="sans" font-size="10.00">population_level_remove_related_subjects</text>
</g>
<!-- 10&#45;&gt;22 -->
<g id="edge35" class="edge">
<title>10&#45;&gt;22</title>
<path fill="none" stroke="grey" stroke-width="2" d="M485.75,-1229.53C512.56,-1221.88 540.15,-1209.16 559,-1188 585.91,-1157.8 578,-1139.45 578,-1099 578,-1099 578,-1099 578,-881 578,-841.02 572.44,-795.02 568.32,-766.47"/>
<polygon fill="grey" stroke="grey" stroke-width="2" points="571.76,-765.81 566.83,-756.43 564.84,-766.84 571.76,-765.81"/>
</g>
<!-- 24 -->
<g id="node25" class="node">
<title>24</title>
<path fill="none" stroke="#d85656" stroke-width="2" stroke-dasharray="5,2" d="M537.5,-1188C537.5,-1188 328.5,-1188 328.5,-1188 322.5,-1188 316.5,-1182 316.5,-1176 316.5,-1176 316.5,-1164 316.5,-1164 316.5,-1158 322.5,-1152 328.5,-1152 328.5,-1152 537.5,-1152 537.5,-1152 543.5,-1152 549.5,-1158 549.5,-1164 549.5,-1164 549.5,-1176 549.5,-1176 549.5,-1182 543.5,-1188 537.5,-1188"/>
<text text-anchor="middle" x="433" y="-1167.5" font-family="sans" font-size="10.00">population_level_autosomal_heterozygosity</text>
</g>
<!-- 10&#45;&gt;24 -->
<g id="edge38" class="edge">
<title>10&#45;&gt;24</title>
<path fill="none" stroke="grey" stroke-width="2" d="M409.66,-1223.7C413.19,-1215.73 417.46,-1206.1 421.37,-1197.26"/>
<polygon fill="grey" stroke="grey" stroke-width="2" points="424.58,-1198.67 425.43,-1188.1 418.18,-1195.83 424.58,-1198.67"/>
</g>
<!-- 11&#45;&gt;10 -->
<g id="edge19" class="edge">
<title>11&#45;&gt;10</title>
<path fill="none" stroke="grey" stroke-width="2" d="M402,-1295.7C402,-1287.98 402,-1278.71 402,-1270.11"/>
<polygon fill="grey" stroke="grey" stroke-width="2" points="405.5,-1270.1 402,-1260.1 398.5,-1270.1 405.5,-1270.1"/>
</g>
<!-- 12&#45;&gt;8 -->
<g id="edge16" class="edge">
<title>12&#45;&gt;8</title>
<path fill="none" stroke="grey" stroke-width="2" d="M278.02,-1079.7C277.14,-1071.98 276.08,-1062.71 275.1,-1054.11"/>
<polygon fill="grey" stroke="grey" stroke-width="2" points="278.57,-1053.64 273.95,-1044.1 271.61,-1054.44 278.57,-1053.64"/>
</g>
<!-- 13&#45;&gt;0 -->
<g id="edge5" class="edge">
<title>13&#45;&gt;0</title>
<path fill="none" stroke="grey" stroke-width="2" d="M176,-71.7C176,-63.98 176,-54.71 176,-46.11"/>
<polygon fill="grey" stroke="grey" stroke-width="2" points="179.5,-46.1 176,-36.1 172.5,-46.1 179.5,-46.1"/>
</g>
<!-- 14 -->
<g id="node15" class="node">
<title>14</title>
<path fill="none" stroke="#d89c56" stroke-width="2" stroke-dasharray="5,2" d="M428,-180C428,-180 316,-180 316,-180 310,-180 304,-174 304,-168 304,-168 304,-156 304,-156 304,-150 310,-144 316,-144 316,-144 428,-144 428,-144 434,-144 440,-150 440,-156 440,-156 440,-168 440,-168 440,-174 434,-180 428,-180"/>
<text text-anchor="middle" x="372" y="-159.5" font-family="sans" font-size="10.00">per_population_qc_table</text>
</g>
<!-- 14&#45;&gt;13 -->
<g id="edge23" class="edge">
<title>14&#45;&gt;13</title>
<path fill="none" stroke="grey" stroke-width="2" d="M324.3,-143.97C296.92,-134.19 262.34,-121.84 233.47,-111.52"/>
<polygon fill="grey" stroke="grey" stroke-width="2" points="234.5,-108.18 223.91,-108.11 232.15,-114.77 234.5,-108.18"/>
</g>
<!-- 15&#45;&gt;14 -->
<g id="edge24" class="edge">
<title>15&#45;&gt;14</title>
<path fill="none" stroke="grey" stroke-width="2" d="M307.68,-791.81C317.32,-765.4 334,-713.06 334,-667 334,-667 334,-667 334,-305 334,-263.63 349.23,-217.72 360.41,-189.61"/>
<polygon fill="grey" stroke="grey" stroke-width="2" points="363.76,-190.67 364.31,-180.09 357.28,-188.02 363.76,-190.67"/>
</g>
<!-- 15&#45;&gt;22 -->
<g id="edge36" class="edge">
<title>15&#45;&gt;22</title>
<path fill="none" stroke="grey" stroke-width="2" d="M365,-791.97C402.71,-781.93 450.57,-769.19 489.91,-758.72"/>
<polygon fill="grey" stroke="grey" stroke-width="2" points="490.95,-762.07 499.71,-756.11 489.15,-755.3 490.95,-762.07"/>
</g>
<!-- 16 -->
<g id="node17" class="node">
<title>16</title>
<path fill="none" stroke="#d87d56" stroke-width="2" stroke-dasharray="5,2" d="M624,-252C624,-252 448,-252 448,-252 442,-252 436,-246 436,-240 436,-240 436,-228 436,-228 436,-222 442,-216 448,-216 448,-216 624,-216 624,-216 630,-216 636,-222 636,-228 636,-228 636,-240 636,-240 636,-246 630,-252 624,-252"/>
<text text-anchor="middle" x="536" y="-231.5" font-family="sans" font-size="10.00">population_level_unrelated_smartpca</text>
</g>
<!-- 16&#45;&gt;14 -->
<g id="edge25" class="edge">
<title>16&#45;&gt;14</title>
<path fill="none" stroke="grey" stroke-width="2" d="M495.88,-215.88C473.36,-206.26 445.08,-194.19 421.23,-184.01"/>
<polygon fill="grey" stroke="grey" stroke-width="2" points="422.56,-180.77 411.99,-180.07 419.81,-187.21 422.56,-180.77"/>
</g>
<!-- 16&#45;&gt;26 -->
<g id="edge42" class="edge">
<title>16&#45;&gt;26</title>
<path fill="none" stroke="grey" stroke-width="2" d="M599.76,-215.97C649.43,-202.69 716.81,-184.69 758.83,-173.47"/>
<polygon fill="grey" stroke="grey" stroke-width="2" points="759.92,-176.8 768.68,-170.83 758.11,-170.03 759.92,-176.8"/>
</g>
<!-- 17 -->
<g id="node18" class="node">
<title>17</title>
<path fill="none" stroke="#97d856" stroke-width="2" stroke-dasharray="5,2" d="M652.5,-324C652.5,-324 419.5,-324 419.5,-324 413.5,-324 407.5,-318 407.5,-312 407.5,-312 407.5,-300 407.5,-300 407.5,-294 413.5,-288 419.5,-288 419.5,-288 652.5,-288 652.5,-288 658.5,-288 664.5,-294 664.5,-300 664.5,-300 664.5,-312 664.5,-312 664.5,-318 658.5,-324 652.5,-324"/>
<text text-anchor="middle" x="536" y="-303.5" font-family="sans" font-size="10.00">population_level_unrelated_convert_to_eigensoft</text>
</g>
<!-- 17&#45;&gt;16 -->
<g id="edge28" class="edge">
<title>17&#45;&gt;16</title>
<path fill="none" stroke="grey" stroke-width="2" d="M536,-287.7C536,-279.98 536,-270.71 536,-262.11"/>
<polygon fill="grey" stroke="grey" stroke-width="2" points="539.5,-262.1 536,-252.1 532.5,-262.1 539.5,-262.1"/>
</g>
<!-- 18 -->
<g id="node19" class="node">
<title>18</title>
<path fill="none" stroke="#d87556" stroke-width="2" stroke-dasharray="5,2" d="M552,-396C552,-396 520,-396 520,-396 514,-396 508,-390 508,-384 508,-384 508,-372 508,-372 508,-366 514,-360 520,-360 520,-360 552,-360 552,-360 558,-360 564,-366 564,-372 564,-372 564,-384 564,-384 564,-390 558,-396 552,-396"/>
<text text-anchor="middle" x="536" y="-375.5" font-family="sans" font-size="10.00">trim_ids</text>
</g>
<!-- 18&#45;&gt;17 -->
<g id="edge29" class="edge">
<title>18&#45;&gt;17</title>
<path fill="none" stroke="grey" stroke-width="2" d="M536,-359.7C536,-351.98 536,-342.71 536,-334.11"/>
<polygon fill="grey" stroke="grey" stroke-width="2" points="539.5,-334.1 536,-324.1 532.5,-334.1 539.5,-334.1"/>
</g>
<!-- 19 -->
<g id="node20" class="node">
<title>19</title>
<path fill="none" stroke="#d8c356" stroke-width="2" stroke-dasharray="5,2" d="M629.5,-468C629.5,-468 442.5,-468 442.5,-468 436.5,-468 430.5,-462 430.5,-456 430.5,-456 430.5,-444 430.5,-444 430.5,-438 436.5,-432 442.5,-432 442.5,-432 629.5,-432 629.5,-432 635.5,-432 641.5,-438 641.5,-444 641.5,-444 641.5,-456 641.5,-456 641.5,-462 635.5,-468 629.5,-468"/>
<text text-anchor="middle" x="536" y="-447.5" font-family="sans" font-size="10.00">population_level_unrelated_bed_to_ped</text>
</g>
<!-- 19&#45;&gt;18 -->
<g id="edge30" class="edge">
<title>19&#45;&gt;18</title>
<path fill="none" stroke="grey" stroke-width="2" d="M536,-431.7C536,-423.98 536,-414.71 536,-406.11"/>
<polygon fill="grey" stroke="grey" stroke-width="2" points="539.5,-406.1 536,-396.1 532.5,-406.1 539.5,-406.1"/>
</g>
<!-- 20 -->
<g id="node21" class="node">
<title>20</title>
<path fill="none" stroke="#568ad8" stroke-width="2" stroke-dasharray="5,2" d="M625.5,-540C625.5,-540 446.5,-540 446.5,-540 440.5,-540 434.5,-534 434.5,-528 434.5,-528 434.5,-516 434.5,-516 434.5,-510 440.5,-504 446.5,-504 446.5,-504 625.5,-504 625.5,-504 631.5,-504 637.5,-510 637.5,-516 637.5,-516 637.5,-528 637.5,-528 637.5,-534 631.5,-540 625.5,-540"/>
<text text-anchor="middle" x="536" y="-519.5" font-family="sans" font-size="10.00">population_level_unrelated_ld_pruned</text>
</g>
<!-- 20&#45;&gt;19 -->
<g id="edge31" class="edge">
<title>20&#45;&gt;19</title>
<path fill="none" stroke="grey" stroke-width="2" d="M536,-503.7C536,-495.98 536,-486.71 536,-478.11"/>
<polygon fill="grey" stroke="grey" stroke-width="2" points="539.5,-478.1 536,-468.1 532.5,-478.1 539.5,-478.1"/>
</g>
<!-- 21 -->
<g id="node22" class="node">
<title>21</title>
<path fill="none" stroke="#59d856" stroke-width="2" stroke-dasharray="5,2" d="M639,-684C639,-684 461,-684 461,-684 455,-684 449,-678 449,-672 449,-672 449,-660 449,-660 449,-654 455,-648 461,-648 461,-648 639,-648 639,-648 645,-648 651,-654 651,-660 651,-660 651,-672 651,-672 651,-678 645,-684 639,-684"/>
<text text-anchor="middle" x="550" y="-669" font-family="sans" font-size="10.00">population_level_unrelated_maf_filter</text>
<text text-anchor="middle" x="550" y="-658" font-family="sans" font-size="10.00">maf: 0.2</text>
</g>
<!-- 21&#45;&gt;20 -->
<g id="edge32" class="edge">
<title>21&#45;&gt;20</title>
<path fill="none" stroke="grey" stroke-width="2" d="M585.17,-647.94C598.98,-639.25 613.35,-627.26 621,-612 628.17,-597.7 628.76,-589.99 621,-576 613.87,-563.15 602.19,-553.01 589.73,-545.19"/>
<polygon fill="grey" stroke="grey" stroke-width="2" points="591.44,-542.13 581.03,-540.14 587.92,-548.19 591.44,-542.13"/>
</g>
<!-- 23 -->
<g id="node24" class="node">
<title>23</title>
<path fill="none" stroke="#56d873" stroke-width="2" stroke-dasharray="5,2" d="M600,-612C600,-612 412,-612 412,-612 406,-612 400,-606 400,-600 400,-600 400,-588 400,-588 400,-582 406,-576 412,-576 412,-576 600,-576 600,-576 606,-576 612,-582 612,-588 612,-588 612,-600 612,-600 612,-606 606,-612 600,-612"/>
<text text-anchor="middle" x="506" y="-597" font-family="sans" font-size="10.00">population_level_unrelated_ld_estimate</text>
<text text-anchor="middle" x="506" y="-586" font-family="sans" font-size="10.00">ld: 0.1</text>
</g>
<!-- 21&#45;&gt;23 -->
<g id="edge37" class="edge">
<title>21&#45;&gt;23</title>
<path fill="none" stroke="grey" stroke-width="2" d="M539.12,-647.7C534.01,-639.56 527.8,-629.69 522.16,-620.7"/>
<polygon fill="grey" stroke="grey" stroke-width="2" points="525.04,-618.71 516.75,-612.1 519.11,-622.43 525.04,-618.71"/>
</g>
<!-- 22&#45;&gt;21 -->
<g id="edge34" class="edge">
<title>22&#45;&gt;21</title>
<path fill="none" stroke="grey" stroke-width="2" d="M560.54,-719.7C559,-711.98 557.14,-702.71 555.42,-694.11"/>
<polygon fill="grey" stroke="grey" stroke-width="2" points="558.81,-693.22 553.42,-684.1 551.95,-694.6 558.81,-693.22"/>
</g>
<!-- 34 -->
<g id="node35" class="node">
<title>34</title>
<path fill="none" stroke="#61d856" stroke-width="2" stroke-dasharray="5,2" d="M845,-684C845,-684 681,-684 681,-684 675,-684 669,-678 669,-672 669,-672 669,-660 669,-660 669,-654 675,-648 681,-648 681,-648 845,-648 845,-648 851,-648 857,-654 857,-660 857,-660 857,-672 857,-672 857,-678 851,-684 845,-684"/>
<text text-anchor="middle" x="763" y="-663.5" font-family="sans" font-size="10.00">pull_population_unrelated_controls</text>
</g>
<!-- 22&#45;&gt;34 -->
<g id="edge51" class="edge">
<title>22&#45;&gt;34</title>
<path fill="none" stroke="grey" stroke-width="2" d="M612.43,-719.97C640.23,-710.19 675.34,-697.84 704.65,-687.52"/>
<polygon fill="grey" stroke="grey" stroke-width="2" points="706.08,-690.73 714.36,-684.11 703.76,-684.13 706.08,-690.73"/>
</g>
<!-- 23&#45;&gt;20 -->
<g id="edge33" class="edge">
<title>23&#45;&gt;20</title>
<path fill="none" stroke="grey" stroke-width="2" d="M513.42,-575.7C516.79,-567.81 520.87,-558.3 524.62,-549.55"/>
<polygon fill="grey" stroke="grey" stroke-width="2" points="527.95,-550.67 528.67,-540.1 521.51,-547.92 527.95,-550.67"/>
</g>
<!-- 24&#45;&gt;14 -->
<g id="edge26" class="edge">
<title>24&#45;&gt;14</title>
<path fill="none" stroke="grey" stroke-width="2" d="M430.63,-1151.99C427.13,-1125.38 421,-1072.28 421,-1027 421,-1027 421,-1027 421,-881 421,-720.41 372,-683.59 372,-523 372,-523 372,-523 372,-305 372,-265 372,-218.65 372,-190.08"/>
<polygon fill="grey" stroke="grey" stroke-width="2" points="375.5,-190.05 372,-180.05 368.5,-190.05 375.5,-190.05"/>
</g>
<!-- 24&#45;&gt;27 -->
<g id="edge44" class="edge">
<title>24&#45;&gt;27</title>
<path fill="none" stroke="grey" stroke-width="2" d="M549.52,-1154.2C650.38,-1141.38 794.46,-1123.08 888.6,-1111.12"/>
<polygon fill="grey" stroke="grey" stroke-width="2" points="889.21,-1114.57 898.69,-1109.84 888.33,-1107.63 889.21,-1114.57"/>
</g>
<!-- 25 -->
<g id="node26" class="node">
<title>25</title>
<path fill="none" stroke="#a7d856" stroke-width="2" stroke-dasharray="5,2" d="M846.5,-108C846.5,-108 749.5,-108 749.5,-108 743.5,-108 737.5,-102 737.5,-96 737.5,-96 737.5,-84 737.5,-84 737.5,-78 743.5,-72 749.5,-72 749.5,-72 846.5,-72 846.5,-72 852.5,-72 858.5,-78 858.5,-84 858.5,-84 858.5,-96 858.5,-96 858.5,-102 852.5,-108 846.5,-108"/>
<text text-anchor="middle" x="798" y="-87.5" font-family="sans" font-size="10.00">agg_population_plots</text>
</g>
<!-- 25&#45;&gt;0 -->
<g id="edge6" class="edge">
<title>25&#45;&gt;0</title>
<path fill="none" stroke="grey" stroke-width="2" d="M737.23,-82.16C615.57,-68.47 343.94,-37.9 229,-24.96"/>
<polygon fill="grey" stroke="grey" stroke-width="2" points="229.35,-21.48 219.02,-23.84 228.57,-28.44 229.35,-21.48"/>
</g>
<!-- 26&#45;&gt;25 -->
<g id="edge39" class="edge">
<title>26&#45;&gt;25</title>
<path fill="none" stroke="grey" stroke-width="2" d="M798,-143.7C798,-135.98 798,-126.71 798,-118.11"/>
<polygon fill="grey" stroke="grey" stroke-width="2" points="801.5,-118.1 798,-108.1 794.5,-118.1 801.5,-118.1"/>
</g>
<!-- 27&#45;&gt;25 -->
<g id="edge40" class="edge">
<title>27&#45;&gt;25</title>
<path fill="none" stroke="grey" stroke-width="2" d="M983.6,-1079.95C983.02,-1053.29 982,-1000.12 982,-955 982,-955 982,-955 982,-233 982,-171.43 916.63,-132.81 863.82,-111.65"/>
<polygon fill="grey" stroke="grey" stroke-width="2" points="865.05,-108.38 854.46,-108.03 862.52,-114.9 865.05,-108.38"/>
</g>
<!-- 28 -->
<g id="node29" class="node">
<title>28</title>
<path fill="none" stroke="#56d8c1" stroke-width="2" stroke-dasharray="5,2" d="M756.5,-252C756.5,-252 677.5,-252 677.5,-252 671.5,-252 665.5,-246 665.5,-240 665.5,-240 665.5,-228 665.5,-228 665.5,-222 671.5,-216 677.5,-216 677.5,-216 756.5,-216 756.5,-216 762.5,-216 768.5,-222 768.5,-228 768.5,-228 768.5,-240 768.5,-240 768.5,-246 762.5,-252 756.5,-252"/>
<text text-anchor="middle" x="717" y="-231.5" font-family="sans" font-size="10.00">agg_control_plots</text>
</g>
<!-- 28&#45;&gt;0 -->
<g id="edge7" class="edge">
<title>28&#45;&gt;0</title>
<path fill="none" stroke="grey" stroke-width="2" d="M673.64,-215.85C575.29,-176.94 335.55,-82.11 228.79,-39.88"/>
<polygon fill="grey" stroke="grey" stroke-width="2" points="229.77,-36.51 219.19,-36.08 227.2,-43.02 229.77,-36.51"/>
</g>
<!-- 29 -->
<g id="node30" class="node">
<title>29</title>
<path fill="none" stroke="#56d882" stroke-width="2" stroke-dasharray="5,2" d="M746.5,-324C746.5,-324 709.5,-324 709.5,-324 703.5,-324 697.5,-318 697.5,-312 697.5,-312 697.5,-300 697.5,-300 697.5,-294 703.5,-288 709.5,-288 709.5,-288 746.5,-288 746.5,-288 752.5,-288 758.5,-294 758.5,-300 758.5,-300 758.5,-312 758.5,-312 758.5,-318 752.5,-324 746.5,-324"/>
<text text-anchor="middle" x="728" y="-303.5" font-family="sans" font-size="10.00">plot_hwe</text>
</g>
<!-- 29&#45;&gt;28 -->
<g id="edge45" class="edge">
<title>29&#45;&gt;28</title>
<path fill="none" stroke="grey" stroke-width="2" d="M725.28,-287.7C724.07,-279.98 722.61,-270.71 721.26,-262.11"/>
<polygon fill="grey" stroke="grey" stroke-width="2" points="724.7,-261.44 719.69,-252.1 717.78,-262.53 724.7,-261.44"/>
</g>
<!-- 30 -->
<g id="node31" class="node">
<title>30</title>
<path fill="none" stroke="#d8d356" stroke-width="2" stroke-dasharray="5,2" d="M839.5,-396C839.5,-396 644.5,-396 644.5,-396 638.5,-396 632.5,-390 632.5,-384 632.5,-384 632.5,-372 632.5,-372 632.5,-366 638.5,-360 644.5,-360 644.5,-360 839.5,-360 839.5,-360 845.5,-360 851.5,-366 851.5,-372 851.5,-372 851.5,-384 851.5,-384 851.5,-390 845.5,-396 839.5,-396"/>
<text text-anchor="middle" x="742" y="-375.5" font-family="sans" font-size="10.00">population_level_unrelated_controls_hwe</text>
</g>
<!-- 30&#45;&gt;29 -->
<g id="edge46" class="edge">
<title>30&#45;&gt;29</title>
<path fill="none" stroke="grey" stroke-width="2" d="M738.54,-359.7C737,-351.98 735.14,-342.71 733.42,-334.11"/>
<polygon fill="grey" stroke="grey" stroke-width="2" points="736.81,-333.22 731.42,-324.1 729.95,-334.6 736.81,-333.22"/>
</g>
<!-- 31 -->
<g id="node32" class="node">
<title>31</title>
<path fill="none" stroke="#5663d8" stroke-width="2" stroke-dasharray="5,2" d="M829,-468C829,-468 685,-468 685,-468 679,-468 673,-462 673,-456 673,-456 673,-444 673,-444 673,-438 679,-432 685,-432 685,-432 829,-432 829,-432 835,-432 841,-438 841,-444 841,-444 841,-456 841,-456 841,-462 835,-468 829,-468"/>
<text text-anchor="middle" x="757" y="-447.5" font-family="sans" font-size="10.00">keep_only_autosomal_variants</text>
</g>
<!-- 31&#45;&gt;30 -->
<g id="edge47" class="edge">
<title>31&#45;&gt;30</title>
<path fill="none" stroke="grey" stroke-width="2" d="M753.29,-431.7C751.64,-423.98 749.65,-414.71 747.81,-406.11"/>
<polygon fill="grey" stroke="grey" stroke-width="2" points="751.18,-405.15 745.67,-396.1 744.34,-406.62 751.18,-405.15"/>
</g>
<!-- 32 -->
<g id="node33" class="node">
<title>32</title>
<path fill="none" stroke="#56c1d8" stroke-width="2" stroke-dasharray="5,2" d="M799,-540C799,-540 729,-540 729,-540 723,-540 717,-534 717,-528 717,-528 717,-516 717,-516 717,-510 723,-504 729,-504 729,-504 799,-504 799,-504 805,-504 811,-510 811,-516 811,-516 811,-528 811,-528 811,-534 805,-540 799,-540"/>
<text text-anchor="middle" x="764" y="-519.5" font-family="sans" font-size="10.00">keep_only_snps</text>
</g>
<!-- 32&#45;&gt;31 -->
<g id="edge48" class="edge">
<title>32&#45;&gt;31</title>
<path fill="none" stroke="grey" stroke-width="2" d="M762.27,-503.7C761.5,-495.98 760.57,-486.71 759.71,-478.11"/>
<polygon fill="grey" stroke="grey" stroke-width="2" points="763.19,-477.71 758.71,-468.1 756.22,-478.4 763.19,-477.71"/>
</g>
<!-- 33 -->
<g id="node34" class="node">
<title>33</title>
<path fill="none" stroke="#56d8d0" stroke-width="2" stroke-dasharray="5,2" d="M902,-612C902,-612 680,-612 680,-612 674,-612 668,-606 668,-600 668,-600 668,-588 668,-588 668,-582 674,-576 680,-576 680,-576 902,-576 902,-576 908,-576 914,-582 914,-588 914,-588 914,-600 914,-600 914,-606 908,-612 902,-612"/>
<text text-anchor="middle" x="791" y="-597" font-family="sans" font-size="10.00">population_level_unrelated_controls_maf_filter</text>
<text text-anchor="middle" x="791" y="-586" font-family="sans" font-size="10.00">maf: 0.05</text>
</g>
<!-- 33&#45;&gt;32 -->
<g id="edge49" class="edge">
<title>33&#45;&gt;32</title>
<path fill="none" stroke="grey" stroke-width="2" d="M784.33,-575.7C781.29,-567.81 777.62,-558.3 774.24,-549.55"/>
<polygon fill="grey" stroke="grey" stroke-width="2" points="777.46,-548.17 770.6,-540.1 770.93,-550.69 777.46,-548.17"/>
</g>
<!-- 34&#45;&gt;33 -->
<g id="edge50" class="edge">
<title>34&#45;&gt;33</title>
<path fill="none" stroke="grey" stroke-width="2" d="M769.92,-647.7C773.07,-639.81 776.88,-630.3 780.38,-621.55"/>
<polygon fill="grey" stroke="grey" stroke-width="2" points="783.69,-622.69 784.16,-612.1 777.19,-620.09 783.69,-622.69"/>
</g>
<!-- 35&#45;&gt;34 -->
<g id="edge52" class="edge">
<title>35&#45;&gt;34</title>
<path fill="none" stroke="grey" stroke-width="2" d="M683.57,-1367.76C702.36,-1342.1 734,-1291.67 734,-1243 734,-1243 734,-1243 734,-809 734,-768.21 745.63,-722.15 754.16,-693.84"/>
<polygon fill="grey" stroke="grey" stroke-width="2" points="757.51,-694.84 757.13,-684.26 750.82,-692.77 757.51,-694.84"/>
</g>
</g>
</svg>
